<?xml version="1.0" encoding="UTF-8"?>
<svg id="_Слой_1" data-name="Слой 1" xmlns="http://www.w3.org/2000/svg" viewBox="0 0 150.754 117.95">
  <defs>
    <style>
      .cls-1 {
        fill: #fff;
      }

      .cls-2 {
        fill: #1e1e1c;
      }

      .cls-3 {
        fill: #d73426;
      }
    </style>
  </defs>
  <path class="cls-1" d="m131.355,70.29c-.639,2.319-3.835.95-4.023-.812-.058-.574-.591-.819-1.033-.763-.245-.073-.532-.05-.77.189-2.893,2.771-2.639-2.769-2.319-4.016.098-.394-.123-.951-.574-1.008-1.646-.229-4.262-2.902-1.54-3.853.909-.319.622-1.639-.189-1.614-.114-.099-.253-.18-.434-.204-2.607-.328-2.337-3.345-.197-4.124.566-.204.836-.909.361-1.368-1.615-1.581.098-2.377,1.131-2.721.163-.05.852-.163,1.352-.082.105.091.236.14.369.147.09.066.155.147.155.263.024.917,1.253,1.033,1.564.36.033-.017.066-.033.099-.065.009,0,.018,0,.025-.009,0-.009.017-.009.017-.016.032-.025.064-.049.09-.083.278-.245.377-.654.269-.975.165-.345.469-.591.838-.787.31-.173,1.556-.541,1.852-.205.409.483.984.254,1.237-.172.5-.081.967-.631.664-1.229-.877-1.705,2.893-4.058,3.516-2.336.214.574,1.198.919,1.5.189.738-1.738,3.36-2.827,4.427-.713.081.376.45.696.844.696.188,0,.369-.064.541-.222.811-.745,2.024-.639,2.934-.155,1.024.549-.049,2.05-.499,2.582-.501.574-.041,1.656.794,1.368.46-.155.838-.261,1.337-.278,1.483-.032,1.065,1.976.287,2.468-.222.139-.328.319-.368.517-.476.59.262,1.631,1.089,1.204.624-.311,1.722-.426,2.197.197.277.368.286.762.032,1.139-.114.173-.238.353-.369.533-.049.066-.312.294-.122.205-.091.04-.14.099-.197.155-.622.196-.942,1.106-.213,1.459.975.484,1.091,1.369.894,2.36-.164.827-1.155,1.131-1.819,1.451-.312.155-.419.418-.402.68-.147.271-.147.624.14.918,1.212,1.262-.041,4.017-1.877,3.115-.804-.394-1.713.622-.991,1.287,1.77,1.639-2.525,3.982-4.156,2.909-.032-.058-.073-.115-.122-.172-.477-.541-1.148-.173-1.32.369-.147.245-.147.548.091.803-.304.114-1.558,1.467-1.919,1.565-.787.213-3.451.181-3.573-.935-.099-.878-1.353-1.163-1.615-.213Z"/>
  <path class="cls-1" d="m4.19,68.077c-.836.073-1.851-.337-2.18-1.148-.319-.771.073-1.426.853-1.574.541-.098.681-.573.541-.982.098-.32.016-.698-.345-.927-2.655-1.697-1.123-3.476,1.025-4.524.409-.205.5-.754.294-1.123-1.099-2.009-.721-4.295,1.959-4.304.229,0,.393-.081.525-.204.77.082,1.303-1.066.5-1.523-.311-.182-1.188-.551-.935-1.01.228-.418.885-.688,1.287-.892.844-.436,1.803-.706,2.728-.902.476-.106.804-.795.492-1.204-1.483-1.951,1.688-2.836,3.172-2.279.483.181.828-.106.942-.483.434-.172.729-.639.393-1.131-1.974-2.909,1.952-2.942,3.599-2.689.509.082,1.197.189,1.697.008,1.311-.492,4.656-3.146,5.532-1.18-.041.204-.064.417-.058.655.034.976,1.418,1.041,1.6.205.154-.173.253-.409.212-.689.525-.549,2.074-.221,2.148.754.056.754.827,1.032,1.4.582.96-.771,3.844-1.369,3.787.508,0,.156.033.279.09.385-.237.632.418,1.46,1.148,1.009.688-.427,3.761-2.262,3.958-.024.041.483.5.992,1.033.796,1.876-.706,6.4-1.968,6.531,1.368.01.262.116.459.288.598-.247.86,1.007,1.541,1.458.656.977-1.91,3.697-.762,3.968,1.033.074.508.804.777,1.205.491.958-.688,2.917-1.385,3.868-.147.23.295.894,1.114.91,1.491,0,.107.033.205.065.295-.204.747.746,1.541,1.328.828,1.278-1.549,4-.745,4.064,1.336.017.5.517.976,1.041.787.77-.278,2.689-1.091,3.304-.115.287.468.45,1.066.606,1.591,0,.017.016.024.016.041-.344.598.074,1.541.853,1.222,1.893-.787,3.673-.551,4.05,1.745.089.558.769.705,1.205.491,2.032-1.016,4.032.206,4.09,2.394-.647.599.105,1.796.966,1.296,1.197-.706,4.272-.484,3.714,1.532-.181.631.599,1.377,1.204.926,2.024-1.532,3.598.172,3.411,2.295-.009.058.007.106.007.156-.229.664.706,1.409,1.387.836,1.498-1.263,3.572.31,3.523,2.016-.024.615.714,1.025,1.229.706.688-.428,1.335-.477,2.114-.287,1.254.302.803,1.951.648,2.778-.05.254.008.468.122.63.139.534.844.928,1.378.436,1.475-1.344,4.728.271,3.221,2.286-.632.853.787,1.656,1.418.828.401-.532,1.27-.271,1.795-.114,1.229.352,1.139,1.549.803,2.491-.181.517.155.877.573.967.025.484.402.927.983.722.624-.222,1.23-.345,1.894-.353,1.303-.016,1.008,1.647.598,2.295-.491.763.434,1.419,1.123,1.115,1.066-.459,1.64-.083,1.794,1.017.083.532-.056.877-.285,1.221-.304.09-.558.328-.558.745v.271c0,.811.893,1,1.393.55,2.139-.049,3.581,1.803,2.868,3.885-.131.378.147.943.573,1.01,2.337.318,2.106,3.023.354,4.098-.427.254-.46.696-.296,1.048-.172.345-.139.796.296,1.05,1.892,1.123-.394,2.811-1.64,2.844-.565.018-1.098.705-.705,1.238.418.565.878,1.106,1.278,1.689.927,1.335-.196,2.155-1.164,2.777-.647.025-1.065,1.066-.367,1.559.908.655,1.408.86,1.179,2.114-.204,1.146-1.318,1.196-2.269,1.278-.574.049-1.082.673-.706,1.237.558.836.771,1.672.018,2.451-.755.771-1.976.525-2.566-.278-.114-.156-.262-.255-.418-.304-.131-.139-.311-.237-.564-.237-.706,0-1.401-.017-2.082-.246-.828-.279-.836-1.255-.204-1.771.604-.492.13-1.246-.493-1.345-.041-.368-.286-.721-.77-.737-.787-.024-3.641-.558-2.566-1.606.427-.41.255-1.245-.36-1.368-1.713-.352-4.131-1.189-3.254-3.361.262-.631-.304-1.024-.845-.976-.123-.107-.277-.188-.491-.204-1.598-.074-2.836-.696-3.336-2.287-.188-.574-.5-1-1.009-1.304-.524-.311-1.319-.188-1.893-.188-1.475-.009-1.533-1.755-1.549-2.779,0-.467-.328-.713-.688-.77-.164-.099-.378-.115-.624-.017-.729.303-3.146-.418-2.204-1.361.697-.696-.181-1.655-.991-1.286-1.156.517-3.713-.229-3.549-1.755.089-.811-.87-.983-1.361-.541-.172-.032-.361-.016-.557.107-1.206.763-1.656-1.975-1.935-2.786-.188-.533-.705-.722-1.204-.492-1.278.598-4.156-.255-3.852-2.082.089-.541-.296-.91-.714-1-.132-.099-.278-.172-.483-.172-1.845.008-3.819.181-4.401-1.992-.115-.418-.582-.705-1.009-.573-1.5.475-4.294.148-4.154-1.943.023-.401-.197-.648-.492-.746-.279-.18-.639-.18-.909.165-.902,1.172-2.697.295-2.836-1.059-.059-.622-.895-1.196-1.394-.581-.688.844-1.648.689-2.566.401-1.254-.376-1.517-1.533-1.499-2.688,0-.459-.304-.704-.656-.762-.131-.14-.32-.222-.574-.197-.721.074-.975.288-1.737.558-1.753.64-3.549-.778-3.893-2.41-.106-.507-.778-.771-1.204-.491-1.271.836-4.229.451-4.229-1.476,0-.45-.296-.696-.64-.762-.229-.271-.607-.418-1.008-.221-1.959,1.245-3.697.868-5.23-1.141-.351-.491-1.081-.565-1.417,0-.746,1.254-4.696,1.336-4.032-1.008.221-.778-.795-1.394-1.368-.795-.541.558-3.918,2.36-3.722-.041.049-.673-.606-.909-1.106-.713-.345-.148-.778-.099-1.041.303-1.131,1.763-5.041-.319-5.262-1.853-.106-.762-1.156-.721-1.5-.196-.878,1.353-6.049,2.41-5.844,0,.09-1.032-1.492-1.032-1.632-.04-.164.09-.31.221-.393.442-.598,1.589-2.073,2.959-3.812,3.114Z"/>
  <path class="cls-3" d="m96.144,68.167c-.582-2.025-2.778-3.272-4.754-2.738-.049-1.147-.351-2.598-1.245-3.074-.991-.532-2.279-.655-3.402-.335-.426-1.836-2.729-2.689-4.712-2.353-.369-2.762-2.934-4.262-5.533-3.549-.728-2.057-2.68-2.835-4.762-2.377-.27-.886-.599-1.787-1.229-2.459-.877-.934-2.549-.605-3.787-.221-.754-2.205-3.467-3.377-5.507-2.345-.36-.893-1.058-1.901-1.664-2.213-1.442-.729-3.041-.737-4.45-.09-.96-1.942-3.656-2.804-5.451-1.729-.722-3.353-4.827-3.195-7.68-2.353-.738-2.064-3.041-1.844-5.009-.967-.393-2.442-3.45-2.558-5.54-1.614-.836-1.353-2.828-1.778-4.09-1.115-.377-.418-.886-.713-1.483-.893,7.696-8.32,17.359-15.033,26.769-21.229,9.68-6.376,20.36-11.908,31.776-14.285,6.378-1.336,12.803-.632,18.254,3.057,4.458,3.017,7.564,7.901,10.393,12.352,5.935,9.319,11.819,18.573,15.105,29.179-.722-.041-1.508.14-2.049.354-.787.311-1.409.827-1.77,1.507-.058-.024-.107-.049-.164-.073-1.304-2.122-3.295-3.786-5.845-4.131-2.22-.304-5.532-.804-7.598.435-.263-1.771-.869-3.5-2.099-4.689-.762-.737-1.926.426-1.163,1.155,1.517,1.46,1.68,3.837,1.762,5.82.04,1.008.106,3.573-.451,5.048-1.737-2.737-3.908-3.851-6.704-6.154-.811-.665-1.975.492-1.163,1.163,2.573,2.114,5.163,3.303,6.852,6.393,1.728,3.173,2.359,7.065,3.401,10.492.991,3.27,2.975,6.041,3.722,9.426.721,3.236,1.408,6.917.934,10.302-.066-.221-.147-.442-.253-.671-.428-.918-1.271-1.189-2.141-1.156.091-.837-.163-1.672-.754-2.426-.819-1.041-2.344-.918-3.549-.59.377-1.533-.016-2.951-1.532-3.764-.656-.352-1.402-.516-2.115-.458-.049-2.148-2.787-3.745-5.041-3.131.099-1.073-.032-2.123-.917-2.918-.886-.787-2.214-.894-3.361-.581Z"/>
  <path class="cls-2" d="m133.814,44.807c-.623-1.722-4.393.631-3.516,2.336.303.599-.164,1.148-.664,1.229-.253.426-.828.655-1.237.172-.296-.336-1.541.032-1.852.205-.369.196-.673.442-.838.787.107.32.009.729-.269.975-.025.034-.058.058-.09.083,0,.007-.017.007-.017.016-.008.009-.017.009-.025.009-.032.032-.065.049-.099.065-.311.673-1.54.557-1.564-.36,0-.115-.065-.196-.155-.263-.133-.008-.264-.057-.369-.147-.5-.081-1.189.032-1.352.082-1.033.344-2.746,1.14-1.131,2.721.475.459.205,1.164-.361,1.368-2.14.779-2.41,3.796.197,4.124.181.024.319.105.434.204.811-.024,1.099,1.295.189,1.614-2.722.951-.106,3.624,1.54,3.853.451.057.672.614.574,1.008-.319,1.246-.574,6.786,2.319,4.016.238-.238.525-.262.77-.189.442-.057.976.189,1.033.763.188,1.762,3.385,3.131,4.023.812.263-.95,1.517-.665,1.615.213.122,1.115,2.786,1.147,3.573.935.361-.099,1.615-1.451,1.919-1.565-.238-.255-.238-.558-.091-.803.172-.542.844-.91,1.32-.369.049.057.09.114.122.172,1.631,1.073,5.927-1.271,4.156-2.909-.722-.665.187-1.681.991-1.287,1.836.901,3.089-1.853,1.877-3.115-.287-.294-.287-.647-.14-.918-.017-.262.09-.524.402-.68.664-.32,1.655-.624,1.819-1.451.197-.991.081-1.876-.894-2.36-.729-.353-.409-1.263.213-1.459.058-.057.107-.115.197-.155-.189.089.073-.14.122-.205.131-.181.255-.36.369-.533.254-.377.245-.771-.032-1.139-.476-.623-1.573-.509-2.197-.197-.827.427-1.565-.614-1.089-1.204.04-.197.146-.378.368-.517.778-.492,1.196-2.5-.287-2.468-.499.018-.877.123-1.337.278-.835.288-1.295-.794-.794-1.368.45-.532,1.523-2.033.499-2.582-.909-.483-2.122-.59-2.934.155-.172.157-.353.222-.541.222-.394,0-.763-.32-.844-.696-1.066-2.114-3.688-1.025-4.427.713-.302.73-1.286.386-1.5-.189Zm-42.424,20.622c1.976-.533,4.172.713,4.754,2.738,1.147-.312,2.476-.206,3.361.581.885.795,1.016,1.845.917,2.918,2.254-.614,4.992.983,5.041,3.131.713-.058,1.459.106,2.115.458,1.517.812,1.909,2.23,1.532,3.764,1.205-.328,2.729-.451,3.549.59.591.754.845,1.589.754,2.426.87-.033,1.713.238,2.141,1.156.105.228.186.45.253.671.475-3.385-.213-7.065-.934-10.302-.747-3.385-2.73-6.155-3.722-9.426-1.042-3.427-1.673-7.319-3.401-10.492-1.688-3.09-4.278-4.278-6.852-6.393-.811-.671.352-1.828,1.163-1.163,2.796,2.303,4.967,3.417,6.704,6.154.558-1.475.491-4.04.451-5.048-.082-1.983-.245-4.36-1.762-5.82-.763-.729.401-1.893,1.163-1.155,1.229,1.189,1.836,2.918,2.099,4.689,2.065-1.238,5.378-.738,7.598-.435,2.55.345,4.541,2.009,5.845,4.131.057.024.106.049.164.073.36-.68.982-1.196,1.77-1.507.541-.214,1.327-.395,2.049-.354-3.286-10.605-9.171-19.859-15.105-29.179-2.828-4.45-5.935-9.335-10.393-12.352-5.451-3.689-11.876-4.393-18.254-3.057-11.416,2.377-22.097,7.909-31.776,14.285-9.409,6.196-19.072,12.909-26.769,21.229.598.18,1.106.475,1.483.893,1.262-.663,3.254-.238,4.09,1.115,2.09-.943,5.147-.828,5.54,1.614,1.968-.877,4.27-1.098,5.009.967,2.852-.843,6.958-1,7.68,2.353,1.795-1.074,4.491-.213,5.451,1.729,1.409-.647,3.008-.639,4.45.09.606.311,1.304,1.32,1.664,2.213,2.04-1.032,4.753.14,5.507,2.345,1.238-.385,2.91-.713,3.787.221.631.672.959,1.573,1.229,2.459,2.082-.458,4.033.32,4.762,2.377,2.599-.713,5.164.787,5.533,3.549,1.983-.335,4.286.518,4.712,2.353,1.123-.32,2.411-.197,3.402.335.894.476,1.196,1.927,1.245,3.074Zm-89.38,1.5c.328.811,1.344,1.221,2.18,1.148,1.738-.155,3.214-1.525,3.812-3.114.083-.222.229-.352.393-.442.14-.992,1.722-.992,1.632.04-.205,2.41,4.966,1.353,5.844,0,.344-.524,1.393-.566,1.5.196.221,1.533,4.131,3.615,5.262,1.853.263-.401.696-.45,1.041-.303.5-.196,1.155.04,1.106.713-.196,2.401,3.181.599,3.722.041.573-.599,1.589.017,1.368.795-.664,2.344,3.286,2.262,4.032,1.008.336-.565,1.065-.491,1.417,0,1.533,2.009,3.271,2.386,5.23,1.141.4-.197.778-.05,1.008.221.344.065.64.311.64.762,0,1.927,2.958,2.312,4.229,1.476.426-.279,1.098-.016,1.204.491.345,1.632,2.141,3.05,3.893,2.41.763-.27,1.017-.483,1.737-.558.254-.024.443.058.574.197.353.058.656.303.656.762-.018,1.155.245,2.312,1.499,2.688.918.287,1.878.442,2.566-.401.499-.615,1.335-.041,1.394.581.139,1.353,1.934,2.23,2.836,1.059.27-.345.63-.345.909-.165.295.099.516.345.492.746-.14,2.091,2.654,2.418,4.154,1.943.427-.132.893.155,1.009.573.582,2.173,2.557,2,4.401,1.992.205,0,.352.073.483.172.418.09.803.459.714,1-.305,1.827,2.573,2.68,3.852,2.082.499-.229,1.016-.041,1.204.492.279.811.729,3.549,1.935,2.786.195-.123.385-.14.557-.107.491-.442,1.45-.271,1.361.541-.164,1.525,2.393,2.272,3.549,1.755.811-.369,1.689.59.991,1.286-.942.943,1.475,1.664,2.204,1.361.246-.099.46-.082.624.017.36.057.688.303.688.77.016,1.024.074,2.771,1.549,2.779.573,0,1.368-.123,1.893.188.509.304.82.729,1.009,1.304.5,1.591,1.738,2.213,3.336,2.287.214.017.368.098.491.204.541-.049,1.106.345.845.976-.877,2.172,1.541,3.009,3.254,3.361.615.123.787.958.36,1.368-1.074,1.049,1.779,1.582,2.566,1.606.483.017.729.369.77.737.623.099,1.098.853.493,1.345-.632.516-.624,1.491.204,1.771.681.229,1.376.246,2.082.246.253,0,.434.099.564.237.156.049.304.147.418.304.591.804,1.811,1.05,2.566.278.754-.779.54-1.615-.018-2.451-.376-.565.132-1.189.706-1.237.951-.082,2.065-.132,2.269-1.278.229-1.254-.27-1.459-1.179-2.114-.698-.492-.28-1.533.367-1.559.968-.622,2.091-1.442,1.164-2.777-.4-.582-.86-1.123-1.278-1.689-.392-.533.14-1.221.705-1.238,1.246-.032,3.532-1.721,1.64-2.844-.435-.254-.468-.705-.296-1.05-.164-.352-.131-.794.296-1.048,1.753-1.074,1.983-3.779-.354-4.098-.426-.066-.704-.632-.573-1.01.713-2.082-.729-3.934-2.868-3.885-.501.45-1.393.262-1.393-.55v-.271c0-.417.254-.655.558-.745.229-.344.368-.689.285-1.221-.154-1.1-.728-1.476-1.794-1.017-.689.304-1.614-.352-1.123-1.115.41-.647.705-2.311-.598-2.295-.664.008-1.27.131-1.894.353-.581.205-.958-.237-.983-.722-.418-.09-.754-.45-.573-.967.336-.942.427-2.14-.803-2.491-.525-.156-1.394-.418-1.795.114-.631.828-2.05.024-1.418-.828,1.508-2.016-1.746-3.63-3.221-2.286-.534.492-1.239.099-1.378-.436-.114-.162-.172-.376-.122-.63.154-.827.605-2.477-.648-2.778-.779-.189-1.426-.141-2.114.287-.516.319-1.254-.091-1.229-.706.049-1.705-2.025-3.278-3.523-2.016-.681.573-1.615-.172-1.387-.836,0-.05-.016-.099-.007-.156.186-2.123-1.387-3.827-3.411-2.295-.605.451-1.385-.295-1.204-.926.558-2.017-2.517-2.238-3.714-1.532-.86.5-1.613-.697-.966-1.296-.058-2.188-2.058-3.409-4.09-2.394-.436.214-1.116.066-1.205-.491-.377-2.296-2.156-2.532-4.05-1.745-.778.319-1.196-.624-.853-1.222,0-.017-.016-.024-.016-.041-.156-.524-.319-1.123-.606-1.591-.614-.976-2.533-.163-3.304.115-.524.189-1.024-.287-1.041-.787-.064-2.081-2.786-2.885-4.064-1.336-.582.713-1.532-.081-1.328-.828-.032-.09-.065-.188-.065-.295-.017-.377-.68-1.196-.91-1.491-.951-1.237-2.91-.541-3.868.147-.401.286-1.131.017-1.205-.491-.27-1.795-2.991-2.943-3.968-1.033-.451.885-1.705.204-1.458-.656-.172-.139-.278-.336-.288-.598-.131-3.336-4.655-2.074-6.531-1.368-.533.196-.992-.312-1.033-.796-.197-2.237-3.269-.402-3.958.024-.73.451-1.386-.377-1.148-1.009-.057-.105-.09-.228-.09-.385.057-1.877-2.827-1.278-3.787-.508-.573.45-1.345.172-1.4-.582-.074-.975-1.623-1.303-2.148-.754.041.279-.058.516-.212.689-.182.836-1.565.77-1.6-.205-.007-.238.017-.451.058-.655-.876-1.967-4.221.688-5.532,1.18-.5.181-1.188.074-1.697-.008-1.646-.254-5.572-.221-3.599,2.689.337.492.042.959-.393,1.131-.114.377-.459.664-.942.483-1.483-.557-4.655.328-3.172,2.279.311.409-.017,1.098-.492,1.204-.926.196-1.885.467-2.728.902-.402.204-1.059.475-1.287.892-.254.459.623.828.935,1.01.803.457.27,1.605-.5,1.523-.132.123-.296.204-.525.204-2.68.009-3.058,2.295-1.959,4.304.206.369.115.918-.294,1.123-2.148,1.049-3.681,2.827-1.025,4.524.36.228.442.606.345.927.14.409,0,.885-.541.982-.779.148-1.172.804-.853,1.574Zm.599-9.074c-1.024-2.598-.172-5.262,2.541-5.86-.524-.721-.673-1.581.131-2.418.959-1,2.36-1.573,3.721-1.95-.836-2.368,2.073-4.154,4.517-3.95-.385-1.099-.353-2.385.64-3.205,1.983-1.646,3.483-.655,5.753-.844,1.434-.123,2.5-1.385,3.795-1.885.032-.091.073-.181.148-.263,8.458-9.435,19.629-17.295,30.358-23.941C64.211,7.35,76.244.745,88.268.047c11.426-.655,18.917,5.558,24.883,14.728,6.197,9.541,12.393,19.139,16.033,29.933,1.212-1.77,3.844-2.81,5.368-1.581,1.614-1.919,4.819-2.311,6.327-.123,1.509-.73,3.5-.509,4.656.745.787.86.671,1.951.237,2.942.975.082,1.812.59,2.353,1.681.368.745.311,1.549,0,2.254.959.073,1.852.483,2.303,1.394.377.771.492,1.737-.008,2.492-.181.27-.387.631-.623.934.705.779.942,1.853.795,2.967-.189,1.394-1.009,2.082-2.099,2.672,1.229,2.131-.187,4.976-2.417,5.328.409,2.491-3.549,4.91-6.311,4.172-.55,1.164-1.885,2.295-2.787,2.434-1.508.23-3.647.172-4.819-.87-1.687,1.829-5.082.829-6.146-1.548-1.271.845-3.05,1.221-3.992-.304-.918-1.492-.91-3.336-.582-5.024-2.5-.852-3.959-3.984-2.327-5.829-1.181-.557-2.114-1.597-2.229-2.975-.132-1.598.663-2.72,1.877-3.45-1.582-2.401.876-4.278,3.213-4.631-1.386-1.599-3.172-2.287-5.509-2.418-1.687-.091-3.852-.5-5.277.582-.116.09-.223.131-.328.155.016.435.016.861,0,1.278-.073,1.64-.058,4.483-1.181,5.926,1.426,3.116,1.926,6.566,3.057,9.787.812,2.327,2.337,4.377,3.033,6.728.663,2.263.959,4.533,1.32,6.86.476,3.14.803,6.074-.173,9.098,1.796.797,2.934,2.714,2.622,4.754,2.846.968,2.697,4.713.492,6.549,2.024,1.664.607,4.311-1.573,5.214.737,1,1.319,2.008,1.024,3.409-.214,1.041-.769,1.516-1.499,1.976.934.877,1.262,1.811.762,3.483-.369,1.245-1.401,1.728-2.533,1.951,1,3.245-3.18,5.844-5.639,3.023-1.172-.008-2.574-.082-3.442-.95-.828-.836-.942-2.189-.369-3.181-1.91-.238-4.639-1.476-3.992-3.295-2.016-.672-3.893-2.065-3.54-4.221-1.27-.132-2.722-.55-3.516-1.574-.378-.476-.624-.918-.811-1.5-.279-.893-.681-.582-1.435-.671-2.082-.263-2.901-1.682-3.114-3.46-1.713.205-3.729-1.106-3.805-2.655-1.713.008-3.622-.803-4.179-2.295-2.09.983-3.049-1.369-3.672-3.196-2.319.458-5.124-.926-5.352-3.328-2.295-.024-4.369-.311-5.312-2.459-2.008.328-4.475-.393-5.244-2.213-1.46.581-3.214-.344-4.025-1.762-1.082.531-2.434.369-3.59-.099-1.599-.655-2.181-1.869-2.295-3.377-1.5.255-2.5,1.032-4.163.156-1.1-.574-1.91-1.312-2.369-2.36-2.189.721-5.147-.304-5.689-2.566-2.352.927-4.401.591-6.073-1.213-1.942,1.565-5.549.878-6.278-1.353-1.877.91-4.459.959-5.05-.934-2.008,1.36-5.687.229-7.007-1.861-2.041,1.37-5.796,1.828-7.263.205-1.458,2.311-4.425,4.189-7.016,2.59-1.786-1.098-2.287-3.852-.606-4.974-2.36-2.107-1.468-4.731,1.246-6.346Z"/>
</svg>