<svg xmlns="http://www.w3.org/2000/svg" shape-rendering="geometricPrecision"
    text-rendering="geometricPrecision" image-rendering="optimizeQuality" fill-rule="evenodd"
    clip-rule="evenodd" viewBox="0 0 404 512.397">
    <path fill="#D80027"
        d="M158.955 82.526c-.011-2.574 1.107-4.901 2.962-6.425l-.674-28.91.024-.001v-.069c-.205-22.043 10.434-36.826 24.063-43.523A39.61 39.61 0 01195.579.204L202 0l6.42.204a39.617 39.617 0 0110.25 3.394c13.629 6.697 24.268 21.48 24.062 43.523v.069l.025.001-.674 28.91c1.855 1.524 2.972 3.851 2.962 6.425l-.229 49.036H159.183l-.228-49.036zM202 11.349c-3.905.108-7.829 1.071-11.473 2.861-9.884 4.857-17.605 15.923-17.467 32.705h.024l.632 27.201L202 73.457l28.284.659.632-27.201h.024c.137-16.782-7.583-27.848-17.467-32.705-3.644-1.79-7.569-2.753-11.473-2.861z" />
    <circle fill="#ED1C24" cx="202" cy="309.919" r="202" />
    <circle fill="#FF5023" cx="202" cy="308.973" r="201.531" />
    <path fill="#ED1C24"
        d="M202 107.442c75.858 0 141.912 41.919 176.3 103.845l-14.508 10.638-42.576-35.008-36.901 35.008-40.686-36.899-42.575 34.062-38.793-33.118-39.738 36.902-44.469-36.902-38.793 37.848-13.494-12.65C60.174 149.307 126.192 107.442 202 107.442zM202 512.397c75.858 0 141.912-41.92 176.3-103.845l-14.508-10.638-42.576 35.008-36.901-35.008-40.686 36.899-42.575-34.062-38.793 33.118-39.738-36.902-44.469 36.902-38.793-37.848-13.494 12.65C60.174 470.532 126.192 512.397 202 512.397z" />
    <path fill="#fff"
        d="M192.509 225.975l21.998 28.925 35.7-6.777-20.708 29.86 17.476 31.86-34.799-10.47-24.901 26.466-.795-36.329-32.867-15.504 34.308-11.983zM241.12 346.274l14.454 19.007 23.458-4.453-13.607 19.621 11.483 20.934-22.866-6.88-16.362 17.391-.522-23.871-21.597-10.188 22.543-7.874zM311.887 242.379l14.454 19.007 23.459-4.453-13.608 19.62 11.484 20.935-22.866-6.88-16.363 17.391-.522-23.871-21.597-10.188 22.544-7.874zM130.243 308.079l-14.454 19.006-23.458-4.453 13.607 19.621-11.484 20.934 22.866-6.879 16.363 17.39.522-23.871 21.597-10.188-22.544-7.873zM78.213 236.613l-14.454 19.006-23.458-4.452 13.607 19.62-11.484 20.935 22.866-6.88 16.363 17.391.522-23.872 21.597-10.187-22.544-7.874z" />
    <circle fill="#fff" cx="106.063" cy="156.92" r="8.578" />
    <circle fill="#fff" cx="144.452" cy="156.92" r="8.578" />
    <circle fill="#fff" cx="182.84" cy="156.92" r="8.578" />
    <circle fill="#fff" cx="221.228" cy="156.92" r="8.578" />
    <circle fill="#fff" cx="259.617" cy="156.92" r="8.578" />
    <circle fill="#fff" cx="298.005" cy="156.92" r="8.578" />
    <circle fill="#fff" cx="144.452" cy="474.664" r="8.578" />
    <circle fill="#fff" cx="182.84" cy="474.664" r="8.578" />
    <circle fill="#fff" cx="221.228" cy="474.664" r="8.578" />
    <circle fill="#fff" cx="259.617" cy="474.664" r="8.578" />
</svg>