<?xml version="1.0" encoding="utf-8"?>
<!-- Generator: Adobe Illustrator 27.3.1, SVG Export Plug-In . SVG Version: 6.00 Build 0)  -->
<svg version="1.1" id="_Слой_1" xmlns="http://www.w3.org/2000/svg" xmlns:xlink="http://www.w3.org/1999/xlink" x="0px"
	 y="0px" viewBox="0 0 164 36.3" style="enable-background:new 0 0 164 36.3;" xml:space="preserve">
<style type="text/css">
	.st0{clip-path:url(#SVGID_00000061451881265750628890000000172174579372274360_);}
	.st1{fill:#303030;}
	.st2{clip-path:url(#SVGID_00000140704581165474152720000009804005343824971708_);}
	.st3{fill:url(#SVGID_00000145747326794117379570000010379386931533574317_);}
	.st4{fill:url(#SVGID_00000057839417832289978690000012178080352841554865_);}
	.st5{fill:url(#SVGID_00000005241147842320839820000001947025349922363327_);}
	.st6{fill:url(#SVGID_00000146491148211816329600000001505535699296557974_);}
	.st7{fill:url(#SVGID_00000173154082277455096770000016497568181649136031_);}
</style>
<g>
	<defs>
		<rect id="SVGID_1_" x="63" y="0.2" width="101" height="36"/>
	</defs>
	<clipPath id="SVGID_00000147904690511605541400000017194853211379474071_">
		<use xlink:href="#SVGID_1_"  style="overflow:visible;"/>
	</clipPath>
	<g style="clip-path:url(#SVGID_00000147904690511605541400000017194853211379474071_);">
		<path class="st1" d="M142.2,35.6c-0.1,0-0.3,0-0.6,0c-0.3,0-0.5,0-0.6,0c-0.1,0-0.3,0-0.6,0c-0.3,0-0.5,0-0.6,0V24
			c-0.9,0-1.9,0.1-3.1,0.3c0.1-0.4,0.1-0.7,0.1-0.8c0-0.1,0-0.4-0.1-0.8h8.5c0,0.1,0,0.2,0,0.3c0,0.1,0,0.2,0,0.3c0,0.1,0,0.2,0,0.2
			s0,0.1,0,0.2c0,0.1,0,0.2,0,0.3c0,0.1,0,0.2,0,0.3c-1.3-0.2-2.3-0.3-3-0.3L142.2,35.6L142.2,35.6z M124.9,22.6
			c0.2,0,0.3,0,0.5,0.1c0.1,0,0.3,0,0.4,0c0.1,0,0.3,0,0.3,0s0.2,0,0.4,0c0.1,0,0.3,0,0.4,0c0.1,0,0.3,0,0.5-0.1v8.9
			c0.5-0.6,1-1.3,1.6-2.1c0.6-0.8,1.1-1.5,1.7-2.3c0.5-0.8,1.1-1.5,1.6-2.3c0.5-0.8,1-1.5,1.4-2.2c0.1,0,0.3,0,0.5,0
			c0.3,0,0.6,0,0.7,0v13c-0.1,0-0.3,0-0.6,0c-0.3,0-0.5,0-0.6,0c-0.1,0-0.3,0-0.6,0c-0.3,0-0.5,0-0.6,0v-8.9c-0.5,0.6-1,1.3-1.5,2
			c-0.5,0.7-1.1,1.5-1.7,2.4c-0.6,0.9-1.2,1.7-1.7,2.5c-0.5,0.8-1,1.5-1.4,2.1c-0.1,0-0.3,0-0.5,0c-0.3,0-0.6,0-0.7,0L124.9,22.6
			C124.9,22.6,124.9,22.6,124.9,22.6z M119.8,34.2c-0.3-1.1-0.7-2.3-1.1-3.5c-0.4-1.2-0.9-2.7-1.5-4.5c-1.2,3.5-2.1,6.1-2.7,8
			c0.3,0,0.6,0,1.1,0c0.5,0,1,0,1.4,0c0.4,0,0.9,0,1.5,0C119.1,34.2,119.5,34.2,119.8,34.2L119.8,34.2z M113.2,34.1
			c0.5-1.3,0.9-2.3,1.1-3.1c0.3-0.8,0.6-1.7,1-2.7c0.4-1.1,0.7-2.1,1.1-3.1c0.3-1,0.6-1.9,0.9-2.7c0.1,0,0.2,0,0.4,0
			c0.1,0,0.3,0,0.3,0c0.1,0,0.2,0,0.3,0s0.3,0,0.4,0c1.1,3.4,2.4,7.3,3.9,11.5h0.8c-0.1,0.6-0.1,0.9-0.1,1c0,0.3,0,0.7,0.1,1h-0.3
			c-0.2-0.3-0.5-0.5-1-0.5c-0.5-0.1-1-0.1-1.7-0.1h-4.9c-0.7,0-1.3,0-1.8,0.1c-0.5,0.1-0.8,0.3-1,0.5h-0.3c0.1-0.3,0.1-0.6,0.1-1
			c0-0.3,0-0.6-0.1-1L113.2,34.1L113.2,34.1z M107.2,32.1c-0.2-0.5-0.6-1.2-1-2.1c-0.4-0.9-0.9-1.7-1.4-2.6c-0.5-0.9-1-1.8-1.5-2.7
			c-0.5-0.9-0.8-1.6-1.1-2.1c0.2,0,0.4,0,0.6,0c0.2,0,0.3,0,0.5,0c0.2,0,0.3,0,0.4,0c0.1,0,0.2,0,0.4,0c0.2,0,0.3,0,0.5,0
			c0.2,0,0.4,0,0.6-0.1c0.1,0.3,0.4,0.9,0.9,1.8c0.4,0.9,0.9,1.8,1.4,2.7c0.5,0.9,0.8,1.6,1,2c0.2-0.3,0.3-0.7,0.6-1.2
			s0.5-1.1,0.8-1.8s0.5-1.4,0.8-2c0.2-0.6,0.4-1.1,0.6-1.4c0.3,0,0.5,0.1,0.8,0.1c0.2,0,0.5,0,0.8-0.1c-0.4,0.9-1.1,2.2-1.9,4
			c-0.8,1.8-1.6,3.5-2.3,5.2c-0.7,1.7-1.2,2.9-1.5,3.7c0,0-0.2,0-0.3,0c-0.2,0-0.3,0-0.4,0c-0.1,0-0.2,0-0.4,0c-0.2,0-0.3,0-0.3,0
			c0.2-0.4,0.5-1,0.8-1.7C106.8,33.1,107,32.6,107.2,32.1L107.2,32.1L107.2,32.1z M97.3,28.9c0.5,0,0.8-0.1,1.1-0.1
			c0.5-0.2,0.9-0.5,1.1-0.9c0.2-0.5,0.4-1,0.4-1.6c0-0.7-0.1-1.3-0.4-1.8c-0.3-0.5-0.7-0.7-1.1-0.7h-1
			C97.3,23.7,97.3,28.9,97.3,28.9z M97.3,35.6c-0.1,0-0.3,0-0.6,0s-0.5,0-0.6,0s-0.3,0-0.6,0c-0.3,0-0.5,0-0.6,0V22.6h4.1
			c1.2,0,2,0.3,2.6,0.8c0.6,0.5,0.9,1.3,0.9,2.4c0,1.1-0.2,1.9-0.6,2.5c-0.4,0.6-1,1-1.8,1.2c-0.7,0.2-1.7,0.3-2.7,0.3L97.3,35.6
			L97.3,35.6L97.3,35.6z M86.4,29.4c-0.7,0-1.4,0-2,0.2c0-0.1,0-0.2,0-0.4c0-0.2,0-0.3,0-0.4c0-0.1,0-0.2,0-0.4c0-0.2,0-0.3,0-0.4
			c0.9,0.1,1.6,0.2,2,0.2h3.7c-0.1-0.6-0.2-1.2-0.4-1.8c-0.2-0.6-0.4-1-0.7-1.5c-0.3-0.4-0.7-0.8-1.1-1c-0.4-0.2-1-0.4-1.5-0.4
			c-0.5,0-1,0.2-1.5,0.5c-0.5,0.3-0.9,0.7-1.2,1.3h-0.2c-0.1-0.3-0.1-0.6-0.2-1c-0.1-0.4-0.1-0.7-0.2-0.9c0.5-0.3,1-0.5,1.6-0.7
			c0.6-0.2,1.2-0.2,1.8-0.2c0.9,0,1.8,0.1,2.6,0.4c0.8,0.3,1.5,0.7,2.1,1.3c0.6,0.6,1.1,1.3,1.4,2.3c0.3,0.9,0.5,2,0.5,3.2
			c0,1-0.2,1.8-0.5,2.6c-0.3,0.8-0.7,1.5-1.3,2c-0.6,0.6-1.2,1-2,1.3c-0.8,0.3-1.6,0.4-2.5,0.4c-1.3,0-2.3-0.3-3.3-0.8l-0.4-1.6
			l0.2-0.1c0.4,0.4,0.8,0.8,1.4,1c0.5,0.3,1.1,0.4,1.6,0.4c0.8,0,1.5-0.2,2.1-0.7c0.6-0.4,1-1.1,1.4-1.9c0.3-0.8,0.5-1.7,0.5-2.8
			L86.4,29.4L86.4,29.4z M155.5,0.2c1,1.2,2.2,1.8,3.5,1.8c1.3,0,2.5-0.6,3.5-1.8l0.6,1c-0.4,0.4-0.8,0.8-1.3,1.1S161,2.8,160.5,3
			s-1,0.2-1.5,0.2c-0.7,0-1.5-0.2-2.2-0.5c-0.7-0.3-1.3-0.8-1.9-1.5L155.5,0.2L155.5,0.2L155.5,0.2z M154,3.5c0.2,0,0.3,0,0.5,0.1
			c0.1,0,0.3,0,0.4,0c0.1,0,0.3,0,0.3,0s0.2,0,0.4,0c0.1,0,0.3,0,0.4,0c0.1,0,0.3,0,0.5-0.1v8.9c0.5-0.6,1-1.3,1.6-2.1
			c0.6-0.8,1.1-1.5,1.7-2.3c0.5-0.8,1.1-1.5,1.6-2.3c0.5-0.8,1-1.6,1.4-2.2c0.1,0,0.3,0,0.5,0c0.3,0,0.6,0,0.7,0v13
			c-0.1,0-0.3,0-0.6,0c-0.3,0-0.5,0-0.6,0c-0.1,0-0.3,0-0.6,0c-0.3,0-0.5,0-0.6,0V7.5c-0.5,0.6-1,1.3-1.5,2
			c-0.5,0.7-1.1,1.5-1.7,2.4c-0.6,0.9-1.2,1.7-1.7,2.5c-0.5,0.8-1,1.5-1.4,2.1c-0.1,0-0.3,0-0.5,0c-0.3,0-0.6,0-0.7,0V3.5
			C154,3.5,154,3.5,154,3.5z M141.1,3.5c0.2,0,0.3,0,0.5,0.1c0.1,0,0.3,0,0.4,0c0.1,0,0.3,0,0.3,0s0.2,0,0.4,0c0.1,0,0.3,0,0.4,0
			c0.1,0,0.3,0,0.5-0.1v8.9c0.5-0.6,1-1.3,1.6-2.1c0.6-0.8,1.1-1.5,1.7-2.3c0.5-0.8,1.1-1.5,1.6-2.3c0.5-0.8,1-1.6,1.4-2.2
			c0.1,0,0.3,0,0.5,0c0.3,0,0.6,0,0.7,0v13c-0.1,0-0.3,0-0.6,0c-0.3,0-0.5,0-0.6,0c-0.1,0-0.3,0-0.6,0c-0.3,0-0.5,0-0.6,0V7.5
			c-0.5,0.6-1,1.3-1.5,2c-0.5,0.7-1.1,1.5-1.7,2.4c-0.6,0.9-1.2,1.7-1.7,2.5c-0.5,0.8-1,1.5-1.4,2.1c-0.1,0-0.3,0-0.5,0
			c-0.3,0-0.6,0-0.7,0C141.1,16.4,141.1,3.5,141.1,3.5z M131,3.5c0.1,0,0.2,0,0.5,0.1c0.3,0,0.5,0.1,0.7,0.1c0.1,0,0.2,0,0.4,0
			c0.1,0,0.3,0,0.4,0c0.1,0,0.3,0,0.5-0.1v5.9c1.5-1.9,2.9-3.9,4.3-5.9c0.1,0,0.2,0,0.3,0.1c0.1,0,0.2,0,0.3,0c0.1,0,0.2,0,0.3,0
			c0.1,0,0.3,0,0.5-0.1c0.2,0,0.4-0.1,0.4-0.1v0.1c-0.8,0.8-1.5,1.7-2.4,2.8c-0.8,1-1.5,1.8-1.9,2.5l4.6,7.3v0.2c-0.1,0-0.4,0-0.7,0
			c-0.3,0-0.6,0-0.7,0c-0.1,0-0.4,0-0.7,0c-0.3,0-0.6,0-0.7,0l-3.6-6v6c-0.1,0-0.4,0-0.6,0c-0.3,0-0.5,0-0.6,0c-0.1,0-0.3,0-0.6,0
			c-0.3,0-0.5,0-0.6,0L131,3.5L131,3.5z M124.1,15.3c0.5,0,0.8,0,1.1-0.1c0.5-0.2,0.9-0.5,1.1-0.9c0.2-0.5,0.4-1,0.4-1.6
			c0-0.7-0.1-1.3-0.4-1.8s-0.7-0.7-1.1-0.7h-1C124.1,10.1,124.1,15.3,124.1,15.3z M124.1,9h1.6c1.2,0,2,0.3,2.6,0.8
			c0.6,0.5,0.9,1.3,0.9,2.4c0,1.5-0.4,2.6-1.2,3.2c-0.8,0.6-1.8,0.9-3.1,0.9h-3.3V3.4c0.1,0,0.3,0,0.6,0c0.3,0,0.5,0,0.6,0
			c0.2,0,0.4,0,0.6,0c0.3,0,0.5,0,0.6,0L124.1,9L124.1,9L124.1,9z M108.9,3.5c0.2,0,0.3,0,0.5,0.1c0.1,0,0.3,0,0.4,0
			c0.1,0,0.3,0,0.3,0s0.2,0,0.4,0c0.1,0,0.3,0,0.4,0c0.1,0,0.3,0,0.5-0.1v5.1c1.4,0.1,2.2,0.1,2.5,0.1c0.3,0,1.1,0,2.5-0.1V3.5
			c0.2,0,0.3,0,0.5,0.1c0.1,0,0.3,0,0.4,0c0.1,0,0.3,0,0.3,0c0.1,0,0.2,0,0.4,0c0.1,0,0.3,0,0.4,0c0.1,0,0.3,0,0.5,0v12.9
			c-0.1,0-0.3,0-0.6,0c-0.3,0-0.5,0-0.6,0c-0.1,0-0.3,0-0.6,0c-0.3,0-0.5,0-0.6,0v-6.3c-1.1-0.1-2-0.1-2.5-0.1c-0.6,0-1.4,0-2.5,0.1
			v6.3c-0.1,0-0.4,0-0.6,0c-0.3,0-0.5,0-0.6,0c-0.1,0-0.3,0-0.6,0c-0.3,0-0.5,0-0.6,0C108.9,16.4,108.9,3.5,108.9,3.5z M106.8,3.5
			c-0.1,0.5-0.1,0.7-0.1,0.8c0,0.1,0,0.3,0.1,0.8c-1.2-0.2-2.4-0.3-3.8-0.3v4.1h1.7c0.5,0,1.1-0.1,2-0.2c-0.1,0.4-0.1,0.7-0.1,0.8
			c0,0.1,0,0.4,0.1,0.8c-0.6-0.1-1.3-0.2-2-0.2H103V15c1.4,0,2.7-0.1,3.8-0.3c-0.1,0.5-0.1,0.7-0.1,0.8c0,0.1,0,0.4,0.1,0.8h-6.3
			V3.5C100.5,3.5,106.8,3.5,106.8,3.5z M93.8,3.5c0,0,0.1,0,0.2,0c0.1,0,0.1,0,0.2,0c0.1,0,0.1,0,0.2,0c0.1,0,0.1,0,0.2,0
			c0.4,1.1,0.7,2.2,1,3c0.3,0.9,0.7,2,1.1,3.2c0.4,1.3,0.8,2.3,1,3c0.3,0.7,0.7,1.9,1.3,3.7c-0.2,0-0.4,0-0.6-0.1
			c-0.2,0-0.3,0-0.5,0c-0.2,0-0.3,0-0.4,0s-0.2,0-0.4,0c-0.2,0-0.3,0-0.5,0c-0.2,0-0.3,0-0.5,0c-0.2-0.7-0.4-1.5-0.6-2.2
			c-0.2-0.8-0.4-1.5-0.6-2c-0.2-0.6-0.5-1.4-0.8-2.4c-0.3-1-0.6-1.9-0.9-2.7c-1.3,3.7-2.4,6.8-3.1,9.4c-0.3,0-0.5-0.1-0.8-0.1
			s-0.5,0-0.8,0.1c0.5-1.2,0.9-2.4,1.3-3.4c0.4-1,0.8-2.1,1.1-3.1c0.4-1,0.7-2,1.1-3.1c0.4-1.1,0.7-2.2,1.1-3.3c0,0,0.1,0,0.3,0
			C93.5,3.5,93.7,3.5,93.8,3.5L93.8,3.5L93.8,3.5z M83.6,11.3l-1.5-4.4l-1.6,4.4H83.6L83.6,11.3z M80.1,12.5
			c-0.1,0.3-0.2,0.8-0.4,1.3c-0.2,0.6-0.3,1-0.4,1.5c-0.1,0.4-0.2,0.8-0.3,1.1c-0.1,0-0.2,0-0.4,0s-0.3,0-0.4,0c-0.1,0-0.2,0-0.4,0
			c-0.2,0-0.3,0-0.4,0l4.7-13.1c0.2,0,0.4,0.1,0.6,0.1c0.2,0,0.4,0,0.6-0.1L88,16.4c-0.2,0-0.4,0-0.7,0s-0.6,0-0.7,0
			c-0.2,0-0.4,0-0.7,0c-0.3,0-0.5,0-0.7,0c-0.5-1.8-0.9-3.1-1.2-3.9L80.1,12.5L80.1,12.5z M73.7,3.5c0,0,0.1,0,0.3,0.1
			c0.2,0,0.3,0.1,0.4,0.1c0.1,0,0.1,0,0.2,0c0.1,0,0.2,0,0.2,0c0.1,0,0.2,0,0.3,0c0.1,1.4,0.3,2.8,0.4,4.3c0.1,1.5,0.3,2.6,0.3,3.2
			s0.2,1.5,0.3,2.5s0.3,2,0.4,2.9c-0.2,0-0.4,0-0.7,0c-0.3,0-0.5,0-0.7,0s-0.4,0-0.7,0c-0.3,0-0.5,0-0.7,0c0-0.7-0.1-1.4-0.1-2.2
			c-0.1-0.8-0.1-1.5-0.2-2.1c-0.1-0.6-0.1-1.3-0.2-1.9c-0.1-0.7-0.1-1.5-0.2-2.5c-0.2,0.5-0.5,1.2-0.9,2c-0.4,0.9-0.7,1.6-1,2.3
			c-0.3,0.6-0.6,1.4-1,2.3c-0.4,0.9-0.7,1.6-0.8,2.1h-0.6c-0.2-0.4-0.5-1.1-0.8-2c-0.4-0.9-0.7-1.6-0.9-2.1c-0.2-0.5-0.5-1.2-1-2.2
			c-0.4-1-0.7-1.7-0.9-2.2c-0.4,3.7-0.7,6.6-0.7,8.6c-0.1,0-0.2,0-0.4,0c-0.2,0-0.3,0-0.4,0c-0.1,0-0.2,0-0.4,0c-0.2,0-0.3,0-0.4,0
			c0.3-1.7,0.5-3.5,0.8-5.4c0.2-1.9,0.5-4.4,0.9-7.5c0.1,0,0.2,0,0.3,0c0.1,0,0.1,0,0.2,0c0.1,0,0.1,0,0.2,0s0.1,0,0.2,0
			c0.1,0,0.2,0,0.2,0c0.1,0,0.1,0,0.2,0c0.4,0.9,0.7,1.6,0.9,2.2c0.2,0.5,0.5,1.2,0.9,2.1s0.7,1.7,1.1,2.5c0.3,0.8,0.7,1.5,0.9,2.2
			c0.1-0.2,0.3-0.7,0.7-1.6c0.4-0.9,0.8-1.8,1.2-2.6c0.4-0.8,0.7-1.6,1-2.4C73.2,4.9,73.5,4.2,73.7,3.5L73.7,3.5L73.7,3.5z"/>
	</g>
</g>
<g>
	<defs>
		<rect id="SVGID_00000085966464287081085100000002527332955469820317_" width="56.6" height="36.3"/>
	</defs>
	<clipPath id="SVGID_00000120532356813407063040000007085721180174646204_">
		<use xlink:href="#SVGID_00000085966464287081085100000002527332955469820317_"  style="overflow:visible;"/>
	</clipPath>
	<g style="clip-path:url(#SVGID_00000120532356813407063040000007085721180174646204_);">
		<g id="Layer">
			<g>
				
					<linearGradient id="SVGID_00000143612132079993091910000002273426456050309054_" gradientUnits="userSpaceOnUse" x1="-1323.426" y1="247.0443" x2="-1323.365" y2="247.0443" gradientTransform="matrix(316.377 0 0 316.377 418730.3438 -78142.2891)">
					<stop  offset="0" style="stop-color:#CE02CF"/>
					<stop  offset="1" style="stop-color:#0ED0F8"/>
				</linearGradient>
				<path style="fill:url(#SVGID_00000143612132079993091910000002273426456050309054_);" d="M43.9,0.1c-2.7,0.3-5.7,1.1-7.7,2.2
					c-2.9,1.5-5.1,3.8-6.5,6.8c-0.8,1.8-1.2,3.1-0.6,2.2c0.1-0.2,0.7-0.9,1.2-1.5c2.2-2.6,5.3-4.7,8.6-5.8c1.4-0.5,3.4-0.9,3.6-0.8
					c0.1,0.1,1.7,13.9,1.9,15.4c0,0.3-0.1,0.4-1.4,0.8C41,20,40.3,20.3,39,21c-4.5,2.3-7.5,5.4-9,9.3c-0.3,0.9-1,3.4-0.9,3.4
					c0,0,0.4-0.6,0.8-1.4c0.9-1.7,1.6-2.7,2.9-4.1c3.2-3.3,8.2-5.3,14.6-6l0.9-0.1l0-0.5C48.2,21,45.5,1.2,45.4,0.4
					C45.4,0.1,45.3,0,45.1,0C45,0,44.4,0.1,43.9,0.1L43.9,0.1z"/>
				
					<linearGradient id="SVGID_00000002369812178723397780000003924300799544821177_" gradientUnits="userSpaceOnUse" x1="-1322.9841" y1="246.605" x2="-1322.9232" y2="246.605" gradientTransform="matrix(396.148 0 0 396.148 524101.5312 -97672.8047)">
					<stop  offset="0" style="stop-color:#CE02CF"/>
					<stop  offset="1" style="stop-color:#0ED0F8"/>
				</linearGradient>
				<path style="fill:url(#SVGID_00000002369812178723397780000003924300799544821177_);" d="M8.9,3.7C8.3,3.8,7.7,3.9,7.6,4
					C7.4,4,7,6.6,5.6,15.8c-1,6.5-1.7,11.8-1.7,11.8s0.7-0.1,1.5-0.2c2.2-0.3,6.3-0.4,8.2-0.2c4,0.4,7.1,1.4,10,3.3
					c1,0.7,3.5,3,4.4,4.1c0.4,0.5,0.4,0.5-0.2-0.7c-3.2-6.4-8.6-9.5-17.6-10.1c-1.3-0.1-1.5-0.1-1.5-0.4c0-0.1,0.5-4,1.1-8.6
					c0.6-4.6,1.1-8.4,1.1-8.4c0-0.2,3.6-0.1,5,0.1c4.1,0.6,8,2.2,11.1,4.7c0.4,0.3,0.7,0.6,0.8,0.6c0,0-0.4-0.6-1-1.4
					C23.7,7,20.4,4.9,16.3,3.9C14.8,3.5,10.6,3.5,8.9,3.7L8.9,3.7z"/>
				
					<linearGradient id="SVGID_00000043448323687873747290000010830310010851617929_" gradientUnits="userSpaceOnUse" x1="-1323.9569" y1="246.6057" x2="-1323.8949" y2="246.6057" gradientTransform="matrix(395.922 0 0 395.922 524212.5938 -97617.3516)">
					<stop  offset="0" style="stop-color:#CE02CF"/>
					<stop  offset="1" style="stop-color:#0ED0F8"/>
				</linearGradient>
				<path style="fill:url(#SVGID_00000043448323687873747290000010830310010851617929_);" d="M47.1,3.9c0.1,0.3,2.5,19.9,2.5,20
					c0,0-0.9,0.1-2,0.1c-4.6,0.2-7.6,0.9-10.5,2.3c-3.5,1.7-6.2,4.5-7.7,8L29.2,35l1.4-1.3c1.7-1.7,2-1.9,3.4-2.8
					c2.9-1.9,6.3-3.1,10.4-3.5c1.8-0.2,5.6-0.1,7.7,0.2c0.8,0.1,1.5,0.2,1.5,0.2c0,0-0.7-5.3-1.7-11.8S50.1,4.1,50.1,4
					c0-0.1-0.6-0.2-1.9-0.3l-1.1-0.1L47.1,3.9L47.1,3.9z"/>
				
					<linearGradient id="SVGID_00000166635309287134330010000004890393033224374678_" gradientUnits="userSpaceOnUse" x1="-1324.1656" y1="246.3912" x2="-1324.1038" y2="246.3912" gradientTransform="matrix(436.469 0 0 436.469 577986.8125 -107520.0703)">
					<stop  offset="0" style="stop-color:#CE02CF"/>
					<stop  offset="1" style="stop-color:#0ED0F8"/>
				</linearGradient>
				<path style="fill:url(#SVGID_00000166635309287134330010000004890393033224374678_);" d="M52,8.7c0.1,0.6,2.6,20.9,2.5,20.9
					c0,0-0.6-0.1-1.3-0.2c-3-0.6-4-0.7-7.3-0.7c-2.5,0-3.5,0-4.4,0.2c-3.3,0.6-6,1.8-8.4,3.5c-0.9,0.7-3.3,3-3.3,3.2
					c0,0.1,0.4-0.2,0.9-0.5c1-0.7,3-1.7,4.3-2.2c5.6-2.1,12.4-1.9,19.9,0.4c0.9,0.3,1.7,0.5,1.7,0.5c0,0-3.2-23.6-3.4-24.6
					c-0.1-0.3-0.2-0.5-0.6-0.7C52.3,8.5,52,8.4,52,8.4S51.9,8.5,52,8.7L52,8.7z"/>
				
					<linearGradient id="SVGID_00000027588455403789589510000002564799904264486548_" gradientUnits="userSpaceOnUse" x1="-1323.2576" y1="246.3271" x2="-1323.1956" y2="246.3271" gradientTransform="matrix(457.374 0 0 457.374 605223.5625 -112641.1094)">
					<stop  offset="0" style="stop-color:#CE02CF"/>
					<stop  offset="1" style="stop-color:#0ED0F8"/>
				</linearGradient>
				<path style="fill:url(#SVGID_00000027588455403789589510000002564799904264486548_);" d="M4.9,9C4.4,9.3,4.1,9.5,4,9.5
					c-0.1,0.1-0.6,3.3-1.2,7.2c-0.6,3.9-1.5,9.5-2,12.4C0.3,32,0,34.4,0,34.5s0.8-0.2,1.8-0.6c2.2-0.7,4.7-1.4,6.7-1.8
					c2.2-0.4,6.5-0.5,8.6-0.2c3.6,0.5,6.9,1.7,9.9,3.7c0.6,0.4,1.1,0.7,1.1,0.7c0.2,0-1.3-1.7-2.3-2.6c-3.2-3.1-7.2-4.6-13-4.9
					c-2.2-0.1-6.6,0.3-9.4,0.9c-0.5,0.1-0.9,0.1-0.9,0.1c0-0.1,0.7-4.8,1.6-10.5S5.8,8.8,5.8,8.8C5.8,8.6,5.7,8.6,4.9,9z"/>
			</g>
		</g>
	</g>
</g>
</svg>
