<?xml version="1.0" encoding="UTF-8"?>
<svg id="Layer_1" data-name="Layer 1" xmlns="http://www.w3.org/2000/svg" viewBox="0 0 2006.137 222.803">
  <defs>
    <style>
      .cls-1 {
        fill: #231916;
      }
    </style>
  </defs>
  <path class="cls-1" d="m1989.962,217.919h16.176V3.968h-20.144l-80.881,124.678L1823.318,3.968h-19.533v213.952h16.481V27.825l82.406,125.288h5.494l81.796-125.288v190.094ZM1742.437,3.968v132.766c0,91.562-131.24,91.868-131.24,0V3.968h-16.176v132.766c0,112.012,163.592,111.707,163.592,0V3.968h-16.176Zm-188.619,33.573c-21.059-31.436-47.612-36.32-78.133-36.32-35.099,0-82.101,14.04-81.186,59.21,0,39.372,39.983,47.308,79.049,54.938,35.1,6.714,70.503,13.734,70.198,45.782,0,37.846-41.814,45.17-68.062,45.17s-59.821-12.819-72.944-38.761l-14.65,7.325c16.481,32.658,54.327,46.392,87.595,46.392,35.709,0,84.238-11.598,84.543-59.821,0-46.087-42.73-53.412-83.933-61.347-36.014-6.714-65.314-13.124-65.314-40.288,0-34.184,39.677-43.34,64.704-43.34,24.112.305,49.139,3.968,64.705,28.995l13.429-7.936Zm-257.901,106.518c92.783,0,92.783-140.091,0-140.091h-93.699v213.952h16.482v-73.861h77.217Zm0-124.83c71.114,0,71.114,109.875,0,109.875h-77.217V19.228h77.217Zm-140.701,198.691V3.968h-16.176v213.952h16.176Zm-160.845,0h40.288V4.579h-46.087l-66.841,91.715L854.89,4.579h-46.392v213.341h40.288V62.822l68.062,92.936h7.935l69.588-92.631v154.792Zm-217.309-39.677h-119.948v-48.223h115.675v-37.541h-115.675v-49.444h119.948V3.968h-159.93v213.952h159.93v-39.677ZM513.667,41.508c25.333,0,36.625,17.143,36.625,34.336s-10.988,34.336-36.625,34.336h-61.347V41.508h61.347Zm87.595,173.664l-64.704-72.945c40.593-8.241,54.021-37.846,54.021-67.299,0-37.083-26.552-70.656-76.912-70.961-33.878.305-67.756,0-101.635,0v213.952h40.288v-71.419h38.761l62.262,71.419h47.918v-2.747ZM272.552,36.625c50.359,0,70.503,40.288,69.892,76.302-.61,35.1-19.533,72.945-69.892,72.945s-69.283-37.541-70.198-72.64c-.916-36.014,19.838-76.607,70.198-76.607Zm0-36.625c-73.86,0-109.875,56.463-109.875,112.622s34.794,110.181,109.875,110.181,108.96-55.243,109.57-110.486c.61-55.853-36.014-112.317-109.57-112.317ZM0,3.968v213.952h150.163v-37.236H40.288V3.968H0Z"/>
</svg>