<?xml version="1.0" encoding="UTF-8"?>
<svg id="_Слой_1" data-name=" Слой 1" xmlns="http://www.w3.org/2000/svg" xmlns:xlink="http://www.w3.org/1999/xlink" viewBox="0 0 136.835 35.763">
  <defs>
    <style>
      .cls-1 {
        fill: url(#_Безымянный_градиент_110-5);
      }

      .cls-2 {
        fill: #fff;
      }

      .cls-3 {
        fill: url(#_Безымянный_градиент_110-3);
      }

      .cls-4 {
        fill: #303030;
      }

      .cls-5 {
        fill: url(#_Безымянный_градиент_110);
      }

      .cls-6 {
        clip-path: url(#clippath);
      }

      .cls-7 {
        fill: none;
      }

      .cls-8 {
        fill: url(#_Безымянный_градиент_110-2);
      }

      .cls-9 {
        fill: #d73526;
      }

      .cls-10 {
        mask: url(#mask);
      }

      .cls-11 {
        fill: url(#_Безымянный_градиент_110-4);
      }

      .cls-12 {
        fill: #1d1d1b;
      }
    </style>
    <clipPath id="clippath">
      <rect class="cls-7" x="59.847" y="8.176" width="76.988" height="27.441"/>
    </clipPath>
    <mask id="mask" x="11.825" y="8.03" width="43.11" height="27.734" maskUnits="userSpaceOnUse">
      <g id="mask0_140_19" data-name="mask0 140 19">
        <path class="cls-2" d="m54.935,8.03H11.826v27.734h43.109V8.03Z"/>
      </g>
    </mask>
    <linearGradient id="_Безымянный_градиент_110" data-name="Безымянный градиент 110" x1="33.752" y1="15.941" x2="48.462" y2="15.941" gradientTransform="translate(0 36.821) scale(1 -1)" gradientUnits="userSpaceOnUse">
      <stop offset="0" stop-color="#226f54"/>
      <stop offset="1" stop-color="#ef233c"/>
    </linearGradient>
    <linearGradient id="_Безымянный_градиент_110-2" data-name="Безымянный градиент 110" x1="14.864" y1="14.07" x2="33.284" y2="14.07" xlink:href="#_Безымянный_градиент_110"/>
    <linearGradient id="_Безымянный_градиент_110-3" data-name="Безымянный градиент 110" x1="33.883" y1="14.068" x2="52.594" y2="14.068" xlink:href="#_Безымянный_градиент_110"/>
    <linearGradient id="_Безымянный_градиент_110-4" data-name="Безымянный градиент 110" x1="34.325" y1="11.97" x2="54.953" y2="11.97" xlink:href="#_Безымянный_градиент_110"/>
    <linearGradient id="_Безымянный_градиент_110-5" data-name="Безымянный градиент 110" x1="11.796" y1="11.616" x2="33.411" y2="11.616" xlink:href="#_Безымянный_градиент_110"/>
  </defs>
  <g class="cls-6">
    <path class="cls-4" d="m120.222,35.173c-.105-.005-.265-.017-.477-.034-.214-.017-.37-.024-.469-.024-.103,0-.261.008-.47.024-.213.017-.37.029-.476.034v-8.845c-.689,0-1.471.067-2.345.204.042-.341.061-.547.061-.62,0-.069-.019-.271-.061-.608h6.495c-.012.088-.023.165-.036.228-.01.065-.021.132-.027.204-.007.072-.011.13-.011.175s.004.106.011.18c.006.075.017.144.027.209.013.065.024.142.036.23-.99-.137-1.743-.204-2.258-.204v8.845h0Zm-13.217-9.867c.139.014.262.029.367.04.105.014.21.024.316.034.105.007.191.012.261.012s.159-.005.269-.012c.107-.01.214-.019.316-.034.103-.012.225-.027.364-.04v6.756c.384-.466.797-.992,1.236-1.58.44-.586.858-1.167,1.259-1.736.399-.572.807-1.167,1.217-1.786.412-.62.774-1.181,1.08-1.683.085.01.219.014.404.014.252,0,.437-.005.555-.014v9.896c-.101-.005-.257-.017-.471-.034-.213-.017-.374-.024-.488-.024-.098,0-.252.008-.462.024-.209.017-.366.029-.471.034v-6.814c-.37.48-.742.977-1.118,1.489-.377.514-.806,1.111-1.289,1.796-.483.681-.925,1.318-1.324,1.906-.399.586-.757,1.129-1.076,1.623-.093-.01-.223-.014-.391-.014-.242,0-.425.005-.553.014v-9.867h0Zm-3.847,8.775c-.242-.848-.515-1.733-.818-2.656-.303-.922-.672-2.06-1.112-3.412-.947,2.663-1.629,4.684-2.041,6.067.193.007.481.019.864.034.383.014.727.021,1.038.021.337,0,.713-.007,1.129-.021.418-.014.732-.027.94-.034h0Zm-5.043-.002c.366-.97.656-1.748.873-2.334.216-.583.469-1.278.756-2.082.288-.802.559-1.582.814-2.336.256-.756.479-1.438.671-2.05.073,0,.166.01.277.029.109.019.193.029.252.029.065,0,.153-.01.267-.029s.204-.029.273-.029c.832,2.605,1.829,5.539,2.992,8.802h.605c-.05.454-.078.708-.078.763,0,.238.027.497.078.776h-.191c-.152-.211-.408-.351-.769-.411-.362-.06-.793-.091-1.295-.091h-3.723c-.566,0-1.026.029-1.383.086-.359.058-.616.197-.771.415h-.191c.044-.213.066-.473.066-.776,0-.197-.021-.451-.066-.763h.544v.002Zm-4.566-1.527c-.17-.415-.42-.951-.756-1.608-.337-.658-.692-1.33-1.068-2.017-.377-.689-.746-1.371-1.114-2.05-.366-.679-.64-1.203-.82-1.57.168.014.313.027.431.038.12.012.244.024.377.034.13.01.239.014.325.014.084,0,.189-.005.316-.012.126-.01.252-.019.38-.034.126-.012.273-.027.441-.041.099.23.316.677.652,1.34.334.665.681,1.342,1.034,2.038.355.694.599,1.191.733,1.491.118-.202.263-.497.435-.883s.366-.845.58-1.374.418-1.04.61-1.529c.189-.492.33-.852.421-1.083.204.029.409.043.62.043.189,0,.389-.014.604-.043-.341.691-.816,1.714-1.425,3.068-.608,1.351-1.186,2.675-1.733,3.966-.547,1.294-.919,2.238-1.118,2.833-.037-.005-.12-.017-.243-.034-.124-.017-.219-.024-.287-.024-.063,0-.157.007-.281.021-.127.014-.213.022-.261.022.159-.319.357-.756.595-1.309.24-.554.423-.986.553-1.299h0v.002Zm-7.551-2.492c.37-.019.647-.053.83-.101.386-.12.671-.357.851-.708.183-.351.274-.766.274-1.249,0-.564-.111-1.023-.336-1.376-.225-.353-.505-.528-.837-.528h-.782s0,3.961,0,3.961Zm0,5.114c-.109-.005-.267-.017-.475-.034s-.366-.024-.473-.024-.267.008-.473.024c-.208.017-.364.029-.471.034v-9.867h3.105c.885,0,1.555.204,2.012.61.456.409.685,1.016.685,1.825,0,.814-.162,1.453-.484,1.913-.323.461-.769.781-1.339.953-.569.173-1.265.261-2.088.261v4.304h0Zm-8.299-4.74c-.547,0-1.066.038-1.551.115,0-.069.011-.173.031-.313.019-.137.03-.24.03-.309,0-.06-.011-.159-.03-.297-.021-.137-.031-.24-.031-.305.675.087,1.192.13,1.551.13h2.849c-.05-.473-.147-.922-.286-1.342-.141-.422-.328-.797-.566-1.131-.238-.331-.525-.593-.868-.785-.343-.19-.732-.286-1.169-.286-.395,0-.784.123-1.167.365-.383.245-.691.564-.927.958h-.175c-.046-.233-.095-.49-.145-.768-.053-.281-.099-.518-.145-.713.353-.223.763-.396,1.227-.518.466-.125.915-.188,1.343-.188.707,0,1.362.111,1.966.332.605.223,1.137.559,1.595,1.008.458.451.818,1.023,1.074,1.719.258.694.386,1.498.386,2.413,0,.727-.117,1.39-.353,1.986-.236.598-.567,1.111-.999,1.541-.431.432-.938.761-1.518.989-.58.228-1.207.341-1.875.341-.954,0-1.787-.207-2.497-.62l-.277-1.241.166-.084c.288.315.641.574,1.06.775.418.204.818.305,1.198.305.62,0,1.156-.17,1.612-.514.454-.341.799-.821,1.037-1.441.236-.617.353-1.326.353-2.122h-2.901Zm52.69-22.23c.793.903,1.672,1.354,2.636,1.354.995,0,1.894-.461,2.701-1.383l.494.737c-.297.336-.622.624-.977.864s-.723.418-1.104.538-.768.18-1.162.18c-.566,0-1.114-.125-1.646-.372-.529-.25-1.017-.624-1.458-1.126l.517-.792h0Zm-1.196,2.48c.139.014.263.029.368.041.105.012.21.024.315.031.105.01.191.012.261.012s.16-.002.269-.012c.107-.007.214-.019.316-.031.103-.012.225-.027.364-.041v6.754c.385-.466.797-.992,1.236-1.58.439-.586.858-1.167,1.258-1.736.399-.572.807-1.167,1.217-1.786.412-.62.774-1.181,1.08-1.683.085.012.219.017.404.017.252,0,.438-.005.555-.017v9.896c-.101-.005-.256-.017-.471-.034-.212-.017-.374-.024-.488-.024-.098,0-.252.008-.462.024-.208.017-.366.029-.471.034v-6.814c-.37.48-.742.977-1.118,1.489-.377.514-.805,1.111-1.289,1.796-.483.681-.925,1.318-1.324,1.906-.399.586-.757,1.128-1.076,1.623-.092-.01-.223-.014-.391-.014-.242,0-.425.005-.553.014v-9.865h0Zm-9.812-.002c.139.014.262.029.367.041.105.014.21.024.316.034.105.008.191.012.261.012s.16-.005.269-.012c.107-.01.214-.019.316-.034.103-.012.225-.027.364-.041v6.756c.384-.466.797-.992,1.236-1.58.44-.586.858-1.167,1.259-1.736.399-.572.807-1.167,1.217-1.786.412-.62.774-1.181,1.08-1.683.085.01.219.014.404.014.252,0,.438-.005.555-.014v9.896c-.101-.005-.256-.017-.471-.034-.212-.017-.374-.024-.488-.024-.098,0-.252.008-.462.024-.208.017-.366.029-.471.034v-6.814c-.37.48-.742.977-1.118,1.489-.377.514-.805,1.111-1.289,1.796-.483.681-.925,1.318-1.324,1.906-.399.586-.757,1.128-1.076,1.623-.092-.01-.223-.014-.391-.014-.242,0-.425.005-.553.014v-9.867Zm-7.709,0c.04.002.175.017.41.046.233.027.412.041.534.041.069,0,.16-.005.269-.012.107-.01.214-.019.316-.034.103-.012.225-.027.364-.041v4.509c1.116-1.464,2.209-2.967,3.279-4.509.095.014.178.029.25.041.074.014.149.024.231.034.08.008.146.012.2.012.082,0,.208-.014.38-.041.173-.029.27-.043.288-.046v.113c-.576.627-1.177,1.33-1.805,2.111-.627.781-1.114,1.409-1.461,1.882l3.519,5.575v.188c-.111-.005-.292-.017-.544-.034-.254-.017-.428-.024-.527-.024-.111,0-.292.008-.544.024-.251.017-.427.029-.53.034l-2.735-4.567v4.567c-.109-.005-.267-.017-.475-.034-.208-.017-.366-.024-.473-.024-.101,0-.256.008-.462.024-.207.017-.366.029-.482.034v-9.868h0Zm-5.245,9.006c.349,0,.627-.036.831-.103.386-.123.671-.357.851-.708.183-.351.273-.768.273-1.251,0-.562-.111-1.021-.336-1.374s-.505-.528-.837-.528h-.782s0,3.964,0,3.964Zm0-4.756h1.211c.885,0,1.556.204,2.014.61.456.409.685,1.015.685,1.825,0,1.169-.305,1.983-.912,2.439-.608.458-1.392.687-2.352.687h-2.537v-9.868c.107.005.256.014.45.031.195.017.359.027.494.027.134,0,.298-.01.492-.027.196-.017.347-.027.457-.031v4.307h0Zm-11.578-4.25c.139.014.262.029.367.041.105.014.21.024.316.034.105.008.191.012.261.012s.16-.005.269-.012c.107-.01.214-.019.316-.034.103-.012.225-.027.364-.041v3.903c1.047.048,1.69.069,1.927.069.194,0,.837-.021,1.932-.069v-3.903c.139.014.261.029.361.041.103.014.206.024.311.034.107.008.194.012.261.012.076,0,.171-.005.282-.014.114-.01.218-.021.317-.034.101-.012.221-.024.36-.038v9.867c-.101-.005-.257-.017-.471-.034-.212-.017-.374-.024-.488-.024-.098,0-.252.008-.463.024-.208.017-.365.029-.47.034v-4.811c-.875-.039-1.518-.058-1.932-.058-.447,0-1.088.019-1.927.058v4.811c-.11-.005-.268-.017-.476-.034-.208-.017-.366-.024-.473-.024-.103,0-.261.008-.471.024-.208.017-.366.029-.473.034,0,0,0-9.868,0-9.868Zm-1.614,0c-.042.351-.066.557-.066.62,0,.06.024.267.066.62-.887-.134-1.863-.202-2.926-.202v3.112h1.324c.355,0,.873-.043,1.553-.13-.043.296-.065.497-.065.603,0,.098.021.307.065.622-.492-.077-1.008-.115-1.553-.115h-1.324v3.644c1.063,0,2.039-.067,2.926-.202-.042.353-.066.559-.066.62,0,.063.024.269.066.62h-4.818v-9.811s4.818,0,4.818,0Zm-9.941.043c.034,0,.074-.002.122-.005.048-.005.097-.01.147-.017.048-.008.092-.014.13-.019.038-.008.086-.012.143-.017.281.874.534,1.645.755,2.312.223.665.5,1.489.838,2.47.336.982.601,1.746.797,2.293.194.547.524,1.479.992,2.792-.156-.014-.297-.029-.42-.041-.124-.014-.25-.024-.377-.031-.128-.01-.231-.014-.311-.014s-.185.005-.317.014c-.133.01-.258.021-.38.034-.12.012-.258.024-.414.038-.141-.543-.301-1.111-.479-1.707-.181-.598-.343-1.117-.488-1.56-.145-.444-.347-1.056-.605-1.839-.261-.783-.482-1.457-.662-2.024-1.021,2.826-1.803,5.203-2.346,7.131-.2-.029-.397-.043-.593-.043s-.389.014-.578.043c.357-.953.683-1.825.982-2.619.297-.792.585-1.575.864-2.341.277-.766.559-1.56.841-2.384.284-.821.559-1.664.83-2.523.012,0,.086.01.221.029.134.019.238.029.309.029h0Zm-7.767,5.949l-1.123-3.356-1.184,3.356h2.307Zm-2.649.879c-.074.25-.177.588-.311,1.008-.133.422-.248.795-.341,1.117-.095.319-.172.605-.231.857-.054-.005-.149-.014-.286-.027s-.238-.017-.305-.017c-.069,0-.168.005-.301.017-.13.012-.233.021-.307.027l3.607-9.983c.164.029.322.043.479.043.156,0,.316-.014.479-.043l3.519,9.998c-.126-.005-.309-.017-.553-.034s-.425-.024-.547-.024c-.12,0-.3.008-.54.024-.239.017-.416.029-.532.034-.38-1.39-.679-2.389-.896-2.996h-2.937.002Zm-4.846-6.872c.019.002.095.017.225.046.13.027.227.041.294.041.044,0,.101-.005.166-.014.067-.01.128-.021.185-.034.056-.012.126-.024.206-.038.105,1.042.216,2.127.328,3.258.114,1.131.197,1.954.252,2.473s.128,1.155.223,1.911.196,1.498.305,2.226c-.122-.005-.299-.017-.532-.034-.233-.017-.408-.024-.527-.024s-.288.008-.505.024c-.219.017-.386.029-.505.034-.023-.538-.055-1.097-.097-1.678-.042-.581-.086-1.109-.13-1.585-.044-.476-.09-.97-.139-1.483-.048-.516-.107-1.162-.177-1.938-.158.367-.383.883-.675,1.556-.292.67-.54,1.249-.746,1.738-.206.489-.45,1.073-.732,1.752-.281.682-.496,1.207-.647,1.58h-.479c-.136-.341-.349-.854-.643-1.546-.292-.689-.517-1.22-.677-1.585-.16-.367-.402-.927-.725-1.681-.324-.752-.563-1.309-.717-1.671-.324,2.85-.5,5.03-.53,6.54-.066-.005-.164-.017-.297-.034-.13-.017-.229-.024-.294-.024-.067,0-.166.008-.292.024-.127.017-.227.029-.303.034.212-1.303.41-2.682.595-4.132.185-1.451.418-3.362.704-5.736.078.014.143.026.197.038.053.012.109.024.168.034.061.01.111.014.152.014s.091-.005.156-.014c.066-.01.124-.021.175-.034.05-.012.114-.024.187-.038.281.687.509,1.234.683,1.645.172.409.402.944.688,1.601.286.658.559,1.282.822,1.877.261.595.502,1.143.721,1.647.063-.139.252-.557.563-1.251.313-.691.603-1.345.877-1.957.271-.612.538-1.227.799-1.844.261-.614.494-1.188.698-1.719h0Z"/>
  </g>
  <g class="cls-10">
    <g>
      <path class="cls-5" d="m45.283,8.13c-2.05.231-4.341.872-5.841,1.643-2.211,1.132-3.911,2.904-4.961,5.188-.63,1.382-.9,2.404-.45,1.703.1-.15.5-.661.89-1.122,1.66-1.983,4.031-3.575,6.561-4.427,1.09-.36,2.621-.711,2.711-.611.05.05,1.33,10.627,1.42,11.718.02.211-.09.27-1.08.611-1.43.491-1.97.721-2.951,1.212-3.431,1.723-5.741,4.107-6.861,7.061-.25.671-.76,2.564-.71,2.624.02.01.29-.481.6-1.101.67-1.322,1.19-2.043,2.24-3.095,2.461-2.484,6.221-4.026,11.132-4.567l.65-.07-.03-.401c-.04-.421-2.07-15.574-2.17-16.155-.04-.221-.11-.321-.23-.311-.09.01-.511.05-.921.1Z"/>
      <path class="cls-8" d="m18.628,10.874c-.49.08-.96.16-1.04.17-.12.02-.44,2.033-1.47,9.044-.73,4.958-1.31,9.024-1.3,9.034.01.01.54-.04,1.17-.12,1.68-.221,4.811-.301,6.241-.16,3.041.301,5.441,1.101,7.601,2.534.77.511,2.66,2.294,3.341,3.135.3.381.3.36-.13-.501-2.41-4.908-6.531-7.281-13.432-7.712-1.02-.07-1.13-.09-1.13-.27,0-.1.36-3.075.8-6.59.44-3.516.8-6.42.8-6.45,0-.12,2.781-.05,3.801.08,3.15.421,6.061,1.672,8.462,3.626.31.25.57.44.59.421.02-.02-.33-.481-.79-1.032-2.23-2.714-4.781-4.347-7.862-5.078-1.15-.27-4.341-.34-5.651-.131h.002Z"/>
      <path class="cls-3" d="m47.743,11.035c.04.221,1.941,15.174,1.941,15.254,0,.02-.69.06-1.52.1-3.47.16-5.771.661-8.032,1.753-2.631,1.262-4.751,3.465-5.851,6.07l-.21.501,1.031-1.021c1.29-1.272,1.54-1.482,2.56-2.163,2.201-1.482,4.811-2.364,7.921-2.684,1.4-.15,4.301-.07,5.891.16.62.09,1.14.15,1.15.131.02-.02-.57-4.066-1.3-8.994-.73-4.928-1.33-8.994-1.34-9.024,0-.09-.43-.17-1.42-.25l-.86-.07.04.24h0Z"/>
      <path class="cls-11" d="m51.424,14.65c.11.481,1.98,15.915,1.941,15.955-.02.02-.46-.04-.98-.15-2.26-.461-3.08-.541-5.601-.541-1.92-.01-2.65.03-3.371.17-2.521.481-4.551,1.342-6.391,2.704-.68.501-2.541,2.314-2.541,2.474,0,.05.3-.12.68-.37.8-.541,2.291-1.302,3.271-1.662,4.261-1.592,9.421-1.472,15.193.34.701.221,1.3.391,1.31.37.03-.03-2.461-18.038-2.601-18.759-.04-.221-.16-.36-.45-.531-.21-.12-.42-.221-.45-.221s-.031.1-.011.221Z"/>
      <path class="cls-1" d="m15.537,14.931c-.32.16-.62.321-.67.37-.04.04-.46,2.514-.93,5.489-.47,2.975-1.15,7.231-1.5,9.465-.361,2.223-.63,4.066-.611,4.086.02.02.63-.17,1.371-.43,1.65-.571,3.56-1.082,5.131-1.362,1.701-.301,4.961-.381,6.551-.15,2.771.401,5.251,1.332,7.511,2.824.46.301.84.541.86.541.12,0-1.02-1.312-1.72-1.993-2.461-2.364-5.461-3.506-9.892-3.756-1.691-.09-5.031.221-7.181.671-.38.08-.68.11-.68.06,0-.04.56-3.645,1.25-8.002.69-4.357,1.25-7.973,1.25-8.022,0-.131-.08-.11-.74.211Z"/>
    </g>
  </g>
  <g>
    <path class="cls-2" d="m.887,14.256c-.236.028-.369-.088-.395-.347.029-.107.087-.198.17-.27.076-.081.043-.216-.065-.247-.421-.119-.314-.526.016-.703.079-.043.087-.122.056-.183.006-.048-.013-.098-.073-.125-.543-.254.1-.846.405-.962.086-.034.139-.128.088-.216-.231-.391.208-.628.549-.555.098.02.166-.05.179-.126.013-.02.024-.043.025-.07.043-.52.689-.615,1.035-.319.085.073.209.044.245-.065.111-.101.223-.203.335-.304.176-.026.317.05.423.227,0,.154.189.181.263.087,0,0,.002,0,.002-.001.283-.095.64.007.653.355.003.092.091.172.185.142.123-.038.238-.075.367-.088.164-.015.39.219.352.386-.007.012-.015.024-.022.037-.006.01-.007.019-.01.029-.009.01-.018.019-.029.028-.041.032-.059.075-.06.119-.054.087-.016.229.116.227.214,0,.511-.029.609.211.059.144.084.421-.116.455-.148.025-.126.207-.019.266.003.031.015.062.047.09.085.073.189.1.276.172.267.22-.054.592-.247.681-.081.037-.1.173-.029.23.257.209.1.574-.208.593-.075.004-.119.053-.134.11-.063.069-.06.209.057.251.194.07-.304.599-.546.524-.098-.029-.222.076-.179.181.067.175-.035.305-.2.361-.135.045-.277-.091-.374-.159-.069-.05-.137-.026-.176.025-.065.009-.122.053-.119.138.024.473-.661.382-.863.109-.076-.103-.225-.091-.269.035-.125.357-.546.247-.537-.107.001-.087-.059-.132-.125-.14-.076-.095-.267-.07-.261.084.006.117-.614-.111-.642-.33-.015-.112-.113-.179-.222-.126-.097.048-.181.06-.285.037-.22-.051-.112-.332-.065-.442.022-.05.013-.098-.009-.138.016-.097-.054-.21-.175-.169Z"/>
    <path class="cls-2" d="m13.673,16.037c.175-.408.838-.664,1.242-.363.019.015.038.022.056.026.051.037.12.04.172-.025.248-.313.595-.586.995-.295.072.051.204.001.216-.088.028-.197.85-.865,1.004-.577.017.032.04.048.065.06.076.059.202.05.229-.07.107-.507.694-.589,1.13-.577.079.003.147-.069.147-.147-.001-.401.448-.609.793-.495.053.018.097.003.128-.025.047-.007.09-.038.101-.101.075-.388.515-.514.862-.505.081.003.147-.068.147-.147.003-.232.018-.399.228-.534.153-.1.348-.062.508-.145.062-.034.081-.09.07-.142,0-.004.001-.006.001-.009.007-.32.418-.727.744-.593.093.038.182-.056.186-.141.018-.467.339-.575.724-.715.028-.01.047-.028.063-.047.04-.022.069-.06.069-.119-.001-.232-.019-.442.153-.631.161-.178.389-.285.619-.329.087-.016.115-.107.103-.181-.035-.248-.034-.473.186-.616.062-.041.112-.079.166-.125.056-.028.1-.087.088-.164-.05-.326-.374-1.039.191-1.141.134-.023.134-.206.035-.267-.082-.054-.399-.367-.288-.48.006-.004.007-.012.012-.016.004-.003.009-.004.013-.007.109-.092.323-.079.329.091.001.06.015.107.037.161.04.098.123.15.222.173.104.026.222-.003.327-.003.279-.002.252.476.252.647.001.04.016.069.037.093.012.06.056.11.135.103.186-.015.385-.098.471.129.054.144.006.326-.059.458-.057.116.035.245.164.216.26-.06.586.374.327.564-.029.022-.047.05-.056.079-.154.09-.01.33.156.247.335-.169.302.52.191.681-.089.129.071.251.19.201.01.028.026.053.059.072.277.166.032.414-.122.505-.063.038-.101.137-.053.201.123.163.219.266.122.489-.081.184-.276.324-.417.46-.072.068-.048.156.009.207.004.009.009.016.015.025.31.393-.123.706-.435.846-.076.034-.085.135-.053.201.153.314-.348.531-.559.631-.048.024-.069.06-.072.101-.062.05-.085.138-.006.203.392.317-.248.621-.508.63-.135.004-.185.153-.104.251.097.115-.109.31-.178.379-.109.107-.276.126-.418.159-.056.013-.087.05-.097.092-.044.021-.079.06-.084.122-.022.335-.161.611-.521.644-.09.007-.145.015-.216.073-.116.097-.176.335-.273.457-.194.245-.477.32-.777.319-.086,0-.132.062-.139.129-.019.023-.032.053-.031.091.009.396-.423.367-.711.367-.081,0-.145.066-.147.147-.01.467-.496.578-.881.587-.06.001-.098.034-.12.075-.094.007-.185.109-.128.219.181.357-1.014.485-1.195.489-.062.001-.129.044-.141.109-.092.452-.741.457-1.082.304-.031-.015-.06-.015-.088-.01-.082-.018-.181.026-.182.136-.006.392-.752.235-.965.153-.076-.031-.157.032-.179.101-.179.561-.807.125-1.082-.013-.075-.038-.144-.009-.185.043-.041.032-.068.082-.054.147.082.42-.733.079-.862.006-.073-.041-.154-.013-.201.053-.298.429-.86.195-1.219-.004-.013-.007-.028-.01-.041-.013-.051-.044-.128-.056-.185.012-.267.313-.805.1-.992-.166-.054-.076-.16-.1-.232-.029-.225.223-.559-.211-.556-.41.002-.037-.012-.065-.029-.087.022-.109-.093-.236-.216-.163-.429.252-.752-.26-.812-.598-.018-.097-.138-.129-.216-.088-.357.192-.587-.235-.705-.485-.004-.01-.012-.016-.018-.025.009-.053-.006-.11-.059-.151-.285-.216-.7-.529-.461-.925.054-.091-.016-.228-.128-.22-.398.025-.395-.423-.264-.684.026-.053.018-.103-.007-.144,0-.056-.031-.109-.106-.12-.543-.094-.473-.598-.204-.929.075-.093.043-.203-.065-.245-.382-.156-.269-.533-.003-.711.026.003.057-.004.087-.025.236-.158.258.164.191.313-.076.17.173.32.254.148.098-.207.258.06.32.166.107.182.091.436.091.642,0,.056.028.093.063.116.038.059.11.088.182.035.33-.244.468.332.465.558-.003.151.197.194.273.073.25-.39.854-.141.979.21.048.137.226.122.277.026.035-.023.06-.06.06-.114,0-.231.721-.308.734-.073.004.079.06.123.121.137.079.057.2.047.217-.072.043-.32.97-.73,1.111-.294.034.107.214.16.269.034Z"/>
    <path class="cls-9" d="m5.895,10.502c-.164-.333-.524-.326-.832-.252-.094-.311-.385-.496-.706-.501.512-.881.918-1.776,1.197-2.767.314-1.117.531-2.245.988-3.318C7.517,1.369,9.489.22,11.963.306c1.177.043,2.347.339,3.488.611,1.249.296,2.481.665,3.661,1.172,2.157.925,3.89,2.369,5.43,4.108-.126.216.021.498.204.694-.125.09-.206.228-.264.392-.119.336.012.592.081.898-.172.138-.333.219-.43.435-.06.131-.038.289-.013.436-.275.081-.505.245-.702.461-.157.173-.161.437-.16.664-.426.162-.75.344-.834.787-.437-.041-.884.414-.944.835-.1.031-.219.031-.316.06-.11.032-.207.113-.295.185-.153.126-.189.33-.2.523-.405.026-.838.217-.973.611-.458-.091-.959.198-1.047.658-.468.01-.989.153-1.204.573-.376-.184-1.084.25-1.307.631-.424-.211-.822-.009-1.135.345-.458-.286-1.145-.103-1.468.31-.354-.314-1.122-.131-1.414.264-.263-.25-.859-.197-1.095.085-.101-.141-.238-.241-.429-.294-.244-.07-.507-.054-.712.065-.091-.357-.338-.712-.678-.614-.018-.316-.085-.599-.316-.846-.103-.109-.22-.156-.332-.147-.016-.132-.068-.251-.148-.33-.006-.292-.024-.583.032-.872.063-.33.298-.464.571-.584.109.013.219-.141.125-.255-.235-.291-.596-.405-.731-.782-.164-.461-.07-1.211.291-1.561.066-.065.05-.147.002-.2,0-.073-.047-.145-.142-.144-.198.006-.361-.066-.53-.164-.12-.072-.194-.145-.26-.244.197-.134.407-.26.633-.385.849-.462,1.655-1.173,2.233-1.945.741-.988,1.478-1.929,2.331-2.826.97-1.022,2.233-1.357,3.613-1.354.189,0,.189-.294,0-.294-1.098-.001-2.227.192-3.149.822-.874.596-1.644,1.602-2.28,2.436-.922,1.21-1.748,2.281-3.114,3.026-.937.511-1.568,1.145-2.124,1.989-.006-.013-.01-.027-.018-.038Z"/>
    <path class="cls-12" d="m14.915,15.674c-.404-.301-1.067-.045-1.242.363-.054.126-.235.073-.269-.034-.141-.436-1.069-.026-1.111.294-.018.119-.138.129-.217.072-.06-.013-.116-.057-.121-.137-.013-.235-.734-.157-.734.073,0,.054-.025.091-.06.114-.051.095-.229.11-.277-.026-.125-.351-.73-.6-.979-.21-.076.12-.276.078-.273-.073.003-.226-.135-.802-.465-.558-.072.053-.144.023-.182-.035-.035-.024-.063-.06-.063-.116,0-.206.016-.46-.091-.642-.062-.106-.222-.373-.32-.166-.081.172-.33.022-.254-.148.068-.148.046-.471-.191-.313-.029.021-.06.028-.087.025-.266.178-.379.555.003.711.107.043.139.153.065.245-.269.332-.339.835.204.929.075.012.106.065.106.12.025.041.034.091.007.144-.131.261-.134.709.264.684.112-.007.182.129.128.22-.239.396.176.709.461.925.053.041.068.098.059.151.006.009.013.015.018.025.117.25.348.677.705.485.078-.041.198-.009.216.088.06.338.383.85.812.598.123-.073.238.054.216.163.017.022.031.05.029.087-.003.198.332.633.556.41.072-.07.178-.047.232.029.188.266.725.479.992.166.057-.068.134-.056.185-.012.013.003.028.006.041.013.358.2.921.433,1.219.004.047-.066.128-.094.201-.053.129.073.944.414.862-.006-.013-.065.013-.115.054-.147.041-.052.11-.081.185-.043.275.138.903.574,1.082.013.022-.069.103-.132.179-.101.213.082.959.239.965-.153.001-.11.1-.154.182-.136.028-.004.057-.004.088.01.341.153.99.148,1.082-.304.012-.065.079-.107.141-.109.181-.004,1.376-.132,1.195-.489-.057-.11.034-.211.128-.219.022-.041.06-.073.12-.075.385-.009.871-.12.881-.587.001-.081.066-.147.147-.147.288,0,.719.029.711-.367-.001-.038.012-.068.031-.091.007-.068.053-.129.139-.129.3.001.583-.073.777-.319.097-.122.157-.36.273-.457.07-.059.126-.066.216-.073.36-.034.499-.31.521-.644.004-.062.04-.101.084-.122.01-.043.041-.079.097-.092.142-.032.31-.052.418-.159.069-.069.275-.264.178-.379-.081-.098-.031-.247.104-.251.26-.009.9-.313.508-.63-.079-.065-.056-.153.006-.203.003-.041.023-.078.072-.101.211-.1.712-.317.559-.631-.032-.066-.024-.167.053-.201.311-.139.744-.452.435-.846-.006-.009-.01-.016-.015-.025-.057-.051-.081-.139-.009-.207.141-.135.336-.276.417-.46.097-.223.001-.326-.122-.489-.048-.065-.01-.163.053-.201.154-.091.399-.339.122-.505-.032-.019-.049-.044-.059-.072-.119.05-.279-.072-.19-.201.112-.161.144-.85-.191-.681-.166.084-.31-.157-.156-.247.009-.029.026-.057.056-.079.258-.189-.068-.624-.327-.564-.129.029-.222-.1-.164-.216.065-.132.113-.314.059-.458-.087-.227-.285-.144-.471-.129-.079.007-.123-.043-.135-.103-.021-.023-.035-.053-.037-.093,0-.172.026-.649-.252-.647-.106,0-.223.029-.327.003-.098-.023-.182-.075-.222-.173-.022-.054-.035-.101-.037-.161-.006-.17-.22-.184-.329-.091-.004.003-.009.004-.013.007-.004.004-.006.012-.012.016-.112.113.206.426.288.48.098.062.098.244-.035.267-.565.101-.241.815-.191,1.141.012.078-.032.137-.088.164-.054.046-.104.084-.166.125-.22.144-.222.368-.186.616.012.073-.016.164-.103.181-.231.044-.458.151-.619.329-.172.189-.154.399-.153.631,0,.059-.029.097-.069.119-.016.019-.035.037-.063.047-.385.139-.706.248-.724.715-.004.085-.094.179-.186.141-.326-.134-.737.273-.744.593,0,.003-.001.004-.001.009.01.053-.009.109-.07.142-.16.084-.355.045-.508.145-.21.135-.225.302-.228.534,0,.079-.066.15-.147.147-.346-.009-.787.117-.862.505-.012.063-.054.094-.101.101-.031.028-.075.043-.128.025-.345-.115-.794.094-.793.495,0,.078-.068.15-.147.147-.436-.012-1.023.07-1.13.577-.027.12-.153.129-.229.07-.025-.012-.047-.028-.065-.06-.154-.288-.976.38-1.004.577-.012.09-.144.139-.216.088-.401-.291-.747-.018-.995.295-.051.065-.12.062-.172.025-.018-.004-.037-.012-.056-.026Zm-10.558-5.925c.322.004.612.189.706.501.308-.073.668-.081.832.252.007.012.012.025.018.038.556-.844,1.188-1.478,2.124-1.989,1.365-.744,2.192-1.816,3.114-3.026.636-.834,1.406-1.84,2.28-2.436.922-.63,2.051-.824,3.149-.822.189,0,.189.294,0,.294-1.38-.003-2.643.332-3.613,1.354-.853.897-1.59,1.838-2.331,2.826-.578.772-1.384,1.483-2.233,1.945-.226.125-.436.251-.633.385.066.098.139.172.26.244.169.098.332.17.53.164.095-.001.142.07.142.144.048.053.065.135-.002.2-.361.349-.455,1.1-.291,1.561.135.377.496.492.731.782.094.115-.016.269-.125.255-.273.12-.508.254-.571.584-.056.289-.038.58-.032.872.081.079.132.198.148.33.111-.009.229.038.332.147.23.247.298.53.316.846.341-.098.587.257.678.614.206-.119.468-.135.712-.065.191.053.327.153.429.294.236-.282.832-.335,1.095-.085.292-.395,1.06-.578,1.414-.264.323-.413,1.01-.596,1.468-.31.313-.354.711-.556,1.135-.345.223-.382.931-.815,1.307-.631.214-.42.735-.562,1.204-.573.088-.459.589-.749,1.047-.658.135-.393.568-.584.973-.611.01-.192.047-.396.2-.523.088-.072.185-.153.295-.185.097-.029.216-.029.316-.06.06-.421.506-.876.944-.835.084-.443.408-.625.834-.787-.001-.226.003-.49.16-.664.197-.216.427-.38.702-.461-.025-.147-.047-.305.013-.436.097-.216.258-.297.43-.435-.069-.307-.2-.562-.081-.898.059-.164.139-.302.264-.392-.183-.197-.33-.479-.204-.694-1.54-1.738-3.274-3.183-5.43-4.108-1.18-.507-2.412-.875-3.661-1.172-1.141-.272-2.311-.568-3.488-.611-2.474-.087-4.445,1.063-5.422,3.358-.457,1.073-.674,2.201-.988,3.318-.279.991-.684,1.886-1.197,2.767Zm-3.758,3.644c.107.031.141.166.065.247-.084.072-.141.163-.17.27.026.258.159.374.395.347.12-.041.191.072.175.169.022.04.031.088.009.138-.047.11-.156.391.065.442.104.024.188.012.285-.037.109-.053.207.015.222.126.028.219.647.448.642.33-.006-.154.185-.179.261-.084.066.007.126.053.125.14-.009.354.412.464.537.107.044-.126.192-.138.269-.035.203.273.887.364.863-.109-.003-.085.054-.129.119-.138.04-.051.107-.075.176-.025.097.068.239.204.374.159.165-.056.267-.186.2-.361-.043-.104.081-.21.179-.181.242.075.74-.454.546-.524-.117-.043-.12-.182-.057-.251.015-.057.059-.106.134-.11.308-.019.465-.384.208-.593-.07-.057-.051-.194.029-.23.192-.09.514-.461.247-.681-.087-.072-.191-.098-.276-.172-.032-.028-.044-.059-.047-.09-.107-.059-.129-.241.019-.266.2-.034.175-.311.116-.455-.098-.241-.395-.211-.609-.211-.132.002-.17-.141-.116-.227.001-.044.019-.087.06-.119.012-.009.021-.018.029-.028.003-.01.004-.019.01-.029.007-.013.015-.025.022-.037.038-.167-.188-.401-.352-.386-.129.013-.244.05-.367.088-.094.029-.182-.05-.185-.142-.013-.348-.37-.451-.653-.355,0,.001-.002.001-.002.001-.073.094-.263.068-.263-.087-.106-.178-.247-.254-.423-.227-.112.101-.223.203-.335.304-.037.109-.16.138-.245.065-.346-.297-.992-.201-1.035.319-.001.028-.012.05-.025.07-.013.076-.081.147-.179.126-.341-.073-.78.164-.549.555.051.088-.002.182-.088.216-.305.116-.948.708-.405.962.06.026.079.076.073.125.031.062.023.141-.056.183-.33.178-.438.584-.016.703Zm-.294-.843c-.507-.373.001-1.066.465-1.339-.188-.508.273-.894.796-.865.122-.624.827-.834,1.354-.534.134-.238.348-.37.664-.34.213.017.383.068.486.188.755-1.31,1.163-2.641,1.541-4.109.247-.954.546-1.928,1.051-2.781C7.745.935,9.564-.071,11.709.004c2.434.087,5.082.772,7.314,1.729,2.284.979,4.106,2.422,5.742,4.271.144-.076.32-.113.457-.025.109.072.169.138.219.255.038.092-.029.222.125.208.553-.044.706.354.727.825.255-.019.496-.013.608.285.068.178.066.361.018.536.38.081.639.536.486.881.305.115.414.627.289.975.022,0,.045.006.07.021.392.235.298.659.009.916.125.175.176.299.094.562-.069.223-.251.392-.421.549.28.461-.006.915-.458,1.16.084.391-.285.666-.631.841.129.191.119.443-.032.644-.154.204-.351.308-.584.349.015.147-.053.294-.154.43-.169.225-.379.301-.642.363-.026.261-.11.501-.295.694-.076.081-.511.156-.521.179-.22.503-.606.808-1.138.844-.026.477-.451.577-.869.592-.093.511-.603.709-1.103.734.129.572-.893.747-1.389.781-.181.509-.86.58-1.343.429-.144.414-.778.413-1.185.295-.107.194-.289.316-.534.327-.307.015-.493-.081-.721-.204-.092.433-.8.313-1.182.147-.393.423-.997.278-1.48.022-.37.319-.954.142-1.276-.181-.377.192-.869-.217-.925-.624-.454.12-.866-.267-1.012-.697-.42.103-.75-.272-.931-.659-.018-.034-.016-.068-.01-.098-.363-.279-.743-.647-.618-1.095-.393-.103-.485-.581-.357-.97-.283-.096-.489-.344-.549-.642-.047-.228.079-.429.217-.603-.412-.302-.345-.894.145-1.172.028-.015.054-.018.079-.018.06-.035.116-.059.169-.069-.013-.357-.05-.768.118-1.083.138-.261.314-.389.55-.502-.345-.344-.691-.493-.722-1.11-.023-.454.028-.966.305-1.337-.194-.032-.374-.117-.542-.228-.131-.085-.217-.176-.295-.291-.623.465-1.105,1.011-1.55,1.743-.003.018-.007.035-.013.05.298.032.568.144.645.486.048.219.028.496-.135.646.112.07.244.095.307.238.065.147.081.28.07.44-.015.214-.134.386-.299.505.239.333.062.765-.32.909.188.319-.28.868-.709.935-.001.186-.1.369-.273.46-.241.126-.432.085-.633-.034-.106.53-.825.545-1.235.242-.276.358-.835.279-.976-.147-.116.054-.272.054-.402.015-.247-.076-.489-.217-.599-.446-.182.05-.391.045-.53-.094-.189-.188-.185-.404-.114-.625-.209-.019-.399-.164-.514-.342-.128-.197-.051-.433.07-.619-.164-.078-.31-.201-.319-.395-.012-.254.114-.493.304-.656Z"/>
  </g>
</svg>