<?xml version="1.0" encoding="utf-8"?>
<!-- Generator: Adobe Illustrator 27.3.1, SVG Export Plug-In . SVG Version: 6.00 Build 0)  -->
<svg version="1.1" id="Слой_1" xmlns="http://www.w3.org/2000/svg" xmlns:xlink="http://www.w3.org/1999/xlink" x="0px" y="0px"
	 viewBox="0 0 814 118" style="enable-background:new 0 0 814 118;" xml:space="preserve">
<style type="text/css">
	.st0{fill:#FFFFFF;filter:url(#Adobe_OpacityMaskFilter);}
	.st1{mask:url(#mask0_140_19_00000133517704811324920510000014819831659339014560_);}
	.st2{fill:url(#SVGID_1_);}
	.st3{fill:url(#SVGID_00000167360370775137427980000016422463496998179983_);}
	.st4{fill:url(#SVGID_00000093884912794220732500000017183534566967558315_);}
	.st5{fill:url(#SVGID_00000170996764069004716510000002923844646776397482_);}
	.st6{fill:url(#SVGID_00000039124570874230680750000012658688196772325050_);}
	.st7{fill:#FFFFFF;filter:url(#Adobe_OpacityMaskFilter_00000132055505617227605790000011422059992350298020_);}
	.st8{mask:url(#mask1_140_19_00000132793463549323377530000016574236324003464329_);}
	.st9{fill:#303030;}
</style>
<defs>
	<filter id="Adobe_OpacityMaskFilter" filterUnits="userSpaceOnUse" x="0.3" y="9" width="155.4" height="100">
		<feColorMatrix  type="matrix" values="1 0 0 0 0  0 1 0 0 0  0 0 1 0 0  0 0 0 1 0"/>
	</filter>
</defs>
<mask maskUnits="userSpaceOnUse" x="0.3" y="9" width="155.4" height="100" id="mask0_140_19_00000133517704811324920510000014819831659339014560_">
	<path class="st0" d="M155.7,9H0.3v100h155.4V9z"/>
</mask>
<g class="st1">
	
		<linearGradient id="SVGID_1_" gradientUnits="userSpaceOnUse" x1="79.3395" y1="64.6647" x2="132.382" y2="64.6647" gradientTransform="matrix(1 0 0 -1 0 120)">
		<stop  offset="0" style="stop-color:#CE02CF"/>
		<stop  offset="1" style="stop-color:#0ED0F8"/>
	</linearGradient>
	<path class="st2" d="M120.9,9.4c-7.4,0.8-15.7,3.1-21.1,5.9C91.9,19.4,85.8,25.8,82,34c-2.3,5-3.2,8.7-1.6,6.1
		c0.4-0.5,1.8-2.4,3.2-4c6-7.2,14.5-12.9,23.7-16c3.9-1.3,9.4-2.6,9.8-2.2c0.2,0.2,4.8,38.3,5.1,42.3c0.1,0.8-0.3,1-3.9,2.2
		c-5.2,1.8-7.1,2.6-10.6,4.4C95.2,73,86.9,81.6,82.8,92.2c-0.9,2.4-2.7,9.2-2.6,9.5c0.1,0,1-1.7,2.2-4c2.4-4.8,4.3-7.4,8.1-11.2
		c8.9-9,22.4-14.5,40.1-16.5l2.3-0.3l-0.1-1.4c-0.1-1.5-7.5-56.2-7.8-58.3c-0.1-0.8-0.4-1.2-0.8-1.1C123.9,9,122.4,9.2,120.9,9.4z"
		/>
	
		<linearGradient id="SVGID_00000036238122682343785380000011024978722232981919_" gradientUnits="userSpaceOnUse" x1="11.2365" y1="57.9217" x2="77.6529" y2="57.9217" gradientTransform="matrix(1 0 0 -1 0 120)">
		<stop  offset="0" style="stop-color:#CE02CF"/>
		<stop  offset="1" style="stop-color:#0ED0F8"/>
	</linearGradient>
	<path style="fill:url(#SVGID_00000036238122682343785380000011024978722232981919_);" d="M24.8,19.3c-1.8,0.3-3.5,0.6-3.8,0.6
		c-0.4,0.1-1.6,7.3-5.3,32.6C13.1,70.4,11,85,11.1,85.1c0,0,1.9-0.1,4.2-0.4c6.1-0.8,17.3-1.1,22.5-0.6c11,1.1,19.6,4,27.4,9.1
		c2.8,1.8,9.6,8.3,12,11.3c1.1,1.4,1.1,1.3-0.5-1.8C68.1,85,53.2,76.4,28.3,74.9c-3.7-0.3-4.1-0.3-4.1-1c0-0.4,1.3-11.1,2.9-23.8
		C28.7,37.5,30,27,30,26.9c0-0.4,10-0.2,13.7,0.3c11.4,1.5,21.9,6,30.5,13.1c1.1,0.9,2.1,1.6,2.1,1.5c0.1-0.1-1.2-1.7-2.9-3.7
		c-8-9.8-17.2-15.7-28.3-18.3C41,18.8,29.5,18.5,24.8,19.3L24.8,19.3z"/>
	
		<linearGradient id="SVGID_00000132047335920202710470000003213952268705078679_" gradientUnits="userSpaceOnUse" x1="79.8124" y1="57.9126" x2="147.279" y2="57.9126" gradientTransform="matrix(1 0 0 -1 0 120)">
		<stop  offset="0" style="stop-color:#CE02CF"/>
		<stop  offset="1" style="stop-color:#0ED0F8"/>
	</linearGradient>
	<path style="fill:url(#SVGID_00000132047335920202710470000003213952268705078679_);" d="M129.8,19.8c0.1,0.8,7,54.7,7,55
		c0,0.1-2.5,0.2-5.5,0.4c-12.5,0.6-20.8,2.4-29,6.3c-9.5,4.5-17.1,12.5-21.1,21.9l-0.8,1.8l3.7-3.7c4.7-4.6,5.6-5.3,9.2-7.8
		c7.9-5.3,17.3-8.5,28.6-9.7c5-0.5,15.5-0.3,21.2,0.6c2.2,0.3,4.1,0.5,4.1,0.5c0.1-0.1-2.1-14.7-4.7-32.4
		c-2.6-17.8-4.8-32.4-4.8-32.5c0-0.3-1.6-0.6-5.1-0.9l-3.1-0.3L129.8,19.8L129.8,19.8z"/>
	
		<linearGradient id="SVGID_00000054984117594824202390000008858941264430465668_" gradientUnits="userSpaceOnUse" x1="81.408" y1="50.3484" x2="155.784" y2="50.3484" gradientTransform="matrix(1 0 0 -1 0 120)">
		<stop  offset="0" style="stop-color:#CE02CF"/>
		<stop  offset="1" style="stop-color:#0ED0F8"/>
	</linearGradient>
	<path style="fill:url(#SVGID_00000054984117594824202390000008858941264430465668_);" d="M143.1,32.9c0.4,1.7,7.1,57.4,7,57.5
		c-0.1,0.1-1.7-0.1-3.5-0.5c-8.1-1.7-11.1-2-20.2-2c-6.9,0-9.6,0.1-12.2,0.6c-9.1,1.7-16.4,4.8-23,9.8c-2.5,1.8-9.2,8.3-9.2,8.9
		c0,0.2,1.1-0.4,2.5-1.3c2.9-2,8.3-4.7,11.8-6c15.4-5.7,34-5.3,54.8,1.2c2.5,0.8,4.7,1.4,4.7,1.3c0.1-0.1-8.9-65-9.4-67.6
		c-0.1-0.8-0.6-1.3-1.6-1.9c-0.8-0.4-1.5-0.8-1.6-0.8C143,32.1,143,32.4,143.1,32.9z"/>
	
		<linearGradient id="SVGID_00000074414378555355476280000005131489390697638540_" gradientUnits="userSpaceOnUse" x1="0.1737" y1="49.0728" x2="78.1121" y2="49.0728" gradientTransform="matrix(1 0 0 -1 0 120)">
		<stop  offset="0" style="stop-color:#CE02CF"/>
		<stop  offset="1" style="stop-color:#0ED0F8"/>
	</linearGradient>
	<path style="fill:url(#SVGID_00000074414378555355476280000005131489390697638540_);" d="M13.7,33.9c-1.2,0.6-2.2,1.2-2.4,1.3
		c-0.1,0.1-1.7,9.1-3.4,19.8C6.2,65.7,3.7,81.1,2.5,89.1c-1.3,8-2.3,14.7-2.2,14.7c0.1,0.1,2.3-0.6,4.9-1.6c6-2.1,12.8-3.9,18.5-4.9
		c6.1-1.1,17.9-1.4,23.6-0.5c10,1.4,18.9,4.8,27.1,10.2c1.7,1.1,3,2,3.1,2c0.4,0-3.7-4.7-6.2-7.2c-8.9-8.5-19.7-12.6-35.7-13.5
		c-6.1-0.3-18.1,0.8-25.9,2.4c-1.4,0.3-2.5,0.4-2.5,0.2c0-0.1,2-13.1,4.5-28.9c2.5-15.7,4.5-28.7,4.5-28.9
		C16.3,32.7,16,32.7,13.7,33.9z"/>
</g>
<defs>
	
		<filter id="Adobe_OpacityMaskFilter_00000088118329129464076970000000775241769973599414_" filterUnits="userSpaceOnUse" x="176.7" y="29.5" width="627" height="61">
		<feColorMatrix  type="matrix" values="1 0 0 0 0  0 1 0 0 0  0 0 1 0 0  0 0 0 1 0"/>
	</filter>
</defs>
<mask maskUnits="userSpaceOnUse" x="176.7" y="29.5" width="627" height="61" id="mask1_140_19_00000132793463549323377530000016574236324003464329_">
	<path style="fill:#FFFFFF;filter:url(#Adobe_OpacityMaskFilter_00000088118329129464076970000000775241769973599414_);" d="
		M813.7,29.5h-646v59h646V29.5z"/>
</mask>
<g class="st8">
	<path class="st9" d="M792.8,88.4c-0.5,0-1.3-0.1-2.3-0.2c-1-0.1-1.8-0.1-2.3-0.1c-0.5,0-1.3,0-2.3,0.1c-1,0.1-1.8,0.1-2.3,0.2V45.6
		c-3.3,0-7.1,0.3-11.3,1c0.2-1.6,0.3-2.6,0.3-3c0-0.3-0.1-1.3-0.3-2.9h31.4c-0.1,0.4-0.1,0.8-0.2,1.1c0,0.3-0.1,0.6-0.1,1
		c0,0.3-0.1,0.6-0.1,0.8c0,0.2,0,0.5,0.1,0.9c0,0.4,0.1,0.7,0.1,1c0.1,0.3,0.1,0.7,0.2,1.1c-4.8-0.7-8.4-1-10.9-1V88.4z M729,40.6
		c0.7,0.1,1.3,0.1,1.8,0.2c0.5,0.1,1,0.1,1.5,0.2c0.5,0,0.9,0.1,1.3,0.1c0.3,0,0.8,0,1.3-0.1c0.5,0,1-0.1,1.5-0.2
		c0.5-0.1,1.1-0.1,1.8-0.2v32.7c1.9-2.3,3.8-4.8,6-7.6c2.1-2.8,4.1-5.6,6.1-8.4c1.9-2.8,3.9-5.6,5.9-8.6c2-3,3.7-5.7,5.2-8.1
		c0.4,0,1.1,0.1,2,0.1c1.2,0,2.1,0,2.7-0.1v47.9c-0.5,0-1.2-0.1-2.3-0.2c-1-0.1-1.8-0.1-2.4-0.1c-0.5,0-1.2,0-2.2,0.1
		c-1,0.1-1.8,0.1-2.3,0.2v-33c-1.8,2.3-3.6,4.7-5.4,7.2c-1.8,2.5-3.9,5.4-6.2,8.7c-2.3,3.3-4.5,6.4-6.4,9.2
		c-1.9,2.8-3.7,5.5-5.2,7.9c-0.4,0-1.1-0.1-1.9-0.1c-1.2,0-2.1,0-2.7,0.1V40.6z M710.4,83.1c-1.2-4.1-2.5-8.4-4-12.8
		c-1.5-4.5-3.2-10-5.4-16.5c-4.6,12.9-7.9,22.7-9.9,29.4c0.9,0,2.3,0.1,4.2,0.2c1.8,0.1,3.5,0.1,5,0.1c1.6,0,3.4,0,5.5-0.1
		C707.8,83.2,709.4,83.1,710.4,83.1z M686,83.1c1.8-4.7,3.2-8.5,4.2-11.3c1-2.8,2.3-6.2,3.7-10.1c1.4-3.9,2.7-7.7,3.9-11.3
		c1.2-3.7,2.3-7,3.2-9.9c0.4,0,0.8,0,1.3,0.1c0.5,0.1,0.9,0.1,1.2,0.1c0.3,0,0.7,0,1.3-0.1c0.5-0.1,1-0.1,1.3-0.1
		c4,12.6,8.8,26.8,14.5,42.6h2.9c-0.2,2.2-0.4,3.4-0.4,3.7c0,1.2,0.1,2.4,0.4,3.8h-0.9c-0.7-1-2-1.7-3.7-2c-1.7-0.3-3.8-0.4-6.3-0.4
		h-18c-2.7,0-5,0.1-6.7,0.4c-1.7,0.3-3,1-3.7,2h-0.9c0.2-1,0.3-2.3,0.3-3.8c0-1-0.1-2.2-0.3-3.7L686,83.1L686,83.1z M663.9,75.7
		c-0.8-2-2-4.6-3.7-7.8c-1.6-3.2-3.3-6.4-5.2-9.8c-1.8-3.3-3.6-6.6-5.4-9.9c-1.8-3.3-3.1-5.8-4-7.6c0.8,0.1,1.5,0.1,2.1,0.2
		c0.6,0.1,1.2,0.1,1.8,0.2c0.6,0,1.2,0.1,1.6,0.1c0.4,0,0.9,0,1.5-0.1c0.6,0,1.2-0.1,1.8-0.2c0.6-0.1,1.3-0.1,2.1-0.2
		c0.5,1.1,1.5,3.3,3.1,6.5c1.6,3.2,3.3,6.5,5,9.9c1.7,3.4,2.9,5.8,3.5,7.2c0.6-1,1.3-2.4,2.1-4.3c0.8-1.9,1.8-4.1,2.8-6.6
		c1-2.6,2-5,2.9-7.4c0.9-2.4,1.6-4.1,2-5.2c1,0.1,2,0.2,3,0.2c0.9,0,1.9-0.1,2.9-0.2c-1.6,3.3-3.9,8.3-6.9,14.8
		c-2.9,6.5-5.7,12.9-8.4,19.2c-2.6,6.3-4.4,10.8-5.4,13.7c-0.2,0-0.6-0.1-1.2-0.2c-0.6-0.1-1.1-0.1-1.4-0.1c-0.3,0-0.8,0-1.4,0.1
		c-0.6,0.1-1,0.1-1.3,0.1c0.8-1.5,1.7-3.7,2.9-6.3C662.4,79.3,663.3,77.2,663.9,75.7L663.9,75.7z M627.5,63.6c1.8-0.1,3.1-0.3,4-0.5
		c1.9-0.6,3.2-1.7,4.1-3.4c0.9-1.7,1.3-3.7,1.3-6c0-2.7-0.5-4.9-1.6-6.7c-1.1-1.7-2.4-2.6-4-2.6h-3.8V63.6z M627.5,88.4
		c-0.5,0-1.3-0.1-2.3-0.2c-1-0.1-1.8-0.1-2.3-0.1c-0.5,0-1.3,0-2.3,0.1c-1,0.1-1.8,0.1-2.3,0.2V40.6h15c4.3,0,7.5,1,9.7,3
		c2.2,2,3.3,4.9,3.3,8.8c0,3.9-0.8,7-2.3,9.3c-1.6,2.2-3.7,3.8-6.5,4.6c-2.8,0.8-6.1,1.3-10.1,1.3L627.5,88.4L627.5,88.4z
		 M587.4,65.4c-2.6,0-5.1,0.2-7.5,0.6c0-0.3,0.1-0.8,0.2-1.5c0.1-0.7,0.1-1.2,0.1-1.5c0-0.3-0.1-0.8-0.1-1.4
		c-0.1-0.7-0.2-1.2-0.2-1.5c3.3,0.4,5.8,0.6,7.5,0.6h13.8c-0.2-2.3-0.7-4.5-1.4-6.5c-0.7-2-1.6-3.9-2.7-5.5
		c-1.1-1.6-2.5-2.9-4.2-3.8c-1.7-0.9-3.5-1.4-5.6-1.4c-1.9,0-3.8,0.6-5.6,1.8c-1.8,1.2-3.3,2.7-4.5,4.6h-0.8
		c-0.2-1.1-0.5-2.4-0.7-3.7c-0.3-1.4-0.5-2.5-0.7-3.4c1.7-1.1,3.7-1.9,5.9-2.5c2.3-0.6,4.4-0.9,6.5-0.9c3.4,0,6.6,0.5,9.5,1.6
		c2.9,1.1,5.5,2.7,7.7,4.9c2.2,2.2,4,4.9,5.2,8.3c1.2,3.4,1.9,7.2,1.9,11.7c0,3.5-0.6,6.7-1.7,9.6c-1.1,2.9-2.7,5.4-4.8,7.5
		c-2.1,2.1-4.5,3.7-7.3,4.8c-2.8,1.1-5.8,1.6-9.1,1.6c-4.6,0-8.6-1-12.1-3l-1.3-6l0.8-0.4c1.4,1.5,3.1,2.8,5.1,3.8
		c2,1,4,1.5,5.8,1.5c3,0,5.6-0.8,7.8-2.5c2.2-1.6,3.9-4,5-7c1.1-3,1.7-6.4,1.7-10.3L587.4,65.4z M517.5,29.6
		c3.8,4.4,8.1,6.5,12.7,6.5c4.8,0,9.2-2.2,13.1-6.7l2.4,3.6c-1.4,1.6-3,3-4.7,4.2c-1.7,1.2-3.5,2-5.3,2.6s-3.7,0.9-5.6,0.9
		c-2.7,0-5.4-0.6-8-1.8c-2.6-1.2-4.9-3-7-5.4L517.5,29.6L517.5,29.6z M511.8,41.6c0.7,0.1,1.3,0.1,1.8,0.2c0.5,0.1,1,0.1,1.5,0.2
		c0.5,0,0.9,0.1,1.3,0.1s0.8,0,1.3-0.1c0.5,0,1-0.1,1.5-0.2c0.5-0.1,1.1-0.1,1.8-0.2v32.7c1.9-2.3,3.8-4.8,6-7.6
		c2.1-2.8,4.1-5.6,6.1-8.4c1.9-2.8,3.9-5.6,5.9-8.6c2-3,3.7-5.7,5.2-8.1c0.4,0.1,1.1,0.1,2,0.1c1.2,0,2.1,0,2.7-0.1v47.9
		c-0.5,0-1.2-0.1-2.3-0.2c-1-0.1-1.8-0.1-2.4-0.1c-0.5,0-1.2,0-2.2,0.1c-1,0.1-1.8,0.1-2.3,0.2v-33c-1.8,2.3-3.6,4.7-5.4,7.2
		c-1.8,2.5-3.9,5.4-6.2,8.7c-2.3,3.3-4.5,6.4-6.4,9.2c-1.9,2.8-3.7,5.5-5.2,7.9c-0.4,0-1.1-0.1-1.9-0.1c-1.2,0-2.1,0-2.7,0.1V41.6z
		 M464.4,41.6c0.7,0.1,1.3,0.1,1.8,0.2c0.5,0.1,1,0.1,1.5,0.2c0.5,0,0.9,0.1,1.3,0.1c0.3,0,0.8,0,1.3-0.1c0.5,0,1-0.1,1.5-0.2
		c0.5-0.1,1.1-0.1,1.8-0.2v32.7c1.9-2.3,3.8-4.8,6-7.6c2.1-2.8,4.1-5.6,6.1-8.4c1.9-2.8,3.9-5.6,5.9-8.6c2-3,3.7-5.7,5.2-8.1
		c0.4,0,1.1,0.1,2,0.1c1.2,0,2.1,0,2.7-0.1v47.9c-0.5,0-1.2-0.1-2.3-0.2c-1-0.1-1.8-0.1-2.4-0.1c-0.5,0-1.2,0-2.2,0.1
		c-1,0.1-1.8,0.1-2.3,0.2v-33c-1.8,2.3-3.6,4.7-5.4,7.2c-1.8,2.5-3.9,5.4-6.2,8.7c-2.3,3.3-4.5,6.4-6.4,9.2
		c-1.9,2.8-3.7,5.5-5.2,7.9c-0.4,0-1.1-0.1-1.9-0.1c-1.2,0-2.1,0-2.7,0.1V41.6z M427.1,41.6c0.2,0,0.8,0.1,2,0.2
		c1.1,0.1,2,0.2,2.6,0.2c0.3,0,0.8,0,1.3-0.1c0.5,0,1-0.1,1.5-0.2c0.5-0.1,1.1-0.1,1.8-0.2v21.8c5.4-7.1,10.7-14.4,15.8-21.8
		c0.5,0.1,0.9,0.1,1.2,0.2c0.4,0.1,0.7,0.1,1.1,0.2c0.4,0,0.7,0.1,1,0.1c0.4,0,1-0.1,1.8-0.2c0.8-0.1,1.3-0.2,1.4-0.2v0.5
		c-2.8,3-5.7,6.4-8.7,10.2c-3,3.8-5.4,6.8-7.1,9.1l17,27v0.9c-0.5,0-1.4-0.1-2.6-0.2c-1.2-0.1-2.1-0.1-2.5-0.1c-0.5,0-1.4,0-2.6,0.1
		c-1.2,0.1-2.1,0.1-2.6,0.2l-13.2-22.1v22.1c-0.5,0-1.3-0.1-2.3-0.2c-1-0.1-1.8-0.1-2.3-0.1c-0.5,0-1.2,0-2.2,0.1
		c-1,0.1-1.8,0.1-2.3,0.2V41.6z M401.8,85.2c1.7,0,3-0.2,4-0.5c1.9-0.6,3.2-1.7,4.1-3.4c0.9-1.7,1.3-3.7,1.3-6.1
		c0-2.7-0.5-4.9-1.6-6.6c-1.1-1.7-2.4-2.6-4-2.6h-3.8V85.2z M401.8,62.2h5.9c4.3,0,7.5,1,9.7,3c2.2,2,3.3,4.9,3.3,8.8
		c0,5.7-1.5,9.6-4.4,11.8c-2.9,2.2-6.7,3.3-11.4,3.3h-12.3V41.3c0.5,0,1.2,0.1,2.2,0.2c0.9,0.1,1.7,0.1,2.4,0.1c0.6,0,1.4,0,2.4-0.1
		c0.9-0.1,1.7-0.1,2.2-0.2L401.8,62.2z M345.8,41.6c0.7,0.1,1.3,0.1,1.8,0.2c0.5,0.1,1,0.1,1.5,0.2c0.5,0,0.9,0.1,1.3,0.1
		s0.8,0,1.3-0.1c0.5,0,1-0.1,1.5-0.2c0.5-0.1,1.1-0.1,1.8-0.2v18.9c5.1,0.2,8.2,0.3,9.3,0.3c0.9,0,4-0.1,9.3-0.3V41.6
		c0.7,0.1,1.3,0.1,1.7,0.2c0.5,0.1,1,0.1,1.5,0.2c0.5,0,0.9,0.1,1.3,0.1c0.4,0,0.8,0,1.4-0.1c0.5,0,1.1-0.1,1.5-0.2
		c0.5-0.1,1.1-0.1,1.7-0.2v47.7c-0.5,0-1.2-0.1-2.3-0.2c-1-0.1-1.8-0.1-2.4-0.1c-0.5,0-1.2,0-2.2,0.1c-1,0.1-1.8,0.1-2.3,0.2V66.1
		c-4.2-0.2-7.3-0.3-9.3-0.3c-2.2,0-5.3,0.1-9.3,0.3v23.3c-0.5,0-1.3-0.1-2.3-0.2c-1-0.1-1.8-0.1-2.3-0.1c-0.5,0-1.3,0-2.3,0.1
		c-1,0.1-1.8,0.1-2.3,0.2V41.6z M338,41.6c-0.2,1.7-0.3,2.7-0.3,3c0,0.3,0.1,1.3,0.3,3c-4.3-0.6-9-1-14.1-1v15.1h6.4
		c1.7,0,4.2-0.2,7.5-0.6c-0.2,1.4-0.3,2.4-0.3,2.9c0,0.5,0.1,1.5,0.3,3c-2.4-0.4-4.9-0.6-7.5-0.6h-6.4v17.6c5.1,0,9.9-0.3,14.1-1
		c-0.2,1.7-0.3,2.7-0.3,3c0,0.3,0.1,1.3,0.3,3h-23.3V41.6H338z M290,41.8c0.2,0,0.4,0,0.6,0c0.2,0,0.5,0,0.7-0.1
		c0.2,0,0.4-0.1,0.6-0.1c0.2,0,0.4-0.1,0.7-0.1c1.4,4.2,2.6,8,3.6,11.2c1.1,3.2,2.4,7.2,4.1,12c1.6,4.8,2.9,8.4,3.8,11.1
		c0.9,2.6,2.5,7.2,4.8,13.5c-0.8-0.1-1.4-0.1-2-0.2c-0.6-0.1-1.2-0.1-1.8-0.2c-0.6,0-1.1-0.1-1.5-0.1c-0.4,0-0.9,0-1.5,0.1
		c-0.6,0-1.2,0.1-1.8,0.2c-0.6,0.1-1.2,0.1-2,0.2c-0.7-2.6-1.5-5.4-2.3-8.3c-0.9-2.9-1.7-5.4-2.4-7.5c-0.7-2.2-1.7-5.1-2.9-8.9
		c-1.3-3.8-2.3-7.1-3.2-9.8c-4.9,13.7-8.7,25.2-11.3,34.5c-1-0.1-1.9-0.2-2.9-0.2c-0.9,0-1.9,0.1-2.8,0.2c1.7-4.6,3.3-8.8,4.7-12.7
		c1.4-3.8,2.8-7.6,4.2-11.3c1.3-3.7,2.7-7.5,4.1-11.5c1.4-4,2.7-8.1,4-12.2c0.1,0,0.4,0,1.1,0.1C289.2,41.8,289.7,41.8,290,41.8
		L290,41.8z M252.5,70.6L247,54.4l-5.7,16.2H252.5z M239.7,74.9c-0.4,1.2-0.9,2.8-1.5,4.9c-0.6,2-1.2,3.8-1.6,5.4
		c-0.5,1.5-0.8,2.9-1.1,4.1c-0.3,0-0.7-0.1-1.4-0.1c-0.7-0.1-1.1-0.1-1.5-0.1c-0.3,0-0.8,0-1.5,0.1c-0.6,0.1-1.1,0.1-1.5,0.1L247,41
		c0.8,0.1,1.6,0.2,2.3,0.2c0.8,0,1.5-0.1,2.3-0.2l17,48.4c-0.6,0-1.5-0.1-2.7-0.2c-1.2-0.1-2.1-0.1-2.6-0.1c-0.6,0-1.5,0-2.6,0.1
		c-1.2,0.1-2,0.1-2.6,0.2c-1.8-6.7-3.3-11.6-4.3-14.5H239.7L239.7,74.9z M216.3,41.6c0.1,0,0.5,0.1,1.1,0.2c0.6,0.1,1.1,0.2,1.4,0.2
		c0.2,0,0.5,0,0.8-0.1c0.3,0,0.6-0.1,0.9-0.2c0.3-0.1,0.6-0.1,1-0.2c0.5,5,1,10.3,1.6,15.8c0.5,5.5,1,9.5,1.2,12
		c0.3,2.5,0.6,5.6,1.1,9.2c0.5,3.7,0.9,7.2,1.5,10.8c-0.6,0-1.4-0.1-2.6-0.2s-2-0.1-2.5-0.1c-0.6,0-1.4,0-2.4,0.1
		c-1.1,0.1-1.9,0.1-2.4,0.2c-0.1-2.6-0.3-5.3-0.5-8.1c-0.2-2.8-0.4-5.4-0.6-7.7c-0.2-2.3-0.4-4.7-0.7-7.2c-0.2-2.5-0.5-5.6-0.9-9.4
		c-0.8,1.8-1.8,4.3-3.3,7.5c-1.4,3.2-2.6,6-3.6,8.4c-1,2.4-2.2,5.2-3.5,8.5c-1.4,3.3-2.4,5.8-3.1,7.6h-2.3c-0.7-1.6-1.7-4.1-3.1-7.5
		c-1.4-3.3-2.5-5.9-3.3-7.7c-0.8-1.8-1.9-4.5-3.5-8.1c-1.6-3.6-2.7-6.3-3.5-8.1c-1.6,13.8-2.4,24.3-2.6,31.6c-0.3,0-0.8-0.1-1.4-0.2
		c-0.6-0.1-1.1-0.1-1.4-0.1c-0.3,0-0.8,0-1.4,0.1c-0.6,0.1-1.1,0.1-1.5,0.2c1-6.3,2-13,2.9-20c0.9-7,2-16.3,3.4-27.8
		c0.4,0.1,0.7,0.1,1,0.2c0.3,0.1,0.5,0.1,0.8,0.2c0.3,0,0.5,0.1,0.7,0.1c0.2,0,0.4,0,0.8-0.1c0.3,0,0.6-0.1,0.8-0.2
		c0.2-0.1,0.5-0.1,0.9-0.2c1.4,3.3,2.5,6,3.3,8c0.8,2,1.9,4.6,3.3,7.7c1.4,3.2,2.7,6.2,4,9.1c1.3,2.9,2.4,5.5,3.5,8
		c0.3-0.7,1.2-2.7,2.7-6.1c1.5-3.3,2.9-6.5,4.2-9.5c1.3-3,2.6-5.9,3.9-8.9C214.1,47,215.3,44.2,216.3,41.6L216.3,41.6z"/>
</g>
</svg>
