<?xml version="1.0" encoding="UTF-8"?>
<svg id="_Слой_1" data-name="Слой 1" xmlns="http://www.w3.org/2000/svg" xmlns:xlink="http://www.w3.org/1999/xlink" viewBox="0 0 164 36.334">
  <g class="cls-6" fill='#fff'>
    <path class="cls-2" d="m142.205,35.585c-.138-.006-.347-.022-.626-.044-.281-.022-.485-.032-.615-.032-.135,0-.342.01-.617.032-.279.022-.486.038-.624.044v-11.604c-.904,0-1.93.088-3.077.268.055-.447.08-.718.08-.813,0-.091-.025-.356-.08-.797h8.521c-.016.116-.03.217-.047.299-.013.085-.027.173-.035.268-.009.094-.014.17-.014.23s.005.139.014.236c.008.098.022.189.035.274.017.085.031.186.047.302-1.299-.18-2.286-.268-2.962-.268v11.604Zm-17.34-12.945c.182.019.344.038.482.053.138.019.276.032.414.044.138.009.251.016.342.016s.209-.006.353-.016c.14-.013.281-.025.414-.044.135-.016.295-.035.477-.053v8.863c.504-.611,1.045-1.301,1.621-2.073.577-.769,1.125-1.531,1.652-2.277.524-.75,1.059-1.531,1.597-2.343.54-.813,1.015-1.55,1.417-2.208.111.013.287.019.53.019.331,0,.573-.006.728-.019v12.983c-.133-.006-.337-.022-.618-.044-.279-.022-.491-.032-.64-.032-.129,0-.331.01-.606.032-.274.022-.48.038-.618.044v-8.939c-.485.63-.974,1.282-1.467,1.953-.494.674-1.057,1.458-1.691,2.356-.634.894-1.213,1.729-1.737,2.501-.524.769-.993,1.481-1.412,2.129-.122-.013-.292-.019-.513-.019-.317,0-.557.006-.725.019v-12.945h0Zm-5.047,11.512c-.317-1.112-.676-2.274-1.073-3.484-.397-1.209-.882-2.702-1.459-4.476-1.243,3.493-2.137,6.145-2.677,7.959.253.009.631.025,1.133.044.502.019.954.028,1.362.028.442,0,.935-.009,1.481-.028.549-.019.96-.035,1.233-.044Zm-6.616-.003c.48-1.273.861-2.293,1.145-3.062.284-.765.615-1.676.992-2.731.378-1.052.734-2.076,1.068-3.065.336-.992.628-1.887.88-2.69.096,0,.218.013.364.038.143.025.253.038.331.038.085,0,.201-.013.35-.038.149-.025.267-.038.358-.038,1.092,3.417,2.4,7.267,3.925,11.547h.794c-.066.595-.102.929-.102,1.001,0,.312.036.652.102,1.018h-.251c-.199-.277-.535-.46-1.009-.539-.475-.079-1.04-.12-1.699-.12h-4.884c-.742,0-1.346.038-1.815.113-.471.076-.808.258-1.012.545h-.251c.058-.28.086-.621.086-1.018,0-.258-.028-.592-.086-1.001h.714Zm-5.99-2.003c-.223-.545-.551-1.247-.992-2.11-.442-.863-.908-1.745-1.401-2.646-.494-.904-.979-1.799-1.462-2.69-.48-.891-.839-1.578-1.076-2.06.221.019.411.035.566.05.157.016.32.031.494.044.17.013.314.019.427.019.11,0,.248-.006.414-.016.165-.013.331-.025.499-.044.165-.016.358-.035.579-.054.13.302.414.888.855,1.758.438.873.893,1.761,1.357,2.674.466.91.786,1.562.962,1.956.155-.265.345-.652.571-1.159.226-.507.48-1.109.761-1.802.281-.693.549-1.364.8-2.006.248-.646.433-1.118.552-1.421.267.038.537.057.813.057.248,0,.51-.019.792-.057-.447.907-1.071,2.249-1.87,4.025-.797,1.773-1.556,3.509-2.273,5.203-.717,1.698-1.205,2.936-1.467,3.717-.049-.006-.157-.022-.319-.044-.163-.022-.287-.032-.376-.032-.082,0-.206.009-.369.028-.166.019-.279.029-.342.029.209-.419.469-.992.78-1.717.315-.727.555-1.294.725-1.704h0Zm-9.906-3.269c.486-.025.849-.069,1.089-.132.507-.158.88-.469,1.117-.929.24-.46.359-1.005.359-1.638,0-.74-.146-1.342-.441-1.805-.295-.463-.662-.693-1.098-.693h-1.026v5.197Zm0,6.709c-.143-.006-.35-.022-.623-.044-.273-.022-.48-.032-.62-.032s-.35.01-.621.032c-.273.022-.477.038-.618.044v-12.945h4.073c1.161,0,2.04.268,2.639.8.598.536.899,1.333.899,2.394,0,1.068-.213,1.906-.635,2.51-.424.605-1.009,1.024-1.756,1.25-.747.227-1.66.343-2.739.343v5.647h0Zm-10.888-6.218c-.717,0-1.398.05-2.035.151,0-.091.014-.227.041-.41.025-.18.039-.315.039-.406,0-.079-.014-.208-.039-.39-.027-.18-.041-.315-.041-.4.885.114,1.564.17,2.035.17h3.737c-.066-.621-.193-1.209-.375-1.761-.185-.554-.43-1.046-.742-1.484-.312-.434-.689-.778-1.139-1.03-.45-.249-.96-.375-1.533-.375-.518,0-1.029.161-1.531.479-.502.321-.907.74-1.216,1.257h-.229c-.061-.306-.124-.643-.19-1.008-.069-.369-.13-.68-.19-.935.463-.293,1.001-.52,1.61-.68.612-.164,1.2-.246,1.762-.246.927,0,1.787.145,2.579.435.794.293,1.492.734,2.093,1.323.601.592,1.073,1.342,1.409,2.255.339.91.507,1.965.507,3.166,0,.954-.154,1.824-.463,2.605-.309.784-.744,1.458-1.31,2.022-.565.567-1.23.999-1.991,1.298-.761.299-1.583.447-2.46.447-1.252,0-2.344-.271-3.276-.813l-.364-1.628.218-.11c.378.413.841.753,1.39,1.017.549.268,1.073.4,1.572.4.814,0,1.517-.223,2.115-.674.596-.447,1.048-1.077,1.36-1.89.309-.809.463-1.739.463-2.784h-3.806ZM155.542.205c1.04,1.184,2.193,1.776,3.458,1.776,1.305,0,2.485-.605,3.544-1.814l.648.967c-.389.441-.816.819-1.282,1.134-.466.315-.949.548-1.448.706-.499.158-1.007.236-1.525.236-.742,0-1.462-.164-2.16-.488-.694-.328-1.334-.819-1.913-1.477l.678-1.039h0Zm-1.569,3.254c.182.019.345.038.483.054.138.016.275.032.413.041.138.013.251.016.342.016s.21-.003.353-.016c.141-.009.281-.025.414-.041.135-.016.295-.035.477-.054v8.86c.505-.611,1.045-1.301,1.622-2.073.576-.769,1.125-1.531,1.651-2.277.524-.75,1.059-1.531,1.597-2.343.541-.813,1.015-1.55,1.417-2.208.111.016.287.022.53.022.331,0,.574-.006.728-.022v12.983c-.132-.006-.336-.022-.618-.044-.278-.022-.491-.031-.64-.031-.129,0-.331.01-.606.031-.273.022-.48.038-.618.044V7.462c-.485.63-.973,1.282-1.467,1.953-.494.674-1.056,1.458-1.691,2.356-.634.894-1.213,1.729-1.737,2.501-.524.769-.993,1.48-1.412,2.129-.121-.013-.292-.019-.513-.019-.317,0-.557.006-.725.019V3.459h0Zm-12.873-.003c.182.019.344.038.482.054.138.019.276.031.414.044.138.01.251.016.342.016s.21-.006.353-.016c.141-.013.281-.025.414-.044.135-.016.295-.035.477-.054v8.863c.504-.611,1.045-1.301,1.621-2.073.577-.769,1.126-1.531,1.652-2.277.524-.75,1.059-1.531,1.597-2.343.541-.813,1.015-1.55,1.417-2.208.111.013.287.019.53.019.331,0,.574-.006.728-.019v12.983c-.132-.006-.336-.022-.618-.044-.278-.022-.491-.031-.64-.031-.129,0-.331.01-.606.031-.273.022-.48.038-.618.044V7.462c-.485.63-.973,1.282-1.467,1.953-.494.674-1.056,1.458-1.691,2.356-.634.894-1.213,1.729-1.737,2.501-.524.769-.993,1.48-1.412,2.129-.121-.013-.292-.019-.513-.019-.317,0-.557.006-.725.019V3.456Zm-10.113,0c.052.003.229.022.538.06.306.035.54.054.7.054.091,0,.21-.006.353-.016.141-.013.281-.025.414-.044.135-.016.295-.035.477-.054v5.915c1.464-1.921,2.898-3.893,4.302-5.915.124.019.234.038.328.054.097.019.196.031.303.044.105.01.191.016.262.016.108,0,.273-.019.499-.054.227-.038.354-.057.378-.06v.148c-.755.822-1.544,1.745-2.368,2.769-.822,1.024-1.462,1.849-1.917,2.469l4.616,7.314v.246c-.146-.006-.383-.022-.714-.044-.333-.022-.562-.031-.692-.031-.146,0-.383.01-.714.031-.329.022-.56.038-.695.044l-3.588-5.991v5.991c-.143-.006-.35-.022-.623-.044-.273-.022-.48-.031-.621-.031-.132,0-.336.01-.606.031-.271.022-.48.038-.632.044V3.456Zm-6.881,11.815c.458,0,.822-.047,1.09-.135.507-.161.88-.469,1.117-.929.24-.46.358-1.008.358-1.641,0-.737-.146-1.339-.441-1.802-.295-.463-.662-.693-1.098-.693h-1.026v5.2Zm0-6.24h1.589c1.161,0,2.041.268,2.642.8.598.536.899,1.332.899,2.394,0,1.534-.4,2.602-1.197,3.2-.797.601-1.826.901-3.086.901h-3.328V3.38c.14.006.336.019.59.041.256.022.471.035.648.035.176,0,.391-.013.645-.035.257-.022.455-.035.599-.041v5.651h0Zm-15.189-5.575c.182.019.344.038.482.054.138.019.276.031.414.044.138.01.251.016.342.016s.21-.006.353-.016c.141-.013.281-.025.414-.044.135-.016.295-.035.477-.054v5.121c1.373.063,2.217.091,2.528.091.254,0,1.098-.028,2.535-.091V3.456c.182.019.342.038.474.054.135.019.27.031.408.044.141.01.254.016.342.016.1,0,.224-.006.37-.019.149-.013.286-.028.416-.044.133-.016.29-.032.472-.05v12.945c-.133-.006-.337-.022-.618-.044-.278-.022-.491-.031-.64-.031-.129,0-.331.01-.607.031-.273.022-.479.038-.617.044v-6.312c-1.148-.051-1.991-.076-2.535-.076-.587,0-1.428.025-2.528.076v6.312c-.144-.006-.351-.022-.624-.044-.273-.022-.48-.031-.62-.031-.135,0-.342.01-.618.031-.273.022-.48.038-.62.044V3.456Zm-2.118,0c-.055.46-.086.731-.086.813,0,.079.031.35.086.813-1.164-.176-2.444-.265-3.839-.265v4.082h1.737c.466,0,1.145-.057,2.038-.17-.057.388-.085.652-.085.791,0,.129.028.403.085.816-.645-.101-1.323-.151-2.038-.151h-1.737v4.781c1.395,0,2.675-.088,3.839-.265-.055.463-.086.734-.086.813,0,.082.031.353.086.813h-6.321V3.456h6.321Zm-13.042.057c.044,0,.097-.003.16-.006.063-.006.127-.013.193-.022.063-.01.121-.019.171-.025.05-.01.113-.016.188-.022.369,1.146.7,2.158.99,3.033.292.873.656,1.953,1.1,3.241.441,1.288.789,2.29,1.045,3.008.254.718.687,1.94,1.302,3.663-.204-.019-.389-.038-.551-.054-.163-.019-.328-.031-.494-.041-.168-.013-.303-.019-.408-.019s-.243.006-.416.019c-.174.013-.339.028-.499.044-.157.016-.339.031-.543.05-.185-.712-.395-1.458-.629-2.239-.237-.784-.45-1.465-.64-2.047-.19-.583-.455-1.386-.794-2.413-.342-1.027-.632-1.912-.869-2.655-1.34,3.707-2.366,6.826-3.078,9.355-.262-.038-.521-.057-.778-.057s-.51.019-.758.057c.469-1.25.896-2.394,1.288-3.436.389-1.039.767-2.066,1.133-3.071.364-1.005.734-2.047,1.103-3.128.372-1.077.734-2.183,1.089-3.31.016,0,.113.013.29.038.176.025.312.038.406.038h0Zm-10.19,7.805l-1.473-4.403-1.553,4.403h3.025Zm-3.475,1.153c-.097.328-.232.772-.408,1.323-.174.554-.325,1.043-.447,1.465-.124.419-.226.794-.303,1.124-.071-.006-.196-.019-.375-.035-.179-.016-.312-.022-.4-.022-.091,0-.221.006-.395.022-.171.016-.306.028-.403.035l4.732-13.097c.215.038.422.057.629.057.204,0,.414-.019.629-.057l4.616,13.116c-.165-.006-.405-.022-.725-.044s-.557-.031-.717-.031c-.157,0-.394.01-.709.031-.314.022-.546.038-.698.044-.499-1.824-.891-3.134-1.175-3.931h-3.853Zm-6.357-9.015c.025.003.124.022.295.06.171.035.298.054.386.054.058,0,.132-.006.218-.019.088-.013.168-.028.243-.044.074-.016.165-.031.27-.05.138,1.367.284,2.791.43,4.274.149,1.484.259,2.564.331,3.244.072.68.168,1.515.292,2.507.124.992.257,1.965.4,2.92-.16-.006-.392-.022-.698-.044-.306-.022-.535-.031-.692-.031s-.378.01-.662.031c-.287.022-.507.038-.662.044-.03-.706-.072-1.439-.127-2.202-.055-.762-.113-1.455-.171-2.079-.058-.624-.118-1.272-.182-1.946-.063-.677-.141-1.524-.232-2.542-.207.482-.502,1.159-.885,2.041-.383.879-.709,1.638-.979,2.28-.27.642-.59,1.408-.96,2.299-.369.895-.651,1.584-.849,2.073h-.629c-.179-.447-.458-1.121-.844-2.028-.383-.904-.678-1.6-.888-2.079-.21-.482-.527-1.216-.951-2.205-.425-.986-.739-1.717-.94-2.192-.425,3.739-.656,6.599-.695,8.58-.086-.006-.215-.022-.389-.044-.171-.022-.301-.031-.386-.031-.088,0-.218.01-.383.031-.166.022-.298.038-.397.044.278-1.71.538-3.518.781-5.421.243-1.903.549-4.41.924-7.525.102.019.188.034.259.05.069.016.143.032.221.044.08.013.146.019.199.019s.119-.006.204-.019c.086-.013.163-.028.229-.044.066-.016.149-.031.245-.05.369.901.668,1.619.896,2.158.226.536.527,1.238.902,2.101.375.863.733,1.682,1.078,2.463.342.781.659,1.499.946,2.161.083-.183.331-.731.739-1.641.411-.907.791-1.764,1.15-2.567.356-.803.706-1.61,1.048-2.419.342-.806.648-1.559.916-2.255h0Z"/>
  </g>
  <g class="cls-3" fill='#fff'>
    <g id="Layer">
      <g>
        <path class="cls-8" d="m43.893.132c-2.69.302-5.695,1.142-7.663,2.152-2.9,1.483-5.131,3.805-6.508,6.797-.827,1.811-1.181,3.149-.59,2.231.131-.197.656-.866,1.168-1.47,2.178-2.598,5.288-4.684,8.608-5.8,1.43-.472,3.438-.932,3.556-.8.066.066,1.745,13.922,1.863,15.352.026.276-.118.354-1.417.8-1.876.643-2.585.945-3.871,1.588-4.501,2.257-7.532,5.38-9.001,9.251-.328.879-.997,3.359-.932,3.438.026.013.381-.63.787-1.443.879-1.732,1.561-2.677,2.939-4.055,3.228-3.254,8.162-5.275,14.604-5.983l.853-.092-.039-.525c-.052-.551-2.716-20.404-2.847-21.165-.052-.289-.144-.42-.302-.407-.118.013-.669.066-1.207.131Z"/>
        <path class="cls-9" d="m8.924,3.727c-.643.105-1.26.21-1.365.223-.157.026-.577,2.664-1.929,11.849-.958,6.495-1.719,11.823-1.706,11.836.013.013.709-.052,1.535-.157,2.204-.289,6.311-.394,8.188-.21,3.989.394,7.138,1.443,9.972,3.32,1.01.669,3.49,3.005,4.383,4.107.394.499.394.472-.171-.656-3.162-6.43-8.568-9.539-17.622-10.104-1.338-.092-1.483-.118-1.483-.354,0-.131.472-4.028,1.05-8.634.577-4.606,1.05-8.411,1.05-8.45,0-.157,3.648-.066,4.986.105,4.133.551,7.952,2.191,11.101,4.75.407.328.748.577.774.551.026-.026-.433-.63-1.037-1.352-2.926-3.556-6.272-5.695-10.314-6.653-1.509-.354-5.695-.446-7.414-.171Z"/>
        <path class="cls-5" d="m47.121,3.937c.052.289,2.546,19.879,2.546,19.984,0,.026-.905.079-1.994.131-4.553.21-7.571.866-10.537,2.296-3.451,1.653-6.233,4.54-7.676,7.952l-.276.656,1.352-1.338c1.693-1.666,2.021-1.942,3.359-2.834,2.887-1.942,6.311-3.097,10.392-3.517,1.837-.197,5.642-.092,7.729.21.814.118,1.496.197,1.509.171.026-.026-.748-5.327-1.706-11.783-.958-6.456-1.745-11.783-1.758-11.823,0-.118-.564-.223-1.863-.328l-1.128-.092.052.315Z"/>
        <path class="cls-4" d="m51.95,8.674c.144.63,2.598,20.85,2.546,20.903-.026.026-.604-.052-1.286-.197-2.965-.604-4.041-.709-7.348-.709-2.519-.013-3.477.039-4.422.223-3.307.63-5.97,1.758-8.385,3.543-.892.656-3.333,3.031-3.333,3.241,0,.066.394-.157.892-.485,1.05-.709,3.005-1.706,4.291-2.178,5.59-2.086,12.36-1.929,19.932.446.919.289,1.706.512,1.719.485.039-.039-3.228-23.632-3.412-24.577-.052-.289-.21-.472-.59-.695-.276-.157-.551-.289-.59-.289s-.039.131-.013.289Z"/>
        <path class="cls-1" d="m4.869,9.042c-.42.21-.814.42-.879.485-.052.052-.604,3.294-1.22,7.191-.617,3.897-1.509,9.474-1.968,12.4C.329,32.031-.025,34.445.001,34.471c.026.026.827-.223,1.798-.564,2.165-.748,4.671-1.417,6.731-1.785,2.231-.394,6.508-.499,8.595-.197,3.635.525,6.889,1.745,9.854,3.7.604.394,1.102.709,1.128.709.157,0-1.338-1.719-2.257-2.611-3.228-3.097-7.164-4.593-12.977-4.921-2.218-.118-6.6.289-9.421.879-.499.105-.892.144-.892.079,0-.052.735-4.776,1.64-10.484.905-5.708,1.64-10.445,1.64-10.51,0-.171-.105-.144-.971.276Z"/>
      </g>
    </g>
  </g>
</svg>