<svg width="164" height="57" viewBox="0 0 164 57" fill="none" xmlns="http://www.w3.org/2000/svg">
  <path
    d="M45.2542 30.9661L26.3584 55.0099L0 23.8229L15.5671 1.08407L17.2477 0.992474L45.2542 30.9661Z"
    fill="white" />
  <path d="M48.3992 30.6884L28.0385 54.9188L1.12939 24.3503L17.2476 0.992474L48.3992 30.6884Z"
    fill="url(#paint0_radial_20_28)" />
  <path d="M49.612 33.1804L28.0385 54.9188L1.12939 24.3503L20.5414 0.499977L49.612 33.1804Z"
    fill="#D1D3D4" />
  <path d="M50.7676 33.3641L28.0385 54.9188L1.12939 24.3503L22.5837 0.751553L50.7676 33.3641Z"
    fill="#E6E7E8" />
  <path d="M52.3852 34.0496L27.3492 56.2629L0.439575 25.695L25.1576 3.66245L52.3852 34.0496Z"
    fill="white" />
  <path
    d="M28.0385 54.9188L26.3497 55.0298L0.14978 23.837L1.12945 24.3504L21.4266 9.38441L28.0385 54.9188Z"
    fill="white" />
  <path
    d="M52.1472 36.5479L52.0197 38.4651L28.0385 54.9188L1.12939 24.3503L25.1315 6.57913L52.1472 36.5479Z"
    fill="white" />
  <path d="M0 23.8229L1.00245 26.268L2.14887 26.8332L2.76013 25.3242" fill="white" />
  <path d="M51.4574 38.1292L27.3487 56.5L0.439575 25.9321L24.4417 8.16087L51.4574 38.1292Z"
    fill="url(#paint1_radial_20_28)" />
  <g style="mix-blend-mode:screen" opacity="0.21">
    <path d="M27.8699 20.819L12.7628 32.3302L8.04871 26.7038L23.0884 15.5678L27.8699 20.819Z"
      fill="white" />
  </g>
  <g clip-path="url(#clip0_20_28)">
    <path
      d="M141.59 45.9173C141.452 45.9109 141.243 45.8951 140.964 45.8732C140.683 45.8511 140.479 45.8416 140.349 45.8416C140.214 45.8416 140.007 45.8511 139.732 45.8732C139.453 45.8951 139.246 45.911 139.108 45.9173V34.3136C138.204 34.3136 137.178 34.4018 136.031 34.5813C136.086 34.1339 136.111 33.8631 136.111 33.7687C136.111 33.6773 136.086 33.4129 136.031 32.9718H144.552C144.536 33.0883 144.522 33.189 144.505 33.2709C144.492 33.356 144.478 33.4441 144.47 33.5386C144.461 33.6331 144.456 33.7085 144.456 33.7685C144.456 33.8284 144.461 33.9072 144.47 34.0047C144.478 34.1023 144.492 34.1939 144.505 34.2789C144.522 34.3638 144.536 34.4647 144.552 34.5811C143.253 34.4016 142.266 34.3134 141.59 34.3134V45.9173ZM124.25 32.9718C124.432 32.9906 124.594 33.0096 124.732 33.0253C124.87 33.0441 125.008 33.0569 125.146 33.0693C125.284 33.0788 125.397 33.085 125.488 33.085C125.579 33.085 125.697 33.0788 125.841 33.0693C125.981 33.0567 126.122 33.0441 126.255 33.0253C126.39 33.0096 126.55 32.9906 126.732 32.9718V41.8351C127.236 41.2241 127.777 40.5342 128.353 39.7625C128.93 38.994 129.478 38.2318 130.005 37.4853C130.529 36.7357 131.064 35.9545 131.602 35.1419C132.142 34.3293 132.617 33.5923 133.019 32.9341C133.13 32.9467 133.306 32.9529 133.549 32.9529C133.88 32.9529 134.122 32.9465 134.277 32.9341V45.9173C134.144 45.9109 133.94 45.8951 133.659 45.8732C133.38 45.8511 133.168 45.8416 133.019 45.8416C132.89 45.8416 132.688 45.8511 132.413 45.8732C132.139 45.8951 131.933 45.911 131.795 45.9173V36.9782C131.31 37.6081 130.821 38.2603 130.328 38.9311C129.834 39.6052 129.271 40.3895 128.637 41.2871C128.003 42.1816 127.424 43.0161 126.9 43.7878C126.376 44.5564 125.907 45.2684 125.488 45.9171C125.366 45.9045 125.196 45.8982 124.975 45.8982C124.658 45.8982 124.418 45.9045 124.25 45.9171V32.9716L124.25 32.9718ZM119.203 44.4841C118.886 43.3723 118.527 42.2099 118.13 41.0004C117.733 39.7909 117.248 38.2979 116.671 36.5247C115.428 40.0178 114.534 42.6699 113.994 44.4841C114.247 44.4936 114.625 44.5093 115.127 44.5281C115.629 44.5469 116.081 44.5564 116.489 44.5564C116.931 44.5564 117.424 44.5469 117.97 44.5281C118.519 44.5093 118.93 44.4936 119.203 44.4841ZM112.587 44.481C113.067 43.2084 113.448 42.188 113.732 41.4194C114.016 40.6539 114.347 39.7437 114.724 38.6886C115.102 37.6364 115.458 36.6129 115.792 35.6238C116.128 34.6317 116.42 33.7372 116.672 32.9339C116.768 32.9339 116.89 32.9465 117.036 32.9718C117.179 32.997 117.289 33.0096 117.367 33.0096C117.452 33.0096 117.568 32.997 117.717 32.9718C117.866 32.9465 117.984 32.9339 118.075 32.9339C119.167 36.3514 120.475 40.2004 122 44.481H122.794C122.728 45.0763 122.692 45.4102 122.692 45.4825C122.692 45.7945 122.728 46.1345 122.794 46.5H122.543C122.344 46.2228 122.008 46.0401 121.534 45.9613C121.059 45.8825 120.494 45.8416 119.835 45.8416H114.951C114.209 45.8416 113.605 45.8794 113.136 45.9549C112.665 46.0305 112.328 46.2133 112.124 46.4998H111.873C111.931 46.2195 111.959 45.8792 111.959 45.4823C111.959 45.2241 111.931 44.8901 111.873 44.4808H112.587L112.587 44.481ZM106.597 42.4778C106.374 41.9329 106.046 41.2305 105.605 40.3674C105.163 39.5044 104.697 38.6225 104.204 37.7216C103.71 36.8176 103.225 35.9231 102.742 35.0317C102.262 34.1405 101.903 33.4538 101.666 32.9719C101.887 32.9908 102.077 33.0067 102.232 33.0224C102.389 33.0381 102.552 33.0538 102.726 33.0664C102.896 33.079 103.04 33.0852 103.153 33.0852C103.263 33.0852 103.401 33.079 103.567 33.0695C103.732 33.0569 103.898 33.0443 104.066 33.0255C104.231 33.0098 104.424 32.9908 104.645 32.9719C104.775 33.2744 105.059 33.8602 105.5 34.7295C105.938 35.6021 106.393 36.4901 106.857 37.4036C107.323 38.3138 107.643 38.9658 107.819 39.3596C107.974 39.095 108.164 38.7076 108.39 38.2005C108.616 37.6935 108.87 37.0919 109.151 36.399C109.432 35.706 109.7 35.035 109.951 34.3927C110.199 33.7469 110.384 33.2746 110.503 32.9721C110.77 33.01 111.04 33.029 111.316 33.029C111.564 33.029 111.826 33.01 112.108 32.9721C111.661 33.8792 111.037 35.2211 110.238 36.9974C109.441 38.7707 108.682 40.5063 107.965 42.2008C107.248 43.8984 106.76 45.1364 106.498 45.9174C106.449 45.911 106.341 45.8953 106.179 45.8734C106.016 45.8513 105.892 45.8418 105.803 45.8418C105.721 45.8418 105.597 45.8513 105.434 45.8701C105.268 45.8891 105.155 45.8986 105.092 45.8986C105.301 45.4798 105.561 44.9064 105.872 44.182C106.187 43.4546 106.427 42.8875 106.597 42.4782L106.597 42.4778ZM96.6914 39.2083C97.1769 39.1831 97.5408 39.1391 97.7808 39.076C98.2882 38.9185 98.6606 38.6068 98.8977 38.1468C99.1376 37.6869 99.2562 37.1419 99.2562 36.509C99.2562 35.7689 99.1101 35.1671 98.8149 34.7041C98.5199 34.241 98.1531 34.0111 97.7173 34.0111H96.6914V39.2083ZM96.6914 45.9173C96.548 45.9109 96.3412 45.8951 96.0681 45.8732C95.7951 45.8511 95.5882 45.8416 95.4477 45.8416C95.3072 45.8416 95.0975 45.8511 94.8271 45.8732C94.5541 45.8951 94.3501 45.911 94.2094 45.9173V32.9718H98.2826C99.4436 32.9718 100.323 33.2395 100.922 33.7718C101.52 34.3074 101.821 35.1043 101.821 36.1656C101.821 37.2333 101.608 38.0712 101.186 38.6758C100.762 39.2805 100.177 39.6995 99.4297 39.9263C98.6823 40.1531 97.7696 40.2696 96.6912 40.2696V45.9171L96.6914 45.9173ZM85.8037 39.6997C85.0867 39.6997 84.4055 39.7501 83.7686 39.851C83.7686 39.7596 83.7824 39.6242 83.8099 39.4415C83.8348 39.2619 83.8486 39.1265 83.8486 39.0351C83.8486 38.9563 83.8348 38.8271 83.8099 38.6446C83.7824 38.465 83.7686 38.3295 83.7686 38.2446C84.6538 38.3581 85.3323 38.4147 85.8037 38.4147H89.5406C89.4744 37.7941 89.3476 37.2052 89.1655 36.6541C88.9808 36.0998 88.7353 35.6083 88.4237 35.1704C88.112 34.7359 87.7342 34.3925 87.2847 34.1405C86.8352 33.8916 86.325 33.7657 85.7514 33.7657C85.233 33.7657 84.7228 33.9264 84.2208 34.2445C83.7189 34.5658 83.3135 34.9846 83.0046 35.5012H82.7758C82.7152 35.1956 82.6517 34.8587 82.5855 34.4934C82.5166 34.1248 82.4558 33.8131 82.3952 33.558C82.8584 33.2651 83.3962 33.0383 84.0056 32.8777C84.618 32.7139 85.2053 32.6321 85.7679 32.6321C86.6945 32.6321 87.5551 32.777 88.3465 33.0668C89.1409 33.3597 89.8385 33.8007 90.4396 34.3896C91.0408 34.9819 91.5125 35.7314 91.8488 36.6449C92.1881 37.5551 92.3563 38.6104 92.3563 39.8105C92.3563 40.7649 92.2019 41.6342 91.8931 42.4154C91.5842 43.1995 91.1486 43.8736 90.5832 44.4375C90.0178 45.0043 89.3532 45.436 88.5921 45.7351C87.8308 46.0342 87.0091 46.1822 86.1322 46.1822C84.8801 46.1822 83.7882 45.9114 82.8561 45.3696L82.4922 43.7413L82.71 43.6309C83.0877 44.0437 83.5511 44.3838 84.0999 44.6484C84.6488 44.9161 85.1728 45.0484 85.6719 45.0484C86.4855 45.0484 87.1887 44.8249 87.7871 44.3745C88.3829 43.9271 88.8351 43.297 89.1467 42.4844C89.4555 41.6751 89.6101 40.7459 89.6101 39.7001H85.8043L85.8037 39.6997ZM154.927 10.5378C155.967 11.7221 157.12 12.3142 158.385 12.3142C159.69 12.3142 160.87 11.7095 161.929 10.5L162.577 11.4668C162.188 11.9078 161.761 12.2859 161.295 12.6007C160.829 12.9158 160.346 13.1487 159.847 13.3063C159.348 13.4638 158.84 13.5425 158.322 13.5425C157.58 13.5425 156.86 13.3788 156.162 13.0543C155.468 12.7266 154.828 12.2352 154.249 11.577L154.927 10.5376L154.927 10.5378ZM153.358 13.7916C153.54 13.8104 153.703 13.8294 153.841 13.8452C153.979 13.8609 154.116 13.8768 154.254 13.8861C154.392 13.8987 154.505 13.9018 154.596 13.9018C154.687 13.9018 154.806 13.8985 154.949 13.8861C155.09 13.8766 155.23 13.8609 155.363 13.8452C155.498 13.8294 155.658 13.8104 155.84 13.7916V22.6519C156.345 22.0408 156.885 21.351 157.462 20.5793C158.038 19.8107 158.587 19.0485 159.113 18.3021C159.637 17.5523 160.172 16.7713 160.71 15.9587C161.251 15.146 161.725 14.4089 162.127 13.7507C162.238 13.7664 162.414 13.7728 162.657 13.7728C162.988 13.7728 163.231 13.7664 163.385 13.7507V26.734C163.253 26.7276 163.049 26.7119 162.767 26.6898C162.489 26.6677 162.276 26.6584 162.127 26.6584C161.998 26.6584 161.796 26.6679 161.521 26.6898C161.248 26.7119 161.041 26.7276 160.903 26.734V17.795C160.418 18.4249 159.93 19.0769 159.436 19.7479C158.942 20.422 158.38 21.2063 157.745 22.1039C157.111 22.9984 156.532 23.8331 156.008 24.6048C155.484 25.3734 155.015 26.0851 154.596 26.734C154.475 26.7214 154.304 26.715 154.083 26.715C153.766 26.715 153.526 26.7214 153.358 26.734V13.7914L153.358 13.7916ZM140.485 13.7885C140.667 13.8073 140.829 13.8263 140.967 13.8421C141.105 13.8609 141.243 13.8735 141.381 13.8861C141.519 13.8956 141.632 13.9018 141.723 13.9018C141.814 13.9018 141.933 13.8954 142.076 13.8861C142.217 13.8735 142.357 13.8609 142.49 13.8421C142.625 13.8263 142.785 13.8075 142.967 13.7885V22.6519C143.471 22.0408 144.012 21.351 144.588 20.5793C145.165 19.8107 145.714 19.0485 146.24 18.3021C146.764 17.5523 147.299 16.7713 147.837 15.9587C148.378 15.146 148.852 14.4089 149.254 13.7507C149.365 13.7633 149.541 13.7697 149.784 13.7697C150.115 13.7697 150.358 13.7633 150.512 13.7507V26.734C150.38 26.7276 150.176 26.7119 149.894 26.6898C149.616 26.6677 149.403 26.6584 149.254 26.6584C149.125 26.6584 148.923 26.6679 148.648 26.6898C148.375 26.7119 148.168 26.7276 148.03 26.734V17.795C147.545 18.4249 147.057 19.0769 146.563 19.7479C146.069 20.422 145.507 21.2063 144.872 22.1039C144.238 22.9984 143.659 23.8331 143.135 24.6048C142.611 25.3734 142.142 26.0851 141.723 26.734C141.602 26.7214 141.431 26.715 141.21 26.715C140.893 26.715 140.653 26.7214 140.485 26.734V13.7885ZM130.372 13.7885C130.424 13.7916 130.601 13.8104 130.91 13.8483C131.216 13.8828 131.45 13.9018 131.61 13.9018C131.701 13.9018 131.82 13.8954 131.963 13.8861C132.104 13.8735 132.244 13.8609 132.377 13.8421C132.512 13.8263 132.672 13.8075 132.854 13.7885V19.7036C134.318 17.7824 135.752 15.8107 137.156 13.7885C137.28 13.8073 137.39 13.8263 137.484 13.8421C137.581 13.8609 137.68 13.8735 137.787 13.8861C137.892 13.8956 137.978 13.9018 138.049 13.9018C138.157 13.9018 138.322 13.8828 138.548 13.8483C138.775 13.8104 138.902 13.7916 138.926 13.7885V13.9365C138.171 14.7587 137.382 15.6815 136.558 16.7051C135.736 17.7288 135.096 18.5541 134.641 19.1744L139.257 26.488V26.7338C139.111 26.7274 138.874 26.7117 138.543 26.6896C138.21 26.6675 137.981 26.6582 137.851 26.6582C137.705 26.6582 137.468 26.6677 137.137 26.6896C136.808 26.7117 136.577 26.7274 136.442 26.7338L132.854 20.743V26.7338C132.711 26.7274 132.504 26.7117 132.231 26.6896C131.958 26.6675 131.751 26.6582 131.61 26.6582C131.478 26.6582 131.274 26.6677 131.004 26.6896C130.733 26.7117 130.524 26.7274 130.372 26.7338V13.7885ZM123.491 25.6031C123.949 25.6031 124.313 25.5559 124.581 25.4677C125.088 25.307 125.461 24.9984 125.698 24.5384C125.938 24.0785 126.056 23.5305 126.056 22.8975C126.056 22.1605 125.91 21.5588 125.615 21.0959C125.32 20.6329 124.953 20.403 124.517 20.403H123.491V25.6031ZM123.491 19.3636H125.08C126.241 19.3636 127.121 19.6313 127.722 20.1636C128.32 20.6992 128.621 21.4959 128.621 22.5574C128.621 24.0913 128.221 25.159 127.424 25.7575C126.627 26.359 125.598 26.6584 124.338 26.6584H121.01V13.7127C121.15 13.7191 121.346 13.7315 121.6 13.7536C121.856 13.7755 122.071 13.7883 122.248 13.7883C122.424 13.7883 122.639 13.7757 122.893 13.7536C123.15 13.7315 123.348 13.7191 123.492 13.7127V19.3634L123.491 19.3636ZM108.302 13.7885C108.484 13.8073 108.646 13.8263 108.784 13.8421C108.922 13.8609 109.06 13.8735 109.198 13.8861C109.336 13.8956 109.449 13.9018 109.54 13.9018C109.631 13.9018 109.75 13.8954 109.893 13.8861C110.034 13.8735 110.174 13.8609 110.307 13.8421C110.442 13.8263 110.602 13.8075 110.784 13.7885V18.9098C112.157 18.9729 113.001 19.0012 113.312 19.0012C113.566 19.0012 114.41 18.9729 115.847 18.9098V13.7885C116.029 13.8073 116.189 13.8263 116.321 13.8421C116.456 13.8609 116.591 13.8735 116.729 13.8861C116.87 13.8956 116.983 13.9018 117.071 13.9018C117.171 13.9018 117.295 13.8954 117.441 13.8828C117.59 13.8702 117.727 13.8545 117.857 13.8388C117.99 13.823 118.147 13.8073 118.329 13.7885V26.734C118.196 26.7276 117.992 26.7119 117.711 26.6898C117.433 26.6677 117.22 26.6584 117.071 26.6584C116.942 26.6584 116.74 26.6679 116.464 26.6898C116.191 26.7119 115.985 26.7276 115.847 26.734V20.422C114.699 20.3715 113.856 20.3463 113.312 20.3463C112.725 20.3463 111.884 20.3715 110.784 20.422V26.734C110.64 26.7276 110.433 26.7119 110.16 26.6898C109.887 26.6677 109.68 26.6584 109.54 26.6584C109.405 26.6584 109.198 26.6679 108.922 26.6898C108.649 26.7119 108.442 26.7276 108.302 26.734V13.7885ZM106.184 13.7885C106.129 14.2483 106.098 14.5193 106.098 14.6011C106.098 14.6799 106.129 14.9507 106.184 15.4138C105.02 15.2374 103.74 15.1492 102.345 15.1492V19.2313H104.082C104.548 19.2313 105.227 19.1744 106.12 19.0611C106.063 19.4487 106.035 19.7131 106.035 19.8518C106.035 19.981 106.063 20.255 106.12 20.6676C105.475 20.5669 104.797 20.5165 104.082 20.5165H102.345V25.2977C103.74 25.2977 105.02 25.2095 106.184 25.0331C106.129 25.4962 106.098 25.767 106.098 25.8457C106.098 25.9276 106.129 26.1984 106.184 26.6584H99.8629V13.7883L106.184 13.7885ZM93.1424 13.8452C93.1866 13.8452 93.239 13.8421 93.3023 13.8388C93.3656 13.8325 93.4291 13.8261 93.4953 13.8168C93.5586 13.8073 93.6167 13.798 93.6662 13.7916C93.7158 13.7821 93.7793 13.7759 93.8538 13.7697C94.2233 14.9162 94.5542 15.9272 94.8439 16.8029C95.1362 17.6755 95.5002 18.7558 95.9442 20.0441C96.3854 21.3324 96.733 22.3339 96.9893 23.0521C97.2429 23.7704 97.6761 24.9924 98.2909 26.7152C98.0867 26.6964 97.902 26.6774 97.7394 26.6617C97.5768 26.6428 97.4113 26.6302 97.2458 26.6207C97.0776 26.6081 96.9425 26.6017 96.8377 26.6017C96.7328 26.6017 96.595 26.6081 96.4212 26.6207C96.2475 26.6333 96.082 26.649 95.9221 26.6648C95.7648 26.6805 95.5828 26.6962 95.3788 26.715C95.1941 26.0033 94.9843 25.2568 94.7501 24.4756C94.5129 23.6915 94.3006 23.011 94.1103 22.4282C93.92 21.8457 93.6554 21.0424 93.3161 20.0156C92.9742 18.9888 92.6846 18.1036 92.4475 17.3602C91.1072 21.0676 90.0813 24.1858 89.3697 26.715C89.1078 26.6772 88.8484 26.6584 88.5921 26.6584C88.3358 26.6584 88.082 26.6772 87.8337 26.715C88.3025 25.4647 88.7301 24.3212 89.1217 23.2787C89.5106 22.2393 89.8883 21.2123 90.2551 20.2076C90.6192 19.203 90.9887 18.1605 91.3581 17.0799C91.7305 16.0027 92.0917 14.8972 92.4475 13.7695C92.464 13.7695 92.5606 13.7821 92.7371 13.8073C92.9136 13.8325 93.0488 13.8452 93.1426 13.8452H93.1424ZM82.9525 21.6501L81.4798 17.2468L79.9272 21.6501H82.9525ZM79.4777 22.803C79.3811 23.1307 79.246 23.5747 79.0695 24.1258C78.8958 24.6802 78.7441 25.1683 78.6227 25.5904C78.4986 26.0093 78.3966 26.3843 78.3194 26.7148C78.2479 26.7086 78.1235 26.696 77.9444 26.6801C77.7652 26.6644 77.6328 26.6582 77.5445 26.6582C77.4535 26.6582 77.324 26.6646 77.15 26.6801C76.9791 26.6958 76.8439 26.7086 76.7475 26.7148L81.4798 13.6182C81.6949 13.656 81.9018 13.675 82.1086 13.675C82.3128 13.675 82.5224 13.6562 82.7375 13.6182L87.354 26.7338C87.1885 26.7274 86.9485 26.7117 86.6287 26.6896C86.3089 26.6675 86.0716 26.6582 85.9117 26.6582C85.7545 26.6582 85.5174 26.6677 85.203 26.6896C84.8887 26.7117 84.657 26.7274 84.5054 26.7338C84.0062 24.9101 83.6146 23.5997 83.3306 22.8028H79.4781L79.4777 22.803ZM73.1209 13.7883C73.1457 13.7914 73.245 13.8102 73.4161 13.8481C73.5869 13.8826 73.7139 13.9016 73.8021 13.9016C73.86 13.9016 73.9345 13.8952 74.0201 13.8826C74.1082 13.87 74.1883 13.8543 74.2628 13.8386C74.3372 13.8228 74.4283 13.8071 74.5331 13.7883C74.6711 15.1554 74.8172 16.5789 74.9632 18.0625C75.1122 19.5461 75.2224 20.6264 75.2942 21.3068C75.3658 21.9871 75.4624 22.8218 75.5865 23.8141C75.7106 24.8061 75.843 25.7794 75.9864 26.7338C75.8265 26.7274 75.5948 26.7117 75.2886 26.6896C74.9825 26.6675 74.7537 26.6582 74.5964 26.6582C74.4392 26.6582 74.2185 26.6677 73.9345 26.6896C73.6477 26.7117 73.427 26.7274 73.2727 26.7338C73.2423 26.0283 73.2011 25.2944 73.1459 24.532C73.0907 23.7699 73.0327 23.0769 72.9748 22.4532C72.9169 21.8296 72.8563 21.1809 72.7928 20.5068C72.7295 19.8295 72.6521 18.9824 72.5611 17.9649C72.3542 18.4468 72.0592 19.1242 71.6759 20.0061C71.2926 20.8848 70.9672 21.6439 70.6968 22.2864C70.4266 22.9289 70.1066 23.6944 69.7369 24.5858C69.3675 25.4803 69.0861 26.1701 68.8875 26.6584H68.2589C68.0795 26.211 67.8011 25.5371 67.4148 24.63C67.0315 23.726 66.7365 23.03 66.5268 22.5512C66.3172 22.0693 66.0001 21.3355 65.5754 20.3463C65.1507 19.3605 64.8364 18.6297 64.635 18.1542C64.2103 21.893 63.9786 24.753 63.9401 26.7342C63.8544 26.7278 63.7249 26.7121 63.5512 26.69C63.3801 26.6679 63.2506 26.6586 63.1652 26.6586C63.0768 26.6586 62.9473 26.6681 62.7818 26.69C62.6163 26.7121 62.4839 26.7278 62.3846 26.7342C62.6631 25.0238 62.9223 23.2158 63.1652 21.3136C63.4078 19.4111 63.714 16.904 64.089 13.7889C64.191 13.8077 64.2766 13.8234 64.3482 13.8391C64.4171 13.8549 64.4916 13.8708 64.569 13.8832C64.6488 13.8958 64.7152 13.9022 64.7675 13.9022C64.8199 13.9022 64.8861 13.8958 64.9715 13.8832C65.057 13.8706 65.1343 13.8549 65.2005 13.8391C65.2667 13.8234 65.3495 13.8077 65.4459 13.7889C65.8153 14.6898 66.1134 15.4077 66.3422 15.9465C66.5683 16.4821 66.8689 17.1843 67.244 18.0474C67.619 18.9104 67.9775 19.7292 68.3224 20.5104C68.6643 21.2916 68.9814 22.0096 69.2682 22.6711C69.3509 22.4884 69.5991 21.9403 70.0073 21.0301C70.4181 20.123 70.7988 19.2664 71.1573 18.4631C71.5131 17.66 71.8633 16.8535 72.2053 16.0442C72.5472 15.2378 72.8532 14.4849 73.1209 13.7889V13.7883Z"
      fill="#303030" />
  </g>
  <defs>
    <radialGradient id="paint0_radial_20_28" cx="0" cy="0" r="1" gradientUnits="userSpaceOnUse"
      gradientTransform="translate(37.7948 27.1863) rotate(-0.401) scale(24.8786 25.7663)">
      <stop stop-color="#0080AA" />
      <stop offset="0.245" stop-color="#0076AD" />
      <stop offset="0.65" stop-color="#005DB5" />
      <stop offset="1" stop-color="#0042BF" />
    </radialGradient>
    <radialGradient id="paint1_radial_20_28" cx="0" cy="0" r="1" gradientUnits="userSpaceOnUse"
      gradientTransform="translate(26.9245 27.7847) rotate(-74.144) scale(24.7336 24.4101)">
      <stop stop-color="#0080AA" />
      <stop offset="0.245" stop-color="#0076AD" />
      <stop offset="0.65" stop-color="#005DB5" />
      <stop offset="1" stop-color="#0042BF" />
    </radialGradient>
    <clipPath id="clip0_20_28">
      <rect width="101" height="36" fill="white" transform="translate(62.3853 10.5)" />
    </clipPath>
  </defs>
</svg>
  