<svg width="613" height="138" viewBox="0 0 613 138" fill="none" xmlns="http://www.w3.org/2000/svg">
<path d="M158.603 4.31164C148.897 5.4006 138.055 8.43075 130.953 12.0764C120.489 17.4265 112.441 25.8067 107.469 36.6016C104.487 43.1354 103.208 47.9647 105.339 44.6505C105.812 43.9403 107.706 41.5256 109.553 39.3477C117.412 29.9732 128.633 22.4452 140.612 18.4208C145.772 16.7163 153.016 15.0592 153.442 15.5327C153.679 15.7694 159.739 65.7668 160.165 70.9275C160.26 71.9218 159.739 72.2058 155.052 73.8156C148.282 76.1356 145.725 77.2245 141.085 79.5445C124.845 87.688 113.908 98.9563 108.606 112.923C107.422 116.096 105.007 125.044 105.244 125.328C105.339 125.375 106.617 123.055 108.085 120.12C111.257 113.87 113.719 110.461 118.69 105.49C130.337 93.7483 148.14 86.457 171.386 83.9003L174.464 83.5689L174.322 81.675C174.133 79.6865 164.521 8.05198 164.048 5.30591C163.858 4.2643 163.527 3.79084 162.959 3.83818C162.533 3.88553 160.544 4.07491 158.603 4.31164Z" fill="url(#paint0_linear_404_357)"/>
<path d="M32.4264 17.2842C30.1064 17.6629 27.8812 18.0417 27.5024 18.0891C26.9343 18.1838 25.4192 27.7003 20.5425 60.8425C17.0863 84.2788 14.3402 103.501 14.3876 103.549C14.4349 103.596 16.9443 103.359 19.9271 102.98C27.8812 101.939 42.7005 101.56 49.4708 102.223C63.864 103.643 75.227 107.431 85.4537 114.201C89.0994 116.616 98.0478 125.044 101.267 129.021C102.688 130.82 102.688 130.725 100.652 126.654C89.2414 103.454 69.7349 92.2329 37.0663 90.1971C32.237 89.8656 31.7162 89.7709 31.7162 88.9187C31.7162 88.4453 33.4207 74.3835 35.5039 57.765C37.5871 41.1466 39.2916 27.4162 39.2916 27.2742C39.2916 26.706 52.4536 27.0375 57.2829 27.653C72.1969 29.6415 85.9746 35.5597 97.3376 44.7922C98.8053 45.9759 100.036 46.8754 100.131 46.7808C100.226 46.6861 98.5686 44.5081 96.3907 41.9041C85.8325 29.0733 73.7593 21.3559 59.1767 17.8997C53.7319 16.6213 38.6287 16.2899 32.4264 17.2842Z" fill="url(#paint1_linear_404_357)"/>
<path d="M170.25 18.0426C170.44 19.0842 179.435 89.7718 179.435 90.1506C179.435 90.2452 176.169 90.4346 172.239 90.624C155.81 91.3816 144.92 93.7489 134.22 98.9096C121.768 104.875 111.731 115.291 106.523 127.601L105.528 129.969L110.405 125.139C116.513 119.126 117.696 118.132 122.526 114.913C132.942 107.905 145.299 103.739 160.024 102.224C166.652 101.514 180.382 101.892 187.91 102.981C190.846 103.407 193.308 103.692 193.355 103.597C193.45 103.502 190.656 84.3743 187.2 61.0801C183.744 37.7858 180.903 18.5634 180.856 18.4213C180.856 17.9952 178.82 17.6164 174.133 17.2377L170.061 16.9062L170.25 18.0426Z" fill="url(#paint2_linear_404_357)"/>
<path d="M187.674 35.1339C188.194 37.4065 197.048 110.367 196.859 110.556C196.764 110.651 194.681 110.367 192.219 109.846C181.519 107.668 177.636 107.289 165.705 107.289C156.615 107.242 153.158 107.431 149.749 108.094C137.818 110.367 128.207 114.438 119.495 120.878C116.276 123.245 107.469 131.814 107.469 132.572C107.469 132.809 108.89 132.004 110.689 130.82C114.477 128.264 121.531 124.665 126.171 122.961C146.341 115.433 170.771 116.001 198.09 124.571C201.404 125.612 204.245 126.417 204.292 126.322C204.434 126.18 192.645 41.0521 191.982 37.6432C191.793 36.6016 191.225 35.9388 189.852 35.1339C188.857 34.5657 187.863 34.0923 187.721 34.0923C187.579 34.0923 187.579 34.5657 187.674 35.1339Z" fill="url(#paint3_linear_404_357)"/>
<path d="M17.7961 36.4597C16.2811 37.2173 14.8607 37.9748 14.624 38.2115C14.4346 38.4009 12.446 50.0954 10.2208 64.1571C7.99552 78.2189 4.77599 98.341 3.11888 108.899C1.41442 119.41 0.136075 128.122 0.230767 128.216C0.32546 128.311 3.21357 127.411 6.71717 126.18C14.5293 123.482 23.5724 121.067 31.0057 119.741C39.0545 118.321 54.4891 117.942 62.0171 119.031C75.132 120.925 86.8738 125.328 97.574 132.383C99.7519 133.803 101.551 134.939 101.646 134.939C102.214 134.939 96.8165 128.737 93.5022 125.518C81.8551 114.344 67.6513 108.946 46.6772 107.763C38.6757 107.337 22.8622 108.804 12.6828 110.935C10.8836 111.314 9.46324 111.456 9.46324 111.219C9.46324 111.03 12.1146 93.9851 15.3815 73.3896C18.6484 52.7941 21.2997 35.7022 21.2997 35.4655C21.2997 34.85 20.921 34.9447 17.7961 36.4597Z" fill="url(#paint4_linear_404_357)"/>
<mask id="mask0_404_357" style="mask-type:luminance" maskUnits="userSpaceOnUse" x="228" y="0" width="385" height="138">
<path d="M612.26 0.95752H228.293V137.817H612.26V0.95752Z" fill="white"/>
</mask>
<g mask="url(#mask0_404_357)">
<path d="M529.384 135.536C529.004 135.536 528.243 135.536 527.103 135.536C525.962 135.536 525.202 135.536 524.822 135.536C524.442 135.536 523.681 135.536 522.541 135.536C521.4 135.536 520.64 135.536 520.26 135.536V91.4369C516.838 91.4369 513.037 91.817 508.475 92.5773C508.855 91.0567 508.855 89.9162 508.855 89.536C508.855 89.1559 508.855 88.0154 508.475 86.4947H540.789C540.789 86.8749 540.789 87.255 540.789 87.6352C540.789 88.0154 540.789 88.3955 540.789 88.7757C540.789 89.1559 540.789 89.536 540.789 89.536C540.789 89.536 540.789 89.9162 540.789 90.2964C540.789 90.6765 540.789 91.0567 540.789 91.4369C540.789 91.817 540.789 92.1972 540.789 92.5773C535.846 91.817 532.045 91.4369 529.384 91.4369V135.536ZM463.615 86.1145C464.375 86.1145 464.756 86.1145 465.516 86.4947C465.896 86.4947 466.656 86.4947 467.037 86.4947C467.417 86.4947 468.177 86.4947 468.177 86.4947C468.177 86.4947 468.937 86.4947 469.698 86.4947C470.078 86.4947 470.838 86.4947 471.218 86.4947C471.599 86.4947 472.359 86.4947 473.119 86.1145V119.949C475.02 117.668 476.921 115.007 479.202 111.966C481.483 108.924 483.384 106.263 485.665 103.222C487.566 100.181 489.847 97.5195 491.747 94.4782C493.648 91.4368 495.549 88.7757 497.07 86.1145C497.45 86.1145 498.21 86.1145 498.97 86.1145C500.111 86.1145 501.251 86.1145 501.632 86.1145V135.536C501.251 135.536 500.491 135.536 499.351 135.536C498.21 135.536 497.45 135.536 497.07 135.536C496.689 135.536 495.929 135.536 494.789 135.536C493.648 135.536 492.888 135.536 492.508 135.536V101.701C490.607 103.982 488.706 106.643 486.805 109.305C484.904 111.966 482.623 115.007 480.342 118.429C478.061 121.85 475.78 124.891 473.88 127.933C471.979 130.974 470.078 133.635 468.557 135.916C468.177 135.916 467.417 135.916 466.656 135.916C465.516 135.916 464.375 135.916 463.995 135.916L463.615 86.1145ZM444.227 130.214C443.086 126.032 441.566 121.47 440.045 116.908C438.524 112.346 436.623 106.643 434.342 99.8005C429.78 113.106 426.359 122.991 424.078 130.214C425.218 130.214 426.359 130.214 428.26 130.214C430.161 130.214 432.061 130.214 433.582 130.214C435.103 130.214 437.004 130.214 439.285 130.214C441.566 130.214 443.086 130.214 444.227 130.214ZM419.136 129.834C421.037 124.891 422.557 121.09 423.318 118.048C424.458 115.007 425.599 111.586 427.119 107.784C428.64 103.602 429.78 99.8005 431.301 95.9988C432.442 92.1972 433.582 88.7757 434.723 85.7344C435.103 85.7344 435.483 85.7344 436.243 85.7344C436.623 85.7344 437.384 85.7344 437.384 85.7344C437.764 85.7344 438.144 85.7344 438.524 85.7344C438.904 85.7344 439.665 85.7344 440.045 85.7344C444.227 98.66 449.169 113.486 454.871 129.453H457.913C457.532 131.734 457.532 132.875 457.532 133.255C457.532 134.396 457.532 135.916 457.913 137.057H456.772C456.012 135.916 454.871 135.156 452.97 135.156C451.07 134.776 449.169 134.776 446.508 134.776H427.88C425.218 134.776 422.937 134.776 421.037 135.156C419.136 135.536 417.995 136.296 417.235 137.057H416.094C416.475 135.916 416.475 134.776 416.475 133.255C416.475 132.115 416.475 130.974 416.094 129.453L419.136 129.834ZM396.326 122.23C395.566 120.329 394.045 117.668 392.524 114.247C391.004 110.825 389.103 107.784 387.202 104.362C385.301 100.941 383.4 97.5195 381.499 94.098C379.599 90.6765 378.458 88.0154 377.318 86.1145C378.078 86.1145 378.838 86.1145 379.599 86.1145C380.359 86.1145 380.739 86.1145 381.499 86.1145C382.26 86.1145 382.64 86.1145 383.02 86.1145C383.4 86.1145 383.78 86.1145 384.541 86.1145C385.301 86.1145 385.681 86.1145 386.442 86.1145C387.202 86.1145 387.962 86.1145 388.723 85.7344C389.103 86.8749 390.243 89.1559 392.144 92.5773C393.665 95.9988 395.566 99.4203 397.466 102.842C399.367 106.263 400.508 108.924 401.268 110.445C402.028 109.305 402.409 107.784 403.549 105.883C404.689 103.982 405.45 101.701 406.59 99.0402C407.731 96.379 408.491 93.7178 409.632 91.4369C410.392 89.1559 411.152 87.255 411.913 86.1145C413.053 86.1145 413.813 86.4947 414.954 86.4947C415.714 86.4947 416.855 86.4947 417.995 86.1145C416.475 89.536 413.813 94.4782 410.772 101.321C407.731 108.164 404.689 114.627 402.028 121.09C399.367 127.553 397.466 132.115 396.326 135.156C396.326 135.156 395.566 135.156 395.185 135.156C394.425 135.156 394.045 135.156 393.665 135.156C393.285 135.156 392.904 135.156 392.144 135.156C391.384 135.156 391.004 135.156 391.004 135.156C391.764 133.635 392.904 131.354 394.045 128.693C394.805 126.032 395.566 124.131 396.326 122.23ZM358.69 110.065C360.59 110.065 361.731 109.685 362.871 109.685C364.772 108.924 366.293 107.784 367.053 106.263C367.813 104.362 368.574 102.462 368.574 100.181C368.574 97.5195 368.194 95.2385 367.053 93.3377C365.913 91.4369 364.392 90.6765 362.871 90.6765H359.07C358.69 90.2964 358.69 110.065 358.69 110.065ZM358.69 135.536C358.309 135.536 357.549 135.536 356.408 135.536C355.268 135.536 354.508 135.536 354.128 135.536C353.747 135.536 352.987 135.536 351.847 135.536C350.706 135.536 349.946 135.536 349.566 135.536V86.1145H365.152C369.714 86.1145 372.756 87.255 375.037 89.1559C377.318 91.0567 378.458 94.098 378.458 98.2798C378.458 102.462 377.698 105.503 376.177 107.784C374.656 110.065 372.375 111.586 369.334 112.346C366.673 113.106 362.871 113.486 359.07 113.486L358.69 135.536ZM317.251 111.966C314.59 111.966 311.929 111.966 309.648 112.726C309.648 112.346 309.648 111.966 309.648 111.205C309.648 110.445 309.648 110.065 309.648 109.685C309.648 109.305 309.648 108.924 309.648 108.164C309.648 107.404 309.648 107.024 309.648 106.643C313.07 107.024 315.731 107.404 317.251 107.404H331.318C330.937 105.123 330.557 102.842 329.797 100.561C329.037 98.2798 328.276 96.7592 327.136 94.8583C325.995 93.3377 324.475 91.817 322.954 91.0567C321.433 90.2964 319.152 89.536 317.251 89.536C315.351 89.536 313.45 90.2964 311.549 91.4369C309.648 92.5773 308.128 94.098 306.987 96.379H306.227C305.847 95.2385 305.847 94.098 305.466 92.5773C305.086 91.0567 305.086 89.9162 304.706 89.1559C306.607 88.0154 308.508 87.255 310.789 86.4947C313.07 85.7344 315.351 85.7344 317.632 85.7344C321.053 85.7344 324.475 86.1145 327.516 87.255C330.557 88.3955 333.218 89.9162 335.499 92.1972C337.78 94.4782 339.681 97.1393 340.822 100.941C341.962 104.362 342.723 108.544 342.723 113.106C342.723 116.908 341.962 119.949 340.822 122.991C339.681 126.032 338.161 128.693 335.88 130.594C333.599 132.875 331.318 134.396 328.276 135.536C325.235 136.677 322.194 137.057 318.772 137.057C313.83 137.057 310.028 135.916 306.227 134.015L304.706 127.933L305.466 127.553C306.987 129.073 308.508 130.594 310.789 131.354C312.689 132.495 314.971 132.875 316.871 132.875C319.913 132.875 322.574 132.115 324.855 130.214C327.136 128.693 328.656 126.032 330.177 122.991C331.318 119.949 332.078 116.528 332.078 112.346L317.251 111.966ZM579.946 0.95752C583.747 5.5195 588.309 7.80049 593.251 7.80049C598.194 7.80049 602.756 5.5195 606.557 0.95752L608.838 4.75917C607.318 6.27983 605.797 7.80049 603.896 8.94099C601.995 10.0815 600.855 10.8418 598.954 11.6021C597.053 12.3625 595.152 12.3625 593.251 12.3625C590.59 12.3625 587.549 11.6021 584.888 10.4617C582.227 9.32116 579.946 7.42033 577.665 4.75917L579.946 0.95752ZM574.243 13.503C575.004 13.503 575.384 13.503 576.144 13.8831C576.524 13.8831 577.285 13.8831 577.665 13.8831C578.045 13.8831 578.805 13.8831 578.805 13.8831C578.805 13.8831 579.566 13.8831 580.326 13.8831C580.706 13.8831 581.466 13.8831 581.847 13.8831C582.227 13.8831 582.987 13.8831 583.747 13.503V47.3377C585.648 45.0567 587.549 42.3955 589.83 39.3542C592.111 36.3129 594.012 33.6517 596.293 30.6104C598.194 27.5691 600.475 24.9079 602.375 21.8666C604.276 18.8253 606.177 15.784 607.698 13.503C608.078 13.503 608.838 13.503 609.599 13.503C610.739 13.503 611.88 13.503 612.26 13.503V62.9245C611.88 62.9245 611.119 62.9245 609.979 62.9245C608.838 62.9245 608.078 62.9245 607.698 62.9245C607.318 62.9245 606.557 62.9245 605.417 62.9245C604.276 62.9245 603.516 62.9245 603.136 62.9245V28.7096C601.235 30.9906 599.334 33.6517 597.433 36.3129C595.532 38.974 593.251 42.0154 590.97 45.4369C588.689 48.8583 586.408 51.8997 584.508 54.941C582.607 57.9823 580.706 60.6435 579.185 62.9245C578.805 62.9245 578.045 62.9245 577.285 62.9245C576.144 62.9245 575.004 62.9245 574.623 62.9245V13.503C574.243 13.503 574.243 13.503 574.243 13.503ZM525.202 13.503C525.962 13.503 526.342 13.503 527.103 13.8831C527.483 13.8831 528.243 13.8831 528.623 13.8831C529.004 13.8831 529.764 13.8831 529.764 13.8831C529.764 13.8831 530.524 13.8831 531.285 13.8831C531.665 13.8831 532.425 13.8831 532.805 13.8831C533.185 13.8831 533.946 13.8831 534.706 13.503V47.3377C536.607 45.0567 538.508 42.3955 540.789 39.3542C543.07 36.3129 544.97 33.6517 547.251 30.6104C549.152 27.5691 551.433 24.9079 553.334 21.8666C555.235 18.8253 557.136 15.784 558.656 13.503C559.037 13.503 559.797 13.503 560.557 13.503C561.698 13.503 562.838 13.503 563.218 13.503V62.9245C562.838 62.9245 562.078 62.9245 560.937 62.9245C559.797 62.9245 559.037 62.9245 558.656 62.9245C558.276 62.9245 557.516 62.9245 556.375 62.9245C555.235 62.9245 554.475 62.9245 554.094 62.9245V28.7096C552.194 30.9906 550.293 33.6517 548.392 36.3129C546.491 38.974 544.21 42.0154 541.929 45.4369C539.648 48.8583 537.367 51.8997 535.466 54.941C533.566 57.9823 531.665 60.6435 530.144 62.9245C529.764 62.9245 529.004 62.9245 528.243 62.9245C527.103 62.9245 525.962 62.9245 525.582 62.9245C525.202 62.5443 525.202 13.503 525.202 13.503ZM486.805 13.503C487.185 13.503 487.566 13.503 488.706 13.8831C489.847 13.8831 490.607 14.2633 491.367 14.2633C491.747 14.2633 492.128 14.2633 492.888 14.2633C493.268 14.2633 494.028 14.2633 494.408 14.2633C494.789 14.2633 495.549 14.2633 496.309 13.8831V36.3129C502.012 29.0898 507.334 21.4864 512.656 13.8831C513.037 13.8831 513.417 13.8831 513.797 14.2633C514.177 14.2633 514.557 14.2633 514.937 14.2633C515.318 14.2633 515.698 14.2633 516.078 14.2633C516.458 14.2633 517.218 14.2633 517.979 13.8831C518.739 13.8831 519.499 13.503 519.499 13.503V13.8831C516.458 16.9245 513.797 20.3459 510.375 24.5278C507.334 28.3294 504.673 31.3707 503.152 34.0319L520.64 61.784V62.5443C520.26 62.5443 519.119 62.5443 517.979 62.5443C516.838 62.5443 515.698 62.5443 515.318 62.5443C514.937 62.5443 513.797 62.5443 512.656 62.5443C511.516 62.5443 510.375 62.5443 509.995 62.5443L496.309 39.7344V62.5443C495.929 62.5443 494.789 62.5443 494.028 62.5443C492.888 62.5443 492.128 62.5443 491.747 62.5443C491.367 62.5443 490.607 62.5443 489.466 62.5443C488.326 62.5443 487.566 62.5443 487.185 62.5443L486.805 13.503ZM460.574 58.3625C462.475 58.3625 463.615 58.3625 464.756 57.9823C466.656 57.222 468.177 56.0815 468.937 54.5608C469.698 52.66 470.458 50.7592 470.458 48.4782C470.458 45.817 470.078 43.536 468.937 41.6352C467.797 39.7344 466.276 38.974 464.756 38.974H460.954C460.574 38.5939 460.574 58.3625 460.574 58.3625ZM460.574 34.4121H466.656C471.218 34.4121 474.26 35.5526 476.541 37.4534C478.822 39.3542 479.962 42.3955 479.962 46.5774C479.962 52.2798 478.442 56.4616 475.4 58.7426C472.359 61.0236 468.557 62.1641 463.615 62.1641H451.07V13.1228C451.45 13.1228 452.21 13.1228 453.351 13.1228C454.491 13.1228 455.251 13.1228 455.632 13.1228C456.392 13.1228 457.152 13.1228 457.913 13.1228C459.053 13.1228 459.813 13.1228 460.194 13.1228L460.574 34.4121ZM402.789 13.503C403.549 13.503 403.929 13.503 404.69 13.8831C405.07 13.8831 405.83 13.8831 406.21 13.8831C406.59 13.8831 407.351 13.8831 407.351 13.8831C407.351 13.8831 408.111 13.8831 408.871 13.8831C409.251 13.8831 410.012 13.8831 410.392 13.8831C410.772 13.8831 411.532 13.8831 412.293 13.503V32.8914C417.615 33.2716 420.656 33.2716 421.797 33.2716C422.937 33.2716 425.979 33.2716 431.301 32.8914V13.503C432.061 13.503 432.442 13.503 433.202 13.8831C433.582 13.8831 434.342 13.8831 434.723 13.8831C435.103 13.8831 435.863 13.8831 435.863 13.8831C436.243 13.8831 436.623 13.8831 437.384 13.8831C437.764 13.8831 438.524 13.8831 438.904 13.8831C439.285 13.8831 440.045 13.8831 440.805 13.8831V62.9245C440.425 62.9245 439.665 62.9245 438.524 62.9245C437.384 62.9245 436.623 62.9245 436.243 62.9245C435.863 62.9245 435.103 62.9245 433.962 62.9245C432.822 62.9245 432.061 62.9245 431.681 62.9245V38.974C427.499 38.5939 424.078 38.5939 422.177 38.5939C419.896 38.5939 416.855 38.5939 412.673 38.974V62.9245C412.293 62.9245 411.152 62.9245 410.392 62.9245C409.251 62.9245 408.491 62.9245 408.111 62.9245C407.731 62.9245 406.97 62.9245 405.83 62.9245C404.689 62.9245 403.929 62.9245 403.549 62.9245C402.789 62.5443 402.789 13.503 402.789 13.503ZM394.805 13.503C394.425 15.4038 394.425 16.1641 394.425 16.5443C394.425 16.9245 394.425 17.6848 394.805 19.5856C390.243 18.8253 385.681 18.4451 380.359 18.4451V34.0319H386.822C388.723 34.0319 391.004 33.6517 394.425 33.2716C394.045 34.7922 394.045 35.9327 394.045 36.3129C394.045 36.6931 394.045 37.8336 394.425 39.3542C392.144 38.974 389.483 38.5939 386.822 38.5939H380.359V57.222C385.681 57.222 390.623 56.8418 394.805 56.0815C394.425 57.9823 394.425 58.7426 394.425 59.1228C394.425 59.503 394.425 60.6435 394.805 62.1641H370.855V13.503H394.805ZM345.384 13.503C345.384 13.503 345.764 13.503 346.144 13.503C346.524 13.503 346.524 13.503 346.904 13.503C347.285 13.503 347.285 13.503 347.665 13.503C348.045 13.503 348.045 13.503 348.425 13.503C349.946 17.6848 351.086 21.8666 352.227 24.9079C353.367 28.3294 354.888 32.5112 356.408 37.0732C357.929 42.0154 359.45 45.817 360.21 48.4782C361.351 51.1393 362.871 55.7013 365.152 62.5443C364.392 62.5443 363.632 62.5443 362.871 62.1641C362.111 62.1641 361.731 62.1641 360.97 62.1641C360.21 62.1641 359.83 62.1641 359.45 62.1641C359.07 62.1641 358.689 62.1641 357.929 62.1641C357.169 62.1641 356.789 62.1641 356.028 62.1641C355.268 62.1641 354.888 62.1641 354.128 62.1641C353.367 59.503 352.607 56.4617 351.847 53.8005C351.086 50.7592 350.326 48.098 349.566 46.1972C348.805 43.9162 347.665 40.8749 346.524 37.0732C345.384 33.2716 344.243 29.8501 343.103 26.8088C338.161 40.8749 333.979 52.66 331.318 62.5443C330.177 62.5443 329.417 62.1641 328.276 62.1641C327.136 62.1641 326.375 62.1641 325.235 62.5443C327.136 57.9823 328.656 53.4203 330.177 49.6187C331.698 45.817 333.218 41.6352 334.359 37.8335C335.88 34.0319 337.02 30.2302 338.541 26.0484C340.061 21.8666 341.202 17.6848 342.723 13.503C342.723 13.503 343.103 13.503 343.863 13.503C344.243 13.503 345.004 13.503 345.384 13.503ZM306.607 43.1559L300.904 26.4286L294.822 43.1559H306.607ZM293.301 47.7178C292.921 48.8583 292.541 50.7592 291.78 52.66C291.02 54.941 290.64 56.4616 290.26 58.3625C289.88 59.8831 289.499 61.4038 289.119 62.5443C288.739 62.5443 288.359 62.5443 287.599 62.5443C286.838 62.5443 286.458 62.5443 286.078 62.5443C285.698 62.5443 285.318 62.5443 284.557 62.5443C283.797 62.5443 283.417 62.5443 283.037 62.5443L300.904 12.7426C301.665 12.7426 302.425 13.1228 303.185 13.1228C303.946 13.1228 304.706 13.1228 305.466 12.7426L323.334 62.5443C322.574 62.5443 321.813 62.5443 320.673 62.5443C319.532 62.5443 318.392 62.5443 318.012 62.5443C317.251 62.5443 316.491 62.5443 315.351 62.5443C314.21 62.5443 313.45 62.5443 312.689 62.5443C310.789 55.7013 309.268 50.7592 308.128 47.7178H293.301ZM268.97 13.503C268.97 13.503 269.351 13.503 270.111 13.8831C270.871 13.8831 271.251 14.2633 271.632 14.2633C272.012 14.2633 272.012 14.2633 272.392 14.2633C272.772 14.2633 273.152 14.2633 273.152 14.2633C273.532 14.2633 273.913 14.2633 274.293 14.2633C274.673 19.5856 275.433 24.9079 275.813 30.6104C276.194 36.3129 276.954 40.4947 276.954 42.7757C276.954 45.0567 277.714 48.4782 278.094 52.2798C278.475 56.0815 279.235 59.8831 279.615 63.3046C278.855 63.3046 278.094 63.3046 276.954 63.3046C275.813 63.3046 275.053 63.3046 274.293 63.3046C273.532 63.3046 272.772 63.3046 271.632 63.3046C270.491 63.3046 269.731 63.3046 268.97 63.3046C268.97 60.6435 268.59 57.9823 268.59 54.941C268.21 51.8997 268.21 49.2385 267.83 46.9575C267.45 44.6765 267.45 42.0154 267.07 39.7344C266.689 37.0732 266.689 34.0319 266.309 30.2302C265.549 32.1311 264.409 34.7922 262.888 37.8335C261.367 41.255 260.227 43.9162 259.086 46.5774C257.946 48.8583 256.805 51.8997 255.285 55.3212C253.764 58.7426 252.623 61.4038 252.243 63.3046H249.962C249.202 61.784 248.061 59.1228 246.921 55.7013C245.4 52.2798 244.26 49.6187 243.499 47.7178C242.739 45.817 241.599 43.1559 239.698 39.3542C238.177 35.5526 237.037 32.8914 236.276 30.9906C234.756 45.0567 233.615 56.0815 233.615 63.6848C233.235 63.6848 232.855 63.6848 232.094 63.6848C231.334 63.6848 230.954 63.6848 230.574 63.6848C230.194 63.6848 229.813 63.6848 229.053 63.6848C228.293 63.6848 227.913 63.6848 227.532 63.6848C228.673 57.222 229.433 50.379 230.574 43.1559C231.334 35.9327 232.475 26.4286 233.995 14.6435C234.375 14.6435 234.756 14.6435 235.136 14.6435C235.516 14.6435 235.516 14.6435 235.896 14.6435C236.276 14.6435 236.276 14.6435 236.656 14.6435C237.037 14.6435 237.037 14.6435 237.417 14.6435C237.797 14.6435 238.177 14.6435 238.177 14.6435C238.557 14.6435 238.557 14.6435 238.937 14.6435C240.458 18.065 241.599 20.7261 242.359 23.0071C243.119 24.9079 244.26 27.5691 245.78 30.9906C247.301 34.4121 248.442 37.4534 249.962 40.4947C251.103 43.536 252.623 46.1972 253.384 48.8583C253.764 48.098 254.524 46.1972 256.045 42.7757C257.566 39.3542 259.086 35.9327 260.607 32.8914C262.128 29.8501 263.268 26.8088 264.409 23.7674C267.07 18.8253 268.21 16.1641 268.97 13.503Z" fill="#303030"/>
</g>
<defs>
<linearGradient id="paint0_linear_404_357" x1="103.747" y1="63.5633" x2="174.523" y2="63.5633" gradientUnits="userSpaceOnUse">
<stop stop-color="#CE02CF"/>
<stop offset="1" stop-color="#FFE5B4"/>
</linearGradient>
<linearGradient id="paint1_linear_404_357" x1="13.7186" y1="72.4696" x2="102.34" y2="72.4696" gradientUnits="userSpaceOnUse">
<stop stop-color="#CE02CF"/>
<stop offset="1" stop-color="#FFE5B4"/>
</linearGradient>
<linearGradient id="paint2_linear_404_357" x1="104.86" y1="72.4896" x2="193.432" y2="72.4896" gradientUnits="userSpaceOnUse">
<stop stop-color="#CE02CF"/>
<stop offset="1" stop-color="#FFE5B4"/>
</linearGradient>
<linearGradient id="paint3_linear_404_357" x1="106.733" y1="82.5269" x2="204.375" y2="82.5269" gradientUnits="userSpaceOnUse">
<stop stop-color="#CE02CF"/>
<stop offset="1" stop-color="#FFE5B4"/>
</linearGradient>
<linearGradient id="paint4_linear_404_357" x1="-0.545783" y1="84.1878" x2="101.773" y2="84.1878" gradientUnits="userSpaceOnUse">
<stop stop-color="#CE02CF"/>
<stop offset="1" stop-color="#FFE5B4"/>
</linearGradient>
</defs>
</svg>
