<svg height="100%" stroke-miterlimit="10"
    style="fill-rule:nonzero;clip-rule:evenodd;stroke-linecap:round;stroke-linejoin:round;"
    version="1.1" viewBox="0 0 431.013 276.907" width="100%" xml:space="preserve"
    xmlns="http://www.w3.org/2000/svg" xmlns:vectornator="http://vectornator.io"
    xmlns:xlink="http://www.w3.org/1999/xlink">
<defs>
<linearGradient gradientTransform="matrix(148.235 0 0 148.235 219.776 128.304)" gradientUnits="userSpaceOnUse" id="LinearGradient" x1="0" x2="1" y1="0" y2="0">
<stop offset="0" stop-color="#ce02cf"/>
<stop offset="1" stop-color="#0ed0f8"/>
</linearGradient>
<linearGradient gradientTransform="matrix(185.611 0 0 185.611 29.9091 146.973)" gradientUnits="userSpaceOnUse" id="LinearGradient_2" x1="0" x2="1" y1="0" y2="0">
<stop offset="0" stop-color="#ce02cf"/>
<stop offset="1" stop-color="#0ed0f8"/>
</linearGradient>
<linearGradient gradientTransform="matrix(185.505 0 0 185.505 222.41 147.007)" gradientUnits="userSpaceOnUse" id="LinearGradient_3" x1="0" x2="1" y1="0" y2="0">
<stop offset="0" stop-color="#ce02cf"/>
<stop offset="1" stop-color="#0ed0f8"/>
</linearGradient>
<linearGradient gradientTransform="matrix(204.503 0 0 204.503 226.51 167.951)" gradientUnits="userSpaceOnUse" id="LinearGradient_4" x1="0" x2="1" y1="0" y2="0">
<stop offset="0" stop-color="#ce02cf"/>
<stop offset="1" stop-color="#0ed0f8"/>
</linearGradient>
<linearGradient gradientTransform="matrix(214.298 0 0 214.298 -2.83302e-05 171.481)" gradientUnits="userSpaceOnUse" id="LinearGradient_5" x1="0" x2="1" y1="0" y2="0">
<stop offset="0" stop-color="#ce02cf"/>
<stop offset="1" stop-color="#0ed0f8"/>
</linearGradient>
</defs>
<clipPath id="ArtboardFrame">
<rect height="276.907" width="431.013" x="0" y="0"/>
</clipPath>
<g clip-path="url(#ArtboardFrame)" id="Layer" vectornator:layerName="Layer">
<g opacity="1" vectornator:layerName="g">
<path d="M334.51 1.007C314.01 3.307 291.11 9.707 276.11 17.407C254.01 28.707 237.01 46.407 226.51 69.207C220.21 83.007 217.51 93.207 222.01 86.207C223.01 84.707 227.01 79.607 230.91 75.007C247.51 55.207 271.21 39.307 296.51 30.807C307.41 27.207 322.71 23.707 323.61 24.707C324.11 25.207 336.91 130.807 337.81 141.707C338.01 143.807 336.91 144.407 327.01 147.807C312.71 152.707 307.31 155.007 297.51 159.907C263.21 177.107 240.11 200.907 228.91 230.407C226.41 237.107 221.31 256.007 221.81 256.607C222.01 256.707 224.71 251.807 227.81 245.607C234.51 232.407 239.71 225.207 250.21 214.707C274.81 189.907 312.41 174.507 361.51 169.107L368.01 168.407L367.71 164.407C367.31 160.207 347.01 8.907 346.01 3.107C345.61 0.907 344.91-0.093 343.71 0.007C342.81 0.107 338.61 0.507 334.51 1.007Z" fill="url(#LinearGradient)" fill-rule="nonzero" opacity="1" stroke="none" vectornator:layerName="path"/>
<path d="M68.0104 28.407C63.1104 29.207 58.4104 30.007 57.6104 30.107C56.4104 30.307 53.2104 50.407 42.9104 120.407C35.6104 169.907 29.8104 210.507 29.9104 210.607C30.0104 210.707 35.3104 210.207 41.6104 209.407C58.4104 207.207 89.7104 206.407 104.01 207.807C134.41 210.807 158.41 218.807 180.01 233.107C187.71 238.207 206.61 256.007 213.41 264.407C216.41 268.207 216.41 268.007 212.11 259.407C188.01 210.407 146.81 186.707 77.8104 182.407C67.6104 181.707 66.5104 181.507 66.5104 179.707C66.5104 178.707 70.1104 149.007 74.5104 113.907C78.9104 78.807 82.5104 49.807 82.5104 49.507C82.5104 48.307 110.31 49.007 120.51 50.307C152.01 54.507 181.11 67.007 205.11 86.507C208.21 89.007 210.81 90.907 211.01 90.707C211.21 90.507 207.71 85.907 203.11 80.407C180.81 53.307 155.31 37.007 124.51 29.707C113.01 27.007 81.1104 26.307 68.0104 28.407Z" fill="url(#LinearGradient_2)" fill-rule="nonzero" opacity="1" stroke="none" vectornator:layerName="path"/>
<path d="M359.11 30.007C359.51 32.207 378.51 181.507 378.51 182.307C378.51 182.507 371.61 182.907 363.31 183.307C328.61 184.907 305.61 189.907 283.01 200.807C256.71 213.407 235.51 235.407 224.51 261.407L222.41 266.407L232.71 256.207C245.61 243.507 248.11 241.407 258.31 234.607C280.31 219.807 306.41 211.007 337.51 207.807C351.51 206.307 380.51 207.107 396.41 209.407C402.61 210.307 407.81 210.907 407.91 210.707C408.11 210.507 402.21 170.107 394.91 120.907C387.61 71.707 381.61 31.107 381.51 30.807C381.51 29.907 377.21 29.107 367.31 28.307L358.71 27.607L359.11 30.007Z" fill="url(#LinearGradient_3)" fill-rule="nonzero" opacity="1" stroke="none" vectornator:layerName="path"/>
<path d="M395.91 66.107C397.01 70.907 415.71 225.007 415.31 225.407C415.11 225.607 410.71 225.007 405.51 223.907C382.91 219.307 374.71 218.507 349.51 218.507C330.31 218.407 323.01 218.807 315.81 220.207C290.61 225.007 270.31 233.607 251.91 247.207C245.11 252.207 226.51 270.307 226.51 271.907C226.51 272.407 229.51 270.707 233.31 268.207C241.31 262.807 256.21 255.207 266.01 251.607C308.61 235.707 360.21 236.907 417.91 255.007C424.91 257.207 430.91 258.907 431.01 258.707C431.31 258.407 406.41 78.607 405.01 71.407C404.61 69.207 403.41 67.807 400.51 66.107C398.41 64.907 396.31 63.907 396.01 63.907C395.71 63.907 395.71 64.907 395.91 66.107Z" fill="url(#LinearGradient_4)" fill-rule="nonzero" opacity="1" stroke="none" vectornator:layerName="path"/>
<path d="M37.1104 68.907C33.9104 70.507 30.9104 72.107 30.4104 72.607C30.0104 73.007 25.8104 97.707 21.1104 127.407C16.4104 157.107 9.6104 199.607 6.1104 221.907C2.5104 244.107-0.1896 262.507 0.0104 262.707C0.2104 262.907 6.3104 261.007 13.7104 258.407C30.2104 252.707 49.3104 247.607 65.0104 244.807C82.0104 241.807 114.61 241.007 130.51 243.307C158.21 247.307 183.01 256.607 205.61 271.507C210.21 274.507 214.01 276.907 214.21 276.907C215.41 276.907 204.01 263.807 197.01 257.007C172.41 233.407 142.41 222.007 98.1104 219.507C81.2104 218.607 47.8104 221.707 26.3104 226.207C22.5104 227.007 19.5104 227.307 19.5104 226.807C19.5104 226.407 25.1104 190.407 32.0104 146.907C38.9104 103.407 44.5104 67.307 44.5104 66.807C44.5104 65.507 43.7104 65.707 37.1104 68.907Z" fill="url(#LinearGradient_5)" fill-rule="nonzero" opacity="1" stroke="none" vectornator:layerName="path"/>
</g>
</g>
</svg>