<svg width="330" height="211" viewBox="0 0 330 211" fill="none" xmlns="http://www.w3.org/2000/svg">
<g clip-path="url(#clip0_404_337)">
<mask id="mask0_404_337" style="mask-type:luminance" maskUnits="userSpaceOnUse" x="0" y="0" width="330" height="211">
<path d="M329.743 0H0.74292V211H329.743V0Z" fill="white"/>
</mask>
<g mask="url(#mask0_404_337)">
<path d="M256.08 0.767177C240.432 2.51975 222.952 7.39648 211.503 13.2638C194.633 21.8743 181.657 35.3615 173.642 52.7348C168.833 63.2503 166.772 71.0225 170.207 65.6886C170.97 64.5456 174.024 60.6595 177.001 57.1543C189.672 42.067 207.762 29.9513 227.074 23.4744C235.395 20.7313 247.073 18.0643 247.76 18.8263C248.142 19.2073 257.912 99.6733 258.599 107.979C258.752 109.579 257.912 110.036 250.356 112.627C239.44 116.361 235.318 118.113 227.838 121.847C201.656 134.953 184.023 153.089 175.474 175.567C173.566 180.673 169.673 195.074 170.055 195.531C170.207 195.608 172.268 191.874 174.634 187.15C179.749 177.091 183.718 171.605 191.733 163.604C210.51 144.707 239.211 132.972 276.69 128.857L281.652 128.324L281.423 125.276C281.117 122.076 265.622 6.78689 264.859 2.36735C264.553 0.690978 264.019 -0.0710106 263.103 0.00518824C262.416 0.0813871 259.21 0.386183 256.08 0.767177Z" fill="url(#paint0_linear_404_337)"/>
<path d="M52.6564 21.6456C48.9161 22.2552 45.3285 22.8648 44.7179 22.941C43.8019 23.0934 41.3593 38.4093 33.4971 91.7485C27.9249 129.467 23.4976 160.404 23.574 160.48C23.6503 160.556 27.6959 160.175 32.5048 159.566C45.3285 157.889 69.2204 157.28 80.1355 158.346C103.34 160.632 121.66 166.728 138.148 177.625C144.025 181.511 158.452 195.074 163.643 201.475C165.932 204.37 165.932 204.218 162.65 197.665C144.254 160.328 112.806 142.268 60.1369 138.992C52.3511 138.458 51.5114 138.306 51.5114 136.934C51.5114 136.172 54.2594 113.541 57.618 86.7956C60.9766 60.0498 63.7245 37.9522 63.7245 37.7236C63.7245 36.8092 84.9444 37.3426 92.7303 38.3331C116.775 41.5335 138.987 51.0584 157.307 65.9171C159.673 67.8221 161.658 69.2699 161.811 69.1175C161.963 68.9651 159.292 65.4599 155.78 61.269C138.758 40.6191 119.294 28.1987 95.7835 22.6362C87.0054 20.5788 62.6559 20.0454 52.6564 21.6456Z" fill="url(#paint1_linear_404_337)"/>
<path d="M274.858 22.8649C275.163 24.5413 289.666 138.306 289.666 138.916C289.666 139.068 284.4 139.373 278.064 139.678C251.577 140.897 234.021 144.707 216.77 153.013C196.694 162.614 180.512 179.377 172.115 199.189L170.512 202.999L178.375 195.227C188.221 185.549 190.13 183.949 197.916 178.768C214.709 167.49 234.631 160.785 258.37 158.346C269.057 157.204 291.193 157.813 303.33 159.566C308.062 160.251 312.032 160.709 312.108 160.556C312.261 160.404 307.757 129.62 302.185 92.1297C296.613 54.6398 292.033 23.7031 291.956 23.4745C291.956 22.7887 288.674 22.1791 281.117 21.5695L274.553 21.0361L274.858 22.8649Z" fill="url(#paint2_linear_404_337)"/>
<path d="M302.948 50.3727C303.788 54.0302 318.062 171.453 317.757 171.757C317.604 171.91 314.245 171.453 310.276 170.614C293.025 167.109 286.766 166.5 267.53 166.5C252.875 166.424 247.302 166.728 241.806 167.795C222.571 171.453 207.075 178.006 193.03 188.369C187.84 192.179 173.642 205.971 173.642 207.19C173.642 207.571 175.932 206.276 178.833 204.371C184.939 200.256 196.313 194.465 203.793 191.722C236.311 179.606 275.698 180.52 319.741 194.312C325.084 195.989 329.664 197.284 329.741 197.132C329.97 196.903 310.963 59.8975 309.894 54.4112C309.589 52.7348 308.673 51.668 306.459 50.3727C304.856 49.4583 303.254 48.6963 303.025 48.6963C302.796 48.6963 302.796 49.4583 302.948 50.3727Z" fill="url(#paint3_linear_404_337)"/>
<path d="M29.07 52.5065C26.6274 53.7256 24.3374 54.9448 23.9557 55.3258C23.6504 55.6306 20.4445 74.4517 16.8569 97.0828C13.2693 119.714 8.07873 152.098 5.40712 169.091C2.65918 186.007 0.598216 200.027 0.75088 200.18C0.903544 200.332 5.55978 198.884 11.2083 196.903C23.8031 192.56 38.3825 188.674 50.3666 186.54C63.343 184.254 88.2268 183.645 100.364 185.397C121.507 188.445 140.438 195.532 157.689 206.885C161.2 209.171 164.101 211 164.253 211C165.169 211 156.467 201.018 151.124 195.837C132.347 177.854 109.447 169.167 75.6324 167.262C62.7323 166.576 37.2375 168.938 20.8261 172.367C17.9255 172.977 15.6356 173.205 15.6356 172.824C15.6356 172.52 19.9102 145.088 25.1771 111.942C30.4439 78.7951 34.7185 51.2873 34.7185 50.9063C34.7185 49.9157 34.1079 50.0681 29.07 52.5065Z" fill="url(#paint4_linear_404_337)"/>
</g>
</g>
<defs>
<linearGradient id="paint0_linear_404_337" x1="167.641" y1="96.1271" x2="281.747" y2="96.1271" gradientUnits="userSpaceOnUse">
<stop stop-color="#CE02CF"/>
<stop offset="1" stop-color="#FFE5B4"/>
</linearGradient>
<linearGradient id="paint1_linear_404_337" x1="22.4955" y1="110.461" x2="165.372" y2="110.461" gradientUnits="userSpaceOnUse">
<stop stop-color="#CE02CF"/>
<stop offset="1" stop-color="#FFE5B4"/>
</linearGradient>
<linearGradient id="paint2_linear_404_337" x1="169.436" y1="110.492" x2="312.231" y2="110.492" gradientUnits="userSpaceOnUse">
<stop stop-color="#CE02CF"/>
<stop offset="1" stop-color="#FFE5B4"/>
</linearGradient>
<linearGradient id="paint3_linear_404_337" x1="172.455" y1="126.647" x2="329.874" y2="126.647" gradientUnits="userSpaceOnUse">
<stop stop-color="#CE02CF"/>
<stop offset="1" stop-color="#FFE5B4"/>
</linearGradient>
<linearGradient id="paint4_linear_404_337" x1="-0.501084" y1="129.32" x2="164.458" y2="129.32" gradientUnits="userSpaceOnUse">
<stop stop-color="#CE02CF"/>
<stop offset="1" stop-color="#FFE5B4"/>
</linearGradient>
<clipPath id="clip0_404_337">
<rect width="329" height="211" fill="white" transform="translate(0.74292)"/>
</clipPath>
</defs>
</svg>
