<svg width="803" height="100" viewBox="0 0 803 100" fill="none" xmlns="http://www.w3.org/2000/svg">
<g clip-path="url(#clip0_404_348)">
<path d="M120.751 0.363436C113.351 1.19368 105.084 3.50394 99.6695 6.28347C91.6919 10.3625 85.5553 16.7518 81.765 24.9821C79.4909 29.9636 78.5162 33.6456 80.1406 31.1187C80.5016 30.5773 81.9455 28.7363 83.3533 27.0758C89.3456 19.9284 97.9007 14.1889 107.033 11.1206C110.968 9.82106 116.491 8.55763 116.816 8.91861C116.996 9.0991 121.617 47.2184 121.942 51.153C122.014 51.9111 121.617 52.1277 118.043 53.355C112.881 55.1238 110.932 55.954 107.394 57.7228C95.0129 63.9316 86.6743 72.5229 82.6314 83.1718C81.7289 85.5903 79.8879 92.4128 80.0684 92.6294C80.1406 92.6655 81.1153 90.8967 82.2343 88.6586C84.6528 83.8937 86.5299 81.2947 90.3202 77.5044C99.2003 68.5522 112.773 62.9931 130.497 61.0438L132.843 60.7911L132.735 59.3472C132.591 57.8311 125.263 3.21516 124.902 1.12149C124.757 0.327338 124.505 -0.03364 124.072 0.00245783C123.747 0.0385556 122.231 0.182947 120.751 0.363436Z" fill="url(#paint0_linear_404_348)"/>
<path d="M24.5503 10.254C22.7816 10.5428 21.085 10.8316 20.7962 10.8677C20.363 10.9399 19.2079 18.1956 15.4898 43.464C12.8547 61.3324 10.761 75.9881 10.7971 76.0242C10.8332 76.0603 12.7464 75.8798 15.0205 75.591C21.085 74.7969 32.3836 74.5081 37.5454 75.0135C48.5191 76.0964 57.1826 78.9842 64.9797 84.1462C67.7592 85.9872 74.5817 92.4126 77.0364 95.4448C78.1193 96.8165 78.1193 96.7443 76.5671 93.6399C67.8675 75.952 52.9953 67.3968 28.0879 65.8446C24.406 65.5919 24.0089 65.5198 24.0089 64.87C24.0089 64.509 25.3084 53.788 26.8967 41.1177C28.485 28.4473 29.7845 17.979 29.7845 17.8707C29.7845 17.4375 39.8196 17.6902 43.5015 18.1595C54.8723 19.6756 65.3768 24.1878 74.0403 31.2269C75.1593 32.1293 76.0978 32.8152 76.17 32.743C76.2422 32.6708 74.9788 31.0103 73.3183 29.0249C65.2685 19.2424 56.0636 13.3585 44.9454 10.7233C40.7942 9.74867 29.2792 9.49599 24.5503 10.254Z" fill="url(#paint1_linear_404_348)"/>
<path d="M129.631 10.8322C129.775 11.6263 136.634 65.5203 136.634 65.8091C136.634 65.8813 134.143 66.0257 131.147 66.1701C118.621 66.7476 110.318 68.5525 102.16 72.4872C92.6665 77.0355 85.0137 84.977 81.043 94.3625L80.2849 96.1673L84.003 92.4854C88.6596 87.9009 89.562 87.1429 93.244 84.6882C101.186 79.3458 110.607 76.1692 121.833 75.014C126.887 74.4726 137.356 74.7614 143.095 75.5916C145.333 75.9165 147.21 76.1331 147.246 76.0609C147.319 75.9887 145.189 61.4052 142.554 43.6451C139.918 25.8849 137.753 11.2292 137.716 11.1209C137.716 10.7961 136.164 10.5073 132.591 10.2185L129.486 9.96582L129.631 10.8322Z" fill="url(#paint2_linear_404_348)"/>
<path d="M142.915 23.863C143.312 25.5957 150.062 81.2224 149.918 81.3668C149.846 81.439 148.257 81.2224 146.38 80.8253C138.222 79.1648 135.262 78.876 126.165 78.876C119.235 78.8399 116.6 78.9843 114 79.4897C104.904 81.2224 97.576 84.3268 90.934 89.2361C88.4793 91.041 81.7651 97.5747 81.7651 98.1522C81.7651 98.3327 82.8481 97.7191 84.2198 96.8166C87.1076 94.8673 92.4862 92.1239 96.0238 90.8244C111.401 85.0848 130.028 85.518 150.856 92.0517C153.383 92.8459 155.549 93.4595 155.585 93.3873C155.693 93.279 146.705 28.3752 146.2 25.7762C146.055 24.982 145.622 24.4767 144.575 23.863C143.817 23.4298 143.059 23.0688 142.951 23.0688C142.843 23.0688 142.843 23.4298 142.915 23.863Z" fill="url(#paint3_linear_404_348)"/>
<path d="M13.396 24.8739C12.2409 25.4515 11.158 26.029 10.9775 26.2095C10.8331 26.3539 9.31699 35.2701 7.6204 45.9911C5.9238 56.7121 3.46915 72.0537 2.20573 80.1035C0.906209 88.1172 -0.0684312 94.7592 0.0037644 94.8314C0.07596 94.9036 2.27792 94.2177 4.94916 93.2792C10.9053 91.2216 17.8 89.3806 23.4673 88.3699C29.6039 87.287 41.3717 86.9982 47.1112 87.8284C57.1103 89.2723 66.0626 92.6294 74.2207 98.008C75.8812 99.0909 77.2529 99.9573 77.3251 99.9573C77.7583 99.9573 73.6431 95.2285 71.1163 92.7738C62.2362 84.2547 51.4069 80.1396 35.4157 79.2372C29.3152 78.9123 17.2585 80.0313 9.49748 81.6557C8.12577 81.9445 7.04283 82.0528 7.04283 81.8723C7.04283 81.7279 9.06431 68.7327 11.5551 53.0302C14.0458 37.3276 16.0673 24.2963 16.0673 24.1158C16.0673 23.6466 15.7785 23.7188 13.396 24.8739Z" fill="url(#paint4_linear_404_348)"/>
<path d="M791.586 78.3789C791.086 78.3789 790.286 78.2789 789.286 78.1789C788.286 78.0789 787.486 78.0789 786.986 78.0789C786.486 78.0789 785.686 78.0789 784.686 78.1789C783.686 78.2789 782.886 78.2789 782.386 78.3789V35.5789C779.086 35.5789 775.286 35.8789 771.086 36.5789C771.286 34.9789 771.386 33.9789 771.386 33.5789C771.386 33.2789 771.286 32.2789 771.086 30.6789H802.486C802.386 31.0789 802.386 31.4789 802.286 31.7789C802.286 32.0789 802.186 32.3789 802.186 32.7789C802.186 33.0789 802.086 33.3789 802.086 33.5789C802.086 33.7789 802.086 34.0789 802.186 34.4789C802.186 34.8789 802.286 35.1789 802.286 35.4789C802.386 35.7789 802.386 36.1789 802.486 36.5789C797.686 35.8789 794.086 35.5789 791.586 35.5789V78.3789ZM727.786 30.5789C728.486 30.6789 729.086 30.6789 729.586 30.7789C730.086 30.8789 730.586 30.8789 731.086 30.9789C731.586 30.9789 731.986 31.0789 732.386 31.0789C732.686 31.0789 733.186 31.0789 733.686 30.9789C734.186 30.9789 734.686 30.8789 735.186 30.7789C735.686 30.6789 736.286 30.6789 736.986 30.5789V63.2789C738.886 60.9789 740.786 58.4789 742.986 55.6789C745.086 52.8789 747.086 50.0789 749.086 47.2789C750.986 44.4789 752.986 41.6789 754.986 38.6789C756.986 35.6789 758.686 32.9789 760.186 30.5789C760.586 30.5789 761.286 30.6789 762.186 30.6789C763.386 30.6789 764.286 30.6789 764.886 30.5789V78.4789C764.386 78.4789 763.686 78.3789 762.586 78.2789C761.586 78.1789 760.786 78.1789 760.186 78.1789C759.686 78.1789 758.986 78.1789 757.986 78.2789C756.986 78.3789 756.186 78.3789 755.686 78.4789V45.4789C753.886 47.7789 752.086 50.1789 750.286 52.6789C748.486 55.1789 746.386 58.0789 744.086 61.3789C741.786 64.6789 739.586 67.7789 737.686 70.5789C735.786 73.3789 733.986 76.0789 732.486 78.4789C732.086 78.4789 731.386 78.3789 730.586 78.3789C729.386 78.3789 728.486 78.3789 727.886 78.4789V30.5789H727.786ZM709.186 73.0789C707.986 68.9789 706.686 64.6789 705.186 60.2789C703.686 55.7789 701.986 50.2789 699.786 43.7789C695.186 56.6789 691.886 66.4789 689.886 73.1789C690.786 73.1789 692.186 73.2789 694.086 73.3789C695.886 73.4789 697.586 73.4789 699.086 73.4789C700.686 73.4789 702.486 73.4789 704.586 73.3789C706.586 73.1789 708.186 73.0789 709.186 73.0789ZM684.786 73.0789C686.586 68.3789 687.986 64.5789 688.986 61.7789C689.986 58.9789 691.286 55.5789 692.686 51.6789C694.086 47.7789 695.386 43.9789 696.586 40.3789C697.786 36.6789 698.886 33.3789 699.786 30.4789C700.186 30.4789 700.586 30.4789 701.086 30.5789C701.586 30.6789 701.986 30.6789 702.286 30.6789C702.586 30.6789 702.986 30.6789 703.586 30.5789C704.086 30.4789 704.586 30.4789 704.886 30.4789C708.886 43.0789 713.686 57.2789 719.386 73.0789H722.286C722.086 75.2789 721.886 76.4789 721.886 76.7789C721.886 77.9789 721.986 79.1789 722.286 80.5789H721.386C720.686 79.5789 719.386 78.8789 717.686 78.5789C715.986 78.2789 713.886 78.1789 711.386 78.1789H693.386C690.686 78.1789 688.386 78.2789 686.686 78.5789C684.986 78.8789 683.686 79.5789 682.986 80.5789H682.086C682.286 79.5789 682.386 78.2789 682.386 76.7789C682.386 75.7789 682.286 74.5789 682.086 73.0789H684.786ZM662.686 65.6789C661.886 63.6789 660.686 61.0789 658.986 57.8789C657.386 54.6789 655.686 51.4789 653.786 48.0789C651.986 44.7789 650.186 41.4789 648.386 38.1789C646.586 34.8789 645.286 32.3789 644.386 30.5789C645.186 30.6789 645.886 30.6789 646.486 30.7789C647.086 30.8789 647.686 30.8789 648.286 30.9789C648.886 30.9789 649.486 31.0789 649.886 31.0789C650.286 31.0789 650.786 31.0789 651.386 30.9789C651.986 30.9789 652.586 30.8789 653.186 30.7789C653.786 30.6789 654.486 30.6789 655.286 30.5789C655.786 31.6789 656.786 33.8789 658.386 37.0789C659.986 40.2789 661.686 43.5789 663.386 46.9789C665.086 50.3789 666.286 52.7789 666.886 54.1789C667.486 53.1789 668.186 51.7789 668.986 49.8789C669.786 47.9789 670.786 45.7789 671.786 43.2789C672.786 40.6789 673.786 38.2789 674.686 35.8789C675.586 33.4789 676.286 31.7789 676.686 30.6789C677.686 30.7789 678.686 30.8789 679.686 30.8789C680.586 30.8789 681.586 30.7789 682.586 30.6789C680.986 33.9789 678.686 38.9789 675.686 45.4789C672.786 51.9789 669.986 58.3789 667.286 64.6789C664.686 70.9789 662.886 75.4789 661.886 78.3789C661.686 78.3789 661.286 78.2789 660.686 78.1789C660.086 78.0789 659.586 78.0789 659.286 78.0789C658.986 78.0789 658.486 78.0789 657.886 78.1789C657.286 78.2789 656.886 78.2789 656.586 78.2789C657.386 76.7789 658.286 74.5789 659.486 71.9789C661.186 69.2789 662.086 67.1789 662.686 65.6789ZM626.286 53.5789C628.086 53.4789 629.386 53.2789 630.286 53.0789C632.186 52.4789 633.486 51.3789 634.386 49.6789C635.286 47.9789 635.686 45.9789 635.686 43.6789C635.686 40.9789 635.186 38.7789 634.086 36.9789C632.986 35.2789 631.686 34.3789 630.086 34.3789H626.286V53.5789ZM626.286 78.3789C625.786 78.3789 624.986 78.2789 623.986 78.1789C622.986 78.0789 622.186 78.0789 621.686 78.0789C621.186 78.0789 620.386 78.0789 619.386 78.1789C618.386 78.2789 617.586 78.2789 617.086 78.3789V30.5789H632.086C636.386 30.5789 639.586 31.5789 641.786 33.5789C643.986 35.5789 645.086 38.4789 645.086 42.3789C645.086 46.2789 644.286 49.3789 642.786 51.6789C641.186 53.8789 639.086 55.4789 636.286 56.2789C633.486 57.0789 630.186 57.5789 626.186 57.5789L626.286 78.3789ZM586.186 55.3789C583.586 55.3789 581.086 55.5789 578.686 55.9789C578.686 55.6789 578.786 55.1789 578.886 54.4789C578.986 53.7789 578.986 53.2789 578.986 52.9789C578.986 52.6789 578.886 52.1789 578.886 51.5789C578.786 50.8789 578.686 50.3789 578.686 50.0789C581.986 50.4789 584.486 50.6789 586.186 50.6789H599.986C599.786 48.3789 599.286 46.1789 598.586 44.1789C597.886 42.1789 596.986 40.2789 595.886 38.6789C594.786 37.0789 593.386 35.7789 591.686 34.8789C589.986 33.9789 588.186 33.4789 586.086 33.4789C584.186 33.4789 582.286 34.0789 580.486 35.2789C578.686 36.4789 577.186 37.9789 575.986 39.8789H575.186C574.986 38.7789 574.686 37.4789 574.486 36.1789C574.186 34.7789 573.986 33.6789 573.786 32.7789C575.486 31.6789 577.486 30.8789 579.686 30.2789C581.986 29.6789 584.086 29.3789 586.186 29.3789C589.586 29.3789 592.786 29.8789 595.686 30.9789C598.586 32.0789 601.186 33.6789 603.386 35.8789C605.586 38.0789 607.386 40.7789 608.586 44.1789C609.786 47.5789 610.486 51.3789 610.486 55.8789C610.486 59.3789 609.886 62.5789 608.786 65.4789C607.686 68.3789 606.086 70.8789 603.986 72.9789C601.886 75.0789 599.486 76.6789 596.686 77.7789C593.886 78.8789 590.886 79.3789 587.586 79.3789C582.986 79.3789 578.986 78.3789 575.486 76.3789L574.186 70.3789L574.986 69.9789C576.386 71.4789 578.086 72.7789 580.086 73.7789C582.086 74.7789 584.086 75.2789 585.886 75.2789C588.886 75.2789 591.486 74.4789 593.686 72.7789C595.886 71.1789 597.586 68.7789 598.686 65.7789C599.786 62.7789 600.386 59.3789 600.386 55.4789L586.186 55.3789ZM516.286 19.5789C520.086 23.9789 524.386 26.0789 528.986 26.0789C533.786 26.0789 538.186 23.8789 542.086 19.3789L544.486 22.9789C543.086 24.5789 541.486 25.9789 539.786 27.1789C538.086 28.3789 536.286 29.1789 534.486 29.7789C532.686 30.3789 530.786 30.6789 528.886 30.6789C526.186 30.6789 523.486 30.0789 520.886 28.8789C518.286 27.6789 515.986 25.8789 513.886 23.4789L516.286 19.5789ZM510.586 31.5789C511.286 31.6789 511.886 31.6789 512.386 31.7789C512.886 31.8789 513.386 31.8789 513.886 31.9789C514.386 31.9789 514.786 32.0789 515.186 32.0789C515.586 32.0789 515.986 32.0789 516.486 31.9789C516.986 31.9789 517.486 31.8789 517.986 31.7789C518.486 31.6789 519.086 31.6789 519.786 31.5789V64.2789C521.686 61.9789 523.586 59.4789 525.786 56.6789C527.886 53.8789 529.886 51.0789 531.886 48.2789C533.786 45.4789 535.786 42.6789 537.786 39.6789C539.786 36.6789 541.486 33.9789 542.986 31.5789C543.386 31.6789 544.086 31.6789 544.986 31.6789C546.186 31.6789 547.086 31.6789 547.686 31.5789V79.4789C547.186 79.4789 546.486 79.3789 545.386 79.2789C544.386 79.1789 543.586 79.1789 542.986 79.1789C542.486 79.1789 541.786 79.1789 540.786 79.2789C539.786 79.3789 538.986 79.3789 538.486 79.4789V46.4789C536.686 48.7789 534.886 51.1789 533.086 53.6789C531.286 56.1789 529.186 59.0789 526.886 62.3789C524.586 65.6789 522.386 68.7789 520.486 71.5789C518.586 74.3789 516.786 77.0789 515.286 79.4789C514.886 79.4789 514.186 79.3789 513.386 79.3789C512.186 79.3789 511.286 79.3789 510.686 79.4789V31.5789H510.586ZM463.186 31.5789C463.886 31.6789 464.486 31.6789 464.986 31.7789C465.486 31.8789 465.986 31.8789 466.486 31.9789C466.986 31.9789 467.386 32.0789 467.786 32.0789C468.086 32.0789 468.586 32.0789 469.086 31.9789C469.586 31.9789 470.086 31.8789 470.586 31.7789C471.086 31.6789 471.686 31.6789 472.386 31.5789V64.2789C474.286 61.9789 476.186 59.4789 478.386 56.6789C480.486 53.8789 482.486 51.0789 484.486 48.2789C486.386 45.4789 488.386 42.6789 490.386 39.6789C492.386 36.6789 494.086 33.9789 495.586 31.5789C495.986 31.5789 496.686 31.6789 497.586 31.6789C498.786 31.6789 499.686 31.6789 500.286 31.5789V79.4789C499.786 79.4789 499.086 79.3789 497.986 79.2789C496.986 79.1789 496.186 79.1789 495.586 79.1789C495.086 79.1789 494.386 79.1789 493.386 79.2789C492.386 79.3789 491.586 79.3789 491.086 79.4789V46.4789C489.286 48.7789 487.486 51.1789 485.686 53.6789C483.886 56.1789 481.786 59.0789 479.486 62.3789C477.186 65.6789 474.986 68.7789 473.086 71.5789C471.186 74.3789 469.386 77.0789 467.886 79.4789C467.486 79.4789 466.786 79.3789 465.986 79.3789C464.786 79.3789 463.886 79.3789 463.286 79.4789V31.5789H463.186ZM425.886 31.5789C426.086 31.5789 426.686 31.6789 427.886 31.7789C428.986 31.8789 429.886 31.9789 430.486 31.9789C430.786 31.9789 431.286 31.9789 431.786 31.8789C432.286 31.8789 432.786 31.7789 433.286 31.6789C433.786 31.5789 434.386 31.5789 435.086 31.4789V53.2789C440.486 46.1789 445.786 38.8789 450.886 31.4789C451.386 31.5789 451.786 31.5789 452.086 31.6789C452.486 31.7789 452.786 31.7789 453.186 31.8789C453.586 31.8789 453.886 31.9789 454.186 31.9789C454.586 31.9789 455.186 31.8789 455.986 31.7789C456.786 31.6789 457.286 31.5789 457.386 31.5789V32.0789C454.586 35.0789 451.686 38.4789 448.686 42.2789C445.686 46.0789 443.286 49.0789 441.586 51.3789L458.586 78.3789V79.2789C458.086 79.2789 457.186 79.1789 455.986 79.0789C454.786 78.9789 453.886 78.9789 453.486 78.9789C452.986 78.9789 452.086 78.9789 450.886 79.0789C449.686 79.1789 448.786 79.1789 448.286 79.2789L435.086 57.1789V79.2789C434.586 79.2789 433.786 79.1789 432.786 79.0789C431.786 78.9789 430.986 78.9789 430.486 78.9789C429.986 78.9789 429.286 78.9789 428.286 79.0789C427.286 79.1789 426.486 79.1789 425.986 79.2789V31.5789H425.886ZM400.586 75.1789C402.286 75.1789 403.586 74.9789 404.586 74.6789C406.486 74.0789 407.786 72.9789 408.686 71.2789C409.586 69.5789 409.986 67.5789 409.986 65.1789C409.986 62.4789 409.486 60.2789 408.386 58.5789C407.286 56.8789 405.986 55.9789 404.386 55.9789H400.586V75.1789ZM400.586 52.1789H406.486C410.786 52.1789 413.986 53.1789 416.186 55.1789C418.386 57.1789 419.486 60.0789 419.486 63.9789C419.486 69.6789 417.986 73.5789 415.086 75.7789C412.186 77.9789 408.386 79.0789 403.686 79.0789H391.386V31.2789C391.886 31.2789 392.586 31.3789 393.586 31.4789C394.486 31.5789 395.286 31.5789 395.986 31.5789C396.586 31.5789 397.386 31.5789 398.386 31.4789C399.286 31.3789 400.086 31.3789 400.586 31.2789V52.1789ZM344.586 31.5789C345.286 31.6789 345.886 31.6789 346.386 31.7789C346.886 31.8789 347.386 31.8789 347.886 31.9789C348.386 31.9789 348.786 32.0789 349.186 32.0789C349.586 32.0789 349.986 32.0789 350.486 31.9789C350.986 31.9789 351.486 31.8789 351.986 31.7789C352.486 31.6789 353.086 31.6789 353.786 31.5789V50.4789C358.886 50.6789 361.986 50.7789 363.086 50.7789C363.986 50.7789 367.086 50.6789 372.386 50.4789V31.5789C373.086 31.6789 373.686 31.6789 374.086 31.7789C374.586 31.8789 375.086 31.8789 375.586 31.9789C376.086 31.9789 376.486 32.0789 376.886 32.0789C377.286 32.0789 377.686 32.0789 378.286 31.9789C378.786 31.9789 379.386 31.8789 379.786 31.7789C380.286 31.6789 380.886 31.6789 381.486 31.5789V79.2789C380.986 79.2789 380.286 79.1789 379.186 79.0789C378.186 78.9789 377.386 78.9789 376.786 78.9789C376.286 78.9789 375.586 78.9789 374.586 79.0789C373.586 79.1789 372.786 79.1789 372.286 79.2789V56.0789C368.086 55.8789 364.986 55.7789 362.986 55.7789C360.786 55.7789 357.686 55.8789 353.686 56.0789V79.3789C353.186 79.3789 352.386 79.2789 351.386 79.1789C350.386 79.0789 349.586 79.0789 349.086 79.0789C348.586 79.0789 347.786 79.0789 346.786 79.1789C345.786 79.2789 344.986 79.2789 344.486 79.3789V31.5789H344.586ZM336.786 31.5789C336.586 33.2789 336.486 34.2789 336.486 34.5789C336.486 34.8789 336.586 35.8789 336.786 37.5789C332.486 36.9789 327.786 36.5789 322.686 36.5789V51.6789H329.086C330.786 51.6789 333.286 51.4789 336.586 51.0789C336.386 52.4789 336.286 53.4789 336.286 53.9789C336.286 54.4789 336.386 55.4789 336.586 56.9789C334.186 56.5789 331.686 56.3789 329.086 56.3789H322.686V73.9789C327.786 73.9789 332.586 73.6789 336.786 72.9789C336.586 74.6789 336.486 75.6789 336.486 75.9789C336.486 76.2789 336.586 77.2789 336.786 78.9789H313.486V31.5789H336.786ZM288.786 31.7789C288.986 31.7789 289.186 31.7789 289.386 31.7789C289.586 31.7789 289.886 31.7789 290.086 31.6789C290.286 31.6789 290.486 31.5789 290.686 31.5789C290.886 31.5789 291.086 31.4789 291.386 31.4789C292.786 35.6789 293.986 39.4789 294.986 42.6789C296.086 45.8789 297.386 49.8789 299.086 54.6789C300.686 59.4789 301.986 63.0789 302.886 65.7789C303.786 68.3789 305.386 72.9789 307.686 79.2789C306.886 79.1789 306.286 79.1789 305.686 79.0789C305.086 78.9789 304.486 78.9789 303.886 78.8789C303.286 78.8789 302.786 78.7789 302.386 78.7789C301.986 78.7789 301.486 78.7789 300.886 78.8789C300.286 78.8789 299.686 78.9789 299.086 79.0789C298.486 79.1789 297.886 79.1789 297.086 79.2789C296.386 76.6789 295.586 73.8789 294.786 70.9789C293.886 68.0789 293.086 65.5789 292.386 63.4789C291.686 61.2789 290.686 58.3789 289.486 54.5789C288.186 50.7789 287.186 47.4789 286.286 44.7789C281.386 58.4789 277.586 69.9789 274.986 79.2789C273.986 79.1789 273.086 79.0789 272.086 79.0789C271.186 79.0789 270.186 79.1789 269.286 79.2789C270.986 74.6789 272.586 70.4789 273.986 66.5789C275.386 62.7789 276.786 58.9789 278.186 55.2789C279.486 51.5789 280.886 47.7789 282.286 43.7789C283.686 39.7789 284.986 35.6789 286.286 31.5789C286.386 31.5789 286.686 31.5789 287.386 31.6789C287.986 31.7789 288.486 31.7789 288.786 31.7789ZM251.286 60.5789L245.786 44.3789L240.086 60.5789H251.286ZM238.486 64.8789C238.086 66.0789 237.586 67.6789 236.986 69.7789C236.386 71.7789 235.786 73.5789 235.386 75.1789C234.886 76.6789 234.586 78.0789 234.286 79.2789C233.986 79.2789 233.586 79.1789 232.886 79.1789C232.186 79.0789 231.786 79.0789 231.386 79.0789C231.086 79.0789 230.586 79.0789 229.886 79.1789C229.286 79.2789 228.786 79.2789 228.386 79.2789L245.786 30.9789C246.586 31.0789 247.386 31.1789 248.086 31.1789C248.886 31.1789 249.586 31.0789 250.386 30.9789L267.386 79.3789C266.786 79.3789 265.886 79.2789 264.686 79.1789C263.486 79.0789 262.586 79.0789 262.086 79.0789C261.486 79.0789 260.586 79.0789 259.486 79.1789C258.286 79.2789 257.486 79.2789 256.886 79.3789C255.086 72.6789 253.586 67.7789 252.586 64.8789H238.486ZM215.086 31.5789C215.186 31.5789 215.586 31.6789 216.186 31.7789C216.786 31.8789 217.286 31.9789 217.586 31.9789C217.786 31.9789 218.086 31.9789 218.386 31.8789C218.686 31.8789 218.986 31.7789 219.286 31.6789C219.586 31.5789 219.886 31.5789 220.286 31.4789C220.786 36.4789 221.286 41.7789 221.886 47.2789C222.386 52.7789 222.886 56.7789 223.086 59.2789C223.386 61.7789 223.686 64.8789 224.186 68.4789C224.686 72.1789 225.086 75.6789 225.686 79.2789C225.086 79.2789 224.286 79.1789 223.086 79.0789C221.886 78.9789 221.086 78.9789 220.586 78.9789C219.986 78.9789 219.186 78.9789 218.186 79.0789C217.086 79.1789 216.286 79.1789 215.786 79.2789C215.686 76.6789 215.486 73.9789 215.286 71.1789C215.086 68.3789 214.886 65.7789 214.686 63.4789C214.486 61.1789 214.286 58.7789 213.986 56.2789C213.786 53.7789 213.486 50.6789 213.086 46.8789C212.286 48.6789 211.286 51.1789 209.786 54.3789C208.386 57.5789 207.186 60.3789 206.186 62.7789C205.186 65.1789 203.986 67.9789 202.686 71.2789C201.286 74.5789 200.286 77.0789 199.586 78.8789H197.286C196.586 77.2789 195.586 74.7789 194.186 71.3789C192.786 68.0789 191.686 65.4789 190.886 63.6789C190.086 61.8789 188.986 59.1789 187.386 55.5789C185.786 51.9789 184.686 49.2789 183.886 47.4789C182.286 61.2789 181.486 71.7789 181.286 79.0789C180.986 79.0789 180.486 78.9789 179.886 78.8789C179.286 78.7789 178.786 78.7789 178.486 78.7789C178.186 78.7789 177.686 78.7789 177.086 78.8789C176.486 78.9789 175.986 78.9789 175.586 79.0789C176.586 72.7789 177.586 66.0789 178.486 59.0789C179.386 52.0789 180.486 42.7789 181.886 31.2789C182.286 31.3789 182.586 31.3789 182.886 31.4789C183.186 31.5789 183.386 31.5789 183.686 31.6789C183.986 31.6789 184.186 31.7789 184.386 31.7789C184.586 31.7789 184.786 31.7789 185.186 31.6789C185.486 31.6789 185.786 31.5789 185.986 31.4789C186.186 31.3789 186.486 31.3789 186.886 31.2789C188.286 34.5789 189.386 37.2789 190.186 39.2789C190.986 41.2789 192.086 43.8789 193.486 46.9789C194.886 50.1789 196.186 53.1789 197.486 56.0789C198.786 58.9789 199.886 61.5789 200.986 64.0789C201.286 63.3789 202.186 61.3789 203.686 57.9789C205.186 54.6789 206.586 51.4789 207.886 48.4789C209.186 45.4789 210.486 42.5789 211.786 39.5789C212.886 36.9789 214.086 34.1789 215.086 31.5789Z" fill="#303030"/>
</g>
<defs>
<linearGradient id="paint0_linear_404_348" x1="78.927" y1="45.5384" x2="132.889" y2="45.5384" gradientUnits="userSpaceOnUse">
<stop stop-color="#CE02CF"/>
<stop offset="1" stop-color="#FFE5B4"/>
</linearGradient>
<linearGradient id="paint1_linear_404_348" x1="10.2871" y1="52.3288" x2="77.8544" y2="52.3288" gradientUnits="userSpaceOnUse">
<stop stop-color="#CE02CF"/>
<stop offset="1" stop-color="#FFE5B4"/>
</linearGradient>
<linearGradient id="paint2_linear_404_348" x1="79.7757" y1="52.3439" x2="147.305" y2="52.3439" gradientUnits="userSpaceOnUse">
<stop stop-color="#CE02CF"/>
<stop offset="1" stop-color="#FFE5B4"/>
</linearGradient>
<linearGradient id="paint3_linear_404_348" x1="81.2037" y1="59.9966" x2="155.648" y2="59.9966" gradientUnits="userSpaceOnUse">
<stop stop-color="#CE02CF"/>
<stop offset="1" stop-color="#FFE5B4"/>
</linearGradient>
<linearGradient id="paint4_linear_404_348" x1="-0.588297" y1="61.2629" x2="77.422" y2="61.2629" gradientUnits="userSpaceOnUse">
<stop stop-color="#CE02CF"/>
<stop offset="1" stop-color="#FFE5B4"/>
</linearGradient>
<clipPath id="clip0_404_348">
<rect width="802.486" height="99.9575" fill="white"/>
</clipPath>
</defs>
</svg>
