<?xml version="1.0" encoding="UTF-8"?>
<svg id="_Слой_1" data-name="Слой 1" xmlns="http://www.w3.org/2000/svg" xmlns:xlink="http://www.w3.org/1999/xlink" viewBox="0 0 595.276 382.953">
  <defs>
    <style>
      .cls-1 {
        fill: url(#_Безымянный_градиент_7);
      }

      .cls-2 {
        fill: url(#_Безымянный_градиент_7-4);
      }

      .cls-3 {
        fill: url(#_Безымянный_градиент_7-5);
      }

      .cls-4 {
        fill: url(#_Безымянный_градиент_7-3);
      }

      .cls-5 {
        fill: url(#_Безымянный_градиент_7-2);
      }
    </style>
    <linearGradient id="_Безымянный_градиент_7" data-name="Безымянный градиент 7" x1="302.766" y1="920.582" x2="505.897" y2="920.582" gradientTransform="translate(0 -743.14)" gradientUnits="userSpaceOnUse">
      <stop offset="0" stop-color="#226f54"/>
      <stop offset="1" stop-color="#ef233c"/>
    </linearGradient>
    <linearGradient id="_Безымянный_градиент_7-2" data-name="Безымянный градиент 7" x1="41.963" y1="946.406" x2="296.308" y2="946.406" xlink:href="#_Безымянный_градиент_7"/>
    <linearGradient id="_Безымянный_градиент_7-3" data-name="Безымянный градиент 7" x1="304.58" y1="946.449" x2="562.946" y2="946.449" xlink:href="#_Безымянный_градиент_7"/>
    <linearGradient id="_Безымянный_градиент_7-4" data-name="Безымянный градиент 7" x1="310.688" y1="975.411" x2="595.518" y2="975.411" xlink:href="#_Безымянный_градиент_7"/>
    <linearGradient id="_Безымянный_градиент_7-5" data-name="Безымянный градиент 7" x1="-.402" y1="980.291" x2="298.068" y2="980.291" xlink:href="#_Безымянный_градиент_7"/>
  </defs>
  <path class="cls-1" d="m461.99,1.391c-28.312,3.184-59.942,12.037-80.655,22.683-30.524,15.63-54.005,40.104-68.498,71.639-8.704,19.086-12.43,33.19-6.209,23.513,1.378-2.075,6.906-9.129,12.293-15.493,22.925-27.382,55.659-49.369,90.601-61.133,15.05-4.975,36.184-9.822,37.429-8.432.693.697,18.366,146.736,19.608,161.809.272,2.908-1.242,3.729-14.917,8.432-19.744,6.777-27.207,9.962-40.742,16.735-47.376,23.789-79.277,56.707-94.739,97.503-3.453,9.265-10.495,35.405-9.81,36.234.272.136,4.01-6.637,8.284-15.205,9.253-18.253,16.432-28.215,30.932-42.739,33.976-34.296,85.907-55.597,153.712-63.06l8.977-.969-.409-5.532c-.549-5.808-28.589-215.055-29.967-223.078-.549-3.044-1.514-4.426-3.18-4.29-1.242.136-7.05.697-12.714,1.382h.004Z"/>
  <path class="cls-5" d="m93.929,39.284c-6.766,1.106-13.263,2.215-14.368,2.351-1.651.272-6.073,28.079-20.305,124.885-10.082,68.455-18.094,124.613-17.958,124.749s7.463-.549,16.155-1.654c23.197-3.044,66.427-4.154,86.183-2.215,41.984,4.154,75.131,15.209,104.958,34.992,10.631,7.05,36.733,31.672,46.134,43.288,4.146,5.259,4.146,4.975-1.798-6.918-33.28-67.77-90.181-100.54-185.477-106.492-14.084-.969-15.61-1.246-15.61-3.729,0-1.382,4.967-42.455,11.052-91.002,6.073-48.547,11.052-88.651,11.052-89.064,0-1.654,38.395-.697,52.479,1.106,43.502,5.808,83.699,23.092,116.843,50.065,4.282,3.457,7.871,6.081,8.148,5.808.272-.272-4.558-6.641-10.915-14.252-30.796-37.48-66.014-60.023-108.559-70.121-15.883-3.729-59.942-4.703-78.035-1.802h.019l.004.004Z"/>
  <path class="cls-4" d="m495.967,41.495c.549,3.044,26.798,209.523,26.798,210.628,0,.272-9.53.833-20.99,1.382-47.921,2.215-79.686,9.129-110.902,24.202-36.324,17.42-65.606,47.85-80.791,83.812l-2.904,6.918,14.232-14.104c17.817-17.56,21.27-20.468,35.355-29.87,30.387-20.468,66.427-32.641,109.38-37.067,19.336-2.075,59.385-.969,81.352,2.215,8.568,1.246,15.743,2.075,15.883,1.802.276-.272-7.875-56.146-17.958-124.192-10.082-68.046-18.366-124.192-18.503-124.613,0-1.242-5.94-2.351-19.612-3.457l-11.873-.969.549,3.321h-.012l-.004-.008Z"/>
  <path class="cls-2" d="m546.795,91.424c1.518,6.641,27.347,219.757,26.798,220.314-.273.272-6.357-.549-13.535-2.075-31.213-6.365-42.537-7.474-77.342-7.474-26.514-.136-36.596.413-46.546,2.351-34.806,6.641-62.834,18.53-88.254,37.344-9.389,6.918-35.082,31.944-35.082,34.159,0,.697,4.146-1.654,9.389-5.111,11.052-7.47,31.629-17.981,45.164-22.956,58.836-21.987,130.094-20.332,209.792,4.699,9.674,3.048,17.958,5.399,18.094,5.111.409-.409-33.976-249.078-35.915-259.04-.549-3.044-2.211-4.975-6.209-7.326-2.908-1.654-5.8-3.044-6.213-3.044s-.42,1.382-.148,3.044l.008.004Z"/>
  <path class="cls-3" d="m51.252,95.301c-4.422,2.215-8.568,4.426-9.253,5.111-.549.549-6.357,34.72-12.842,75.793-6.493,41.073-15.883,99.855-20.714,130.693C3.463,337.602-.262,363.049.014,363.318c.272.276,8.704-2.347,18.923-5.944,22.789-7.887,49.162-14.933,70.845-18.814,23.481-4.154,68.498-5.259,90.465-2.075,38.259,5.536,72.508,18.394,103.716,38.994,6.357,4.154,11.601,7.474,11.873,7.474,1.651,0-14.084-18.117-23.758-27.518-33.976-32.641-75.404-48.411-136.587-51.868-23.345-1.246-69.467,3.044-99.158,9.265-5.251,1.106-9.389,1.518-9.389.833,0-.549,7.735-50.338,17.261-110.501s17.261-110.089,17.261-110.774c0-1.802-1.106-1.518-10.219,2.908l.004.004Z"/>
</svg>