<?xml version="1.0" encoding="UTF-8"?>
<svg id="_Слой_1" data-name="Слой 1" xmlns="http://www.w3.org/2000/svg" xmlns:xlink="http://www.w3.org/1999/xlink" viewBox="0 0 790.388 98.375">
  <defs>
    <style>
      .cls-1 {
        fill: #fff;
      }

      .cls-2 {
        fill: #303030;
      }

      .cls-3 {
        fill: url(#_Безымянный_градиент_102-4);
      }

      .cls-4 {
        fill: url(#_Безымянный_градиент_102-2);
      }

      .cls-5 {
        fill: url(#_Безымянный_градиент_102-5);
      }

      .cls-6 {
        mask: url(#mask-1);
      }

      .cls-7 {
        mask: url(#mask);
      }

      .cls-8 {
        fill: url(#_Безымянный_градиент_102);
      }

      .cls-9 {
        fill: url(#_Безымянный_градиент_102-3);
      }
    </style>
    <mask id="mask" x="0" y="0" width="152.918" height="98.375" maskUnits="userSpaceOnUse">
      <g id="mask0_140_19" data-name="mask0 140 19">
        <path class="cls-1" d="m152.917,0H0v98.375h152.916V0Z"/>
      </g>
    </mask>
    <linearGradient id="_Безымянный_градиент_102" data-name="Безымянный градиент 102" x1="77.776" y1="53.168" x2="129.957" y2="53.168" gradientTransform="translate(0 98.75) scale(1 -1)" gradientUnits="userSpaceOnUse">
      <stop offset="0" stop-color="#226f54"/>
      <stop offset="1" stop-color="#ef233c"/>
    </linearGradient>
    <linearGradient id="_Безымянный_градиент_102-2" data-name="Безымянный градиент 102" x1="10.78" y1="46.534" x2="76.117" y2="46.534" xlink:href="#_Безымянный_градиент_102"/>
    <linearGradient id="_Безымянный_градиент_102-3" data-name="Безымянный градиент 102" x1="78.242" y1="46.525" x2="144.612" y2="46.525" xlink:href="#_Безымянный_градиент_102"/>
    <linearGradient id="_Безымянный_градиент_102-4" data-name="Безымянный градиент 102" x1="79.811" y1="39.084" x2="152.979" y2="39.084" xlink:href="#_Безымянный_градиент_102"/>
    <linearGradient id="_Безымянный_градиент_102-5" data-name="Безымянный градиент 102" x1="-.103" y1="37.829" x2="76.569" y2="37.829" xlink:href="#_Безымянный_градиент_102"/>
    <mask id="mask-1" x="164.722" y="20.167" width="635.503" height="60.009" maskUnits="userSpaceOnUse">
      <g id="mask1_140_19" data-name="mask1 140 19">
        <path class="cls-1" d="m800.225,20.167H164.722v58.041h635.503V20.167Z"/>
      </g>
    </mask>
  </defs>
  <g class="cls-7">
    <g>
      <path class="cls-8" d="m118.678.357c-7.273.818-15.398,3.092-20.719,5.827-7.841,4.015-13.873,10.302-17.596,18.403-2.236,4.903-3.193,8.526-1.595,6.04.354-.533,1.774-2.345,3.158-3.98,5.889-7.034,14.298-12.682,23.274-15.704,3.866-1.278,9.295-2.523,9.615-2.166.178.179,4.718,37.694,5.037,41.566.07.747-.319.958-3.832,2.166-5.072,1.741-6.989,2.559-10.466,4.299-12.17,6.111-20.365,14.567-24.337,25.047-.887,2.38-2.696,9.095-2.52,9.308.07.035,1.03-1.705,2.128-3.906,2.377-4.689,4.221-7.248,7.946-10.979,8.728-8.81,22.068-14.282,39.486-16.199l2.306-.249-.105-1.421c-.141-1.492-7.344-55.244-7.698-57.305-.141-.782-.389-1.137-.817-1.102-.319.035-1.811.179-3.266.355Z"/>
      <path class="cls-4" d="m24.129,10.091c-1.738.284-3.407.569-3.691.604-.424.07-1.56,7.213-5.216,32.081-2.59,17.585-4.648,32.011-4.613,32.046.035.035,1.917-.141,4.15-.425,5.959-.782,17.064-1.067,22.139-.569,10.785,1.067,19.3,3.907,26.962,8.989,2.731,1.811,9.436,8.136,11.851,11.12,1.065,1.351,1.065,1.278-.462-1.777-8.549-17.409-23.166-25.827-47.646-27.356-3.618-.249-4.01-.32-4.01-.958,0-.355,1.276-10.906,2.839-23.377,1.56-12.471,2.839-22.773,2.839-22.879,0-.425,9.863-.179,13.481.284,11.175,1.492,21.501,5.932,30.015,12.861,1.1.888,2.022,1.562,2.093,1.492.07-.07-1.171-1.706-2.804-3.661-7.911-9.628-16.958-15.419-27.887-18.013-4.08-.958-15.398-1.208-20.046-.463h.005Z"/>
      <path class="cls-9" d="m127.406,10.659c.141.782,6.884,53.823,6.884,54.107,0,.07-2.448.214-5.392.355-12.31.569-20.47,2.345-28.489,6.217-9.331,4.475-16.853,12.292-20.754,21.53l-.746,1.777,3.656-3.623c4.577-4.511,5.464-5.258,9.082-7.673,7.806-5.258,17.064-8.385,28.098-9.522,4.967-.533,15.255-.249,20.898.569,2.201.32,4.044.533,4.08.463.071-.07-2.023-14.423-4.613-31.903-2.59-17.48-4.718-31.903-4.753-32.011,0-.319-1.526-.604-5.038-.888l-3.05-.249.141.853h-.003Z"/>
      <path class="cls-3" d="m140.463,23.485c.39,1.706,7.025,56.452,6.884,56.595-.07.07-1.633-.141-3.477-.533-8.018-1.635-10.927-1.92-19.868-1.92-6.811-.035-9.401.106-11.957.604-8.941,1.706-16.141,4.76-22.671,9.593-2.412,1.777-9.012,8.206-9.012,8.775,0,.179,1.065-.425,2.412-1.313,2.839-1.919,8.125-4.619,11.602-5.897,15.114-5.648,33.419-5.223,53.892,1.207,2.485.783,4.613,1.387,4.648,1.313.105-.105-8.728-63.984-9.226-66.543-.141-.782-.568-1.278-1.595-1.882-.747-.425-1.49-.782-1.596-.782s-.108.355-.038.782Z"/>
      <path class="cls-5" d="m13.166,24.481c-1.136.569-2.201,1.137-2.377,1.313-.141.141-1.633,8.919-3.299,19.47-1.668,10.551-4.08,25.651-5.321,33.573C.89,86.724-.067,93.261.004,93.33c.07.071,2.236-.603,4.861-1.527,5.854-2.026,12.629-3.836,18.199-4.833,6.032-1.067,17.596-1.351,23.239-.533,9.828,1.422,18.626,4.725,26.643,10.017,1.633,1.067,2.98,1.92,3.05,1.92.424,0-3.618-4.654-6.103-7.069-8.728-8.385-19.37-12.436-35.087-13.324-5.997-.32-17.845.782-25.472,2.38-1.349.284-2.412.39-2.412.214,0-.141,1.987-12.931,4.434-28.386,2.447-15.455,4.434-28.28,4.434-28.456,0-.463-.284-.39-2.625.747Z"/>
    </g>
  </g>
  <g class="cls-6">
    <path class="cls-2" d="m779.656,78.064c-.5-.022-1.257-.08-2.269-.16-1.017-.08-1.757-.116-2.227-.116-.49,0-1.24.036-2.236.116-1.01.08-1.761.138-2.261.16v-42.1c-3.275,0-6.993.319-11.148.972.199-1.622.289-2.605.289-2.95,0-.33-.09-1.292-.289-2.892h30.872c-.058.421-.109.787-.17,1.085-.047.308-.098.628-.127.972-.032.341-.051.617-.051.834s.019.504.051.856c.029.356.08.686.127.994.061.308.112.675.17,1.096-4.706-.653-8.282-.972-10.732-.972v42.104Zm-62.824-46.966c.659.069,1.246.138,1.746.192.5.069,1.001.116,1.5.16.5.033.909.058,1.239.058s.758-.022,1.28-.058c.507-.047,1.017-.091,1.499-.16.489-.058,1.069-.127,1.728-.192v32.156c1.826-2.217,3.786-4.72,5.873-7.521,2.09-2.79,4.076-5.555,5.985-8.261,1.899-2.721,3.838-5.555,5.786-8.501,1.957-2.95,3.677-5.624,5.134-8.011.401.047,1.04.069,1.92.069,1.199,0,2.076-.022,2.637-.069v47.103c-.482-.022-1.221-.08-2.239-.16-1.011-.08-1.78-.116-2.319-.116-.467,0-1.199.036-2.196.116-.993.08-1.739.138-2.239.16v-32.431c-1.757,2.286-3.529,4.651-5.315,7.086-1.79,2.445-3.83,5.29-6.127,8.548-2.297,3.244-4.394,6.273-6.293,9.074-1.899,2.79-3.598,5.373-5.117,7.724-.442-.047-1.057-.069-1.858-.069-1.148,0-2.018.022-2.627.069V31.099Zm-18.286,41.767c-1.148-4.034-2.449-8.25-3.887-12.64-1.439-4.386-3.196-9.803-5.287-16.239-4.504,12.673-7.742,22.295-9.699,28.876.917.033,2.286.091,4.105.16,1.818.069,3.456.102,4.934.102,1.602,0,3.387-.033,5.365-.102,1.989-.069,3.479-.123,4.467-.156Zm-23.97-.011c1.739-4.619,3.119-8.319,4.149-11.109,1.029-2.775,2.228-6.081,3.594-9.908,1.37-3.817,2.66-7.532,3.87-11.12,1.217-3.599,2.275-6.846,3.188-9.76.347,0,.79.047,1.318.138.518.091.917.138,1.199.138.309,0,.729-.047,1.268-.138.54-.091.968-.138,1.298-.138,3.957,12.397,8.695,26.365,14.22,41.893h2.877c-.239,2.159-.37,3.371-.37,3.632,0,1.132.131,2.366.37,3.693h-.91c-.721-1.005-1.938-1.669-3.656-1.956-1.721-.287-3.768-.435-6.155-.435h-17.695c-2.689,0-4.877.138-6.576.41-1.707.276-2.928.936-3.666,1.977h-.91c.211-1.016.312-2.253.312-3.693,0-.936-.101-2.148-.312-3.632h2.587v.007Zm-21.703-7.267c-.808-1.977-1.996-4.524-3.594-7.655-1.602-3.131-3.29-6.331-5.076-9.6-1.789-3.28-3.547-6.527-5.297-9.76-1.739-3.233-3.04-5.725-3.899-7.474.801.069,1.488.127,2.05.181.57.058,1.16.112,1.79.16.616.047,1.137.069,1.546.069.398,0,.899-.022,1.5-.058.598-.047,1.199-.091,1.808-.16.598-.058,1.297-.127,2.097-.196.471,1.096,1.5,3.222,3.098,6.378,1.587,3.167,3.236,6.389,4.917,9.701,1.688,3.302,2.848,5.667,3.485,7.096.562-.961,1.249-2.365,2.069-4.205.818-1.839,1.739-4.024,2.757-6.538,1.017-2.514,1.988-4.949,2.898-7.278.898-2.344,1.569-4.056,2-5.155.967.138,1.946.207,2.945.207.898,0,1.847-.069,2.87-.207-1.619,3.291-3.88,8.16-6.775,14.603-2.887,6.433-5.638,12.731-8.235,18.877-2.598,6.16-4.366,10.652-5.315,13.486-.178-.022-.57-.08-1.156-.16-.59-.08-1.04-.116-1.363-.116-.297,0-.747.033-1.337.102-.601.069-1.01.105-1.239.105.756-1.52,1.699-3.599,2.825-6.229,1.141-2.638,2.011-4.695,2.627-6.182v.007Zm-35.89-11.86c1.761-.091,3.076-.25,3.946-.479,1.837-.573,3.188-1.701,4.047-3.37.87-1.669,1.3-3.646,1.3-5.943,0-2.685-.529-4.869-1.598-6.549-1.069-1.68-2.398-2.514-3.978-2.514h-3.718v18.855Zm0,24.341c-.517-.022-1.268-.08-2.257-.16-.99-.08-1.739-.116-2.247-.116s-1.268.036-2.25.116c-.989.08-1.727.138-2.239.16V31.102h14.757c4.207,0,7.391.972,9.561,2.902,2.166,1.945,3.257,4.836,3.257,8.686,0,3.875-.771,6.915-2.301,9.106-1.536,2.195-3.656,3.715-6.362,4.535-2.706.824-6.015,1.244-9.923,1.244v20.488l.003.004Zm-39.447-22.559c-2.598,0-5.065.181-7.373.548,0-.33.05-.824.149-1.487.091-.653.141-1.143.141-1.473,0-.287-.05-.755-.141-1.415-.098-.653-.149-1.143-.149-1.451,3.206.414,5.666.617,7.373.617h13.539c-.239-2.253-.699-4.386-1.359-6.389-.671-2.01-1.558-3.795-2.689-5.384-1.13-1.575-2.497-2.823-4.127-3.737-1.63-.903-3.479-1.361-5.554-1.361-1.877,0-3.728.584-5.547,1.738-1.818,1.165-3.286,2.685-4.405,4.56h-.829c-.221-1.11-.45-2.333-.689-3.657-.25-1.339-.471-2.467-.689-3.392,1.677-1.063,3.627-1.887,5.834-2.467,2.217-.595,4.347-.893,6.384-.893,3.359,0,6.474.526,9.344,1.578,2.876,1.063,5.406,2.663,7.584,4.8,2.177,2.148,3.887,4.869,5.105,8.181,1.228,3.302,1.837,7.129,1.837,11.486,0,3.461-.558,6.618-1.677,9.451-1.12,2.844-2.695,5.29-4.747,7.336-2.047,2.057-4.456,3.624-7.213,4.709-2.757,1.085-5.736,1.622-8.913,1.622-4.536,0-8.493-.983-11.87-2.95l-1.318-5.906.79-.399c1.369,1.498,3.047,2.732,5.036,3.69,1.989.972,3.888,1.451,5.695,1.451,2.949,0,5.496-.809,7.663-2.445,2.159-1.622,3.797-3.907,4.928-6.857,1.12-2.935,1.677-6.309,1.677-10.101l-13.789-.004Zm-68.669-35.204c3.768,4.296,7.946,6.443,12.528,6.443,4.729,0,9.004-2.195,12.841-6.581l2.347,3.508c-1.409,1.6-2.956,2.971-4.644,4.114-1.688,1.143-3.438,1.988-5.246,2.561s-3.649.856-5.526.856c-2.688,0-5.296-.595-7.826-1.77-2.514-1.19-4.833-2.971-6.931-5.359l2.456-3.77v-.004Zm-5.685,11.806c.66.069,1.25.138,1.75.196.5.058.997.116,1.496.149.501.047.91.058,1.24.058s.76-.011,1.279-.058c.511-.033,1.018-.091,1.5-.149.489-.058,1.068-.127,1.727-.196v32.145c1.83-2.217,3.786-4.72,5.877-7.521,2.087-2.79,4.076-5.555,5.982-8.261,1.898-2.721,3.837-5.555,5.785-8.501,1.961-2.95,3.677-5.624,5.134-8.011.402.058,1.04.08,1.92.08,1.199,0,2.08-.022,2.637-.08v47.103c-.478-.022-1.217-.08-2.239-.16-1.007-.08-1.779-.112-2.319-.112-.467,0-1.199.036-2.196.112-.989.08-1.739.138-2.239.16v-32.431c-1.757,2.286-3.525,4.651-5.315,7.086-1.789,2.445-3.826,5.29-6.127,8.548-2.297,3.244-4.394,6.273-6.293,9.074-1.899,2.79-3.598,5.37-5.116,7.724-.439-.047-1.059-.069-1.859-.069-1.148,0-2.018.022-2.627.069v-46.955Zm-46.64-.011c.659.069,1.246.138,1.746.196.501.069,1.001.112,1.5.16.5.036.909.058,1.24.058s.76-.022,1.279-.058c.511-.047,1.018-.091,1.499-.16.49-.058,1.069-.127,1.728-.196v32.156c1.826-2.217,3.786-4.72,5.873-7.521,2.09-2.79,4.08-5.555,5.985-8.261,1.899-2.721,3.838-5.555,5.786-8.501,1.96-2.95,3.677-5.624,5.134-8.011.401.047,1.04.069,1.92.069,1.199,0,2.08-.022,2.637-.069v47.103c-.478-.022-1.218-.08-2.239-.16-1.007-.08-1.78-.112-2.319-.112-.467,0-1.199.036-2.196.112-.99.08-1.739.138-2.239.16v-32.431c-1.757,2.286-3.526,4.651-5.315,7.086-1.789,2.445-3.826,5.29-6.127,8.548-2.297,3.244-4.394,6.273-6.293,9.074-1.899,2.79-3.598,5.37-5.116,7.724-.439-.047-1.059-.069-1.859-.069-1.148,0-2.018.022-2.627.069v-46.965Zm-36.64,0c.188.011.829.08,1.949.218,1.109.127,1.957.196,2.536.196.33,0,.761-.022,1.279-.058.511-.047,1.018-.091,1.5-.16.489-.058,1.068-.127,1.728-.196v21.46c5.303-6.97,10.5-14.124,15.587-21.46.449.069.847.138,1.188.196.351.069.709.112,1.098.16.38.036.692.058.948.058.392,0,.99-.069,1.808-.196.822-.138,1.283-.207,1.369-.218v.537c-2.735,2.982-5.594,6.331-8.579,10.046-2.978,3.715-5.297,6.708-6.945,8.958l16.724,26.536v.893c-.528-.022-1.387-.08-2.586-.16-1.207-.08-2.036-.112-2.508-.112-.528,0-1.387.036-2.586.112-1.192.08-2.029.138-2.518.16l-12.999-21.736v21.736c-.518-.022-1.268-.08-2.258-.16-.989-.08-1.739-.112-2.25-.112-.478,0-1.217.036-2.196.112-.982.08-1.739.138-2.289.16v-46.969Zm-24.931,42.866c1.66,0,2.979-.17,3.95-.49,1.837-.584,3.188-1.702,4.047-3.371.87-1.669,1.297-3.657,1.297-5.954,0-2.674-.529-4.858-1.598-6.538-1.068-1.68-2.398-2.514-3.978-2.514h-3.718v18.866Zm0-22.639h5.758c4.206,0,7.394.972,9.572,2.902,2.166,1.945,3.257,4.833,3.257,8.686,0,5.565-1.449,9.44-4.337,11.61-2.887,2.18-6.616,3.269-11.18,3.269h-12.058V31.824c.508.022,1.218.069,2.138.149.928.08,1.707.127,2.348.127.637,0,1.417-.047,2.336-.127.932-.08,1.649-.127,2.17-.149l-.004,20.502Zm-55.031-20.227c.66.069,1.246.138,1.747.196.5.069.999.112,1.499.16.501.036.91.058,1.24.058s.76-.022,1.279-.058c.511-.047,1.018-.091,1.5-.16.489-.058,1.068-.127,1.727-.196v18.579c4.975.229,8.033.33,9.16.33.92,0,3.978-.102,9.184-.33v-18.579c.659.069,1.24.138,1.718.196.489.069.978.112,1.478.16.512.036.921.058,1.24.058.362,0,.812-.022,1.341-.069.539-.047,1.036-.102,1.507-.16.482-.058,1.051-.116,1.71-.181v46.966c-.482-.022-1.221-.08-2.239-.16-1.007-.08-1.779-.112-2.319-.112-.467,0-1.199.036-2.199.112-.99.08-1.736.138-2.236.16v-22.9c-4.159-.185-7.214-.276-9.184-.276-2.127,0-5.174.091-9.16.276v22.9c-.521-.022-1.271-.08-2.261-.16-.989-.08-1.738-.112-2.246-.112-.489,0-1.24.036-2.239.112-.99.08-1.739.138-2.247.16v-46.969Zm-7.673,0c-.2,1.669-.312,2.652-.312,2.95,0,.287.112,1.27.312,2.95-4.217-.638-8.855-.961-13.909-.961v14.81h6.293c1.689,0,4.148-.207,7.384-.617-.207,1.408-.308,2.366-.308,2.87,0,.468.101,1.462.308,2.961-2.336-.366-4.793-.548-7.384-.548h-6.293v17.346c5.055,0,9.692-.319,13.909-.961-.2,1.68-.312,2.663-.312,2.95,0,.297.112,1.281.312,2.95h-22.902v-46.697h22.902Zm-47.253.207c.159,0,.352-.011.58-.022.228-.022.459-.047.698-.08.228-.036.439-.069.62-.091.181-.036.409-.058.682-.08,1.337,4.158,2.536,7.829,3.587,11.004,1.058,3.167,2.377,7.086,3.985,11.759,1.598,4.673,2.859,8.308,3.785,10.913.921,2.605,2.49,7.039,4.718,13.29-.74-.069-1.41-.138-1.997-.196-.59-.069-1.188-.112-1.789-.149-.609-.047-1.098-.069-1.479-.069s-.88.022-1.507.069c-.631.047-1.228.102-1.807.16-.57.058-1.229.112-1.968.181-.671-2.583-1.431-5.29-2.279-8.123-.859-2.844-1.63-5.315-2.319-7.427-.689-2.115-1.649-5.029-2.876-8.755-1.24-3.726-2.29-6.937-3.149-9.633-4.855,13.449-8.571,24.765-11.152,33.941-.949-.138-1.888-.207-2.818-.207s-1.848.069-2.747.207c1.7-4.535,3.246-8.686,4.667-12.466,1.41-3.77,2.779-7.496,4.105-11.142,1.318-3.646,2.659-7.427,3.996-11.349,1.348-3.907,2.659-7.92,3.946-12.009.058,0,.409.047,1.051.138.637.091,1.13.138,1.471.138l-.004-.004Zm-36.919,28.317l-5.337-15.974-5.626,15.974h10.963Zm-12.59,4.183c-.351,1.19-.84,2.801-1.479,4.8-.63,2.01-1.177,3.784-1.619,5.315-.449,1.52-.818,2.881-1.098,4.078-.257-.022-.71-.069-1.359-.127-.648-.058-1.13-.08-1.449-.08-.33,0-.801.022-1.431.08-.62.058-1.109.102-1.46.127l17.145-47.517c.778.138,1.529.207,2.278.207.74,0,1.5-.069,2.279-.207l16.724,47.586c-.598-.022-1.467-.08-2.627-.16-1.16-.08-2.018-.112-2.598-.112-.569,0-1.427.036-2.569.112-1.137.08-1.978.138-2.529.16-1.807-6.618-3.228-11.37-4.257-14.262h-13.959.007Zm-23.032-32.707c.091.011.449.08,1.068.218.62.127,1.08.196,1.399.196.21,0,.478-.022.79-.069.319-.047.608-.102.88-.16.268-.058.597-.112.978-.181.5,4.96,1.029,10.126,1.558,15.506.539,5.384.938,9.302,1.199,11.77.261,2.467.608,5.497,1.058,9.096.45,3.599.932,7.129,1.449,10.594-.579-.022-1.42-.08-2.528-.16s-1.939-.112-2.508-.112-1.369.036-2.398.112c-1.04.08-1.837.138-2.398.16-.109-2.561-.261-5.221-.46-7.989-.199-2.765-.409-5.279-.62-7.543-.21-2.264-.427-4.615-.659-7.06-.228-2.456-.511-5.529-.84-9.223-.751,1.749-1.819,4.205-3.207,7.405-1.387,3.189-2.569,5.943-3.546,8.272-.979,2.329-2.138,5.108-3.479,8.341-1.337,3.247-2.359,5.747-3.076,7.521h-2.278c-.649-1.622-1.66-4.067-3.058-7.358-1.387-3.28-2.456-5.805-3.217-7.543-.761-1.749-1.909-4.412-3.446-8-1.54-3.577-2.677-6.229-3.406-7.953-1.54,13.565-2.377,23.942-2.517,31.129-.312-.022-.779-.08-1.41-.16-.62-.08-1.09-.112-1.398-.112-.32,0-.79.036-1.388.112-.601.08-1.08.138-1.438.16,1.007-6.204,1.949-12.764,2.829-19.668.88-6.904,1.989-16,3.348-27.301.37.069.682.123.938.181.25.058.518.116.801.16.29.047.529.069.721.069s.431-.022.739-.069c.312-.047.591-.102.83-.16.239-.058.539-.113.887-.181,1.337,3.269,2.42,5.874,3.246,7.829.818,1.945,1.909,4.492,3.268,7.623,1.359,3.131,2.655,6.102,3.905,8.936,1.24,2.834,2.388,5.438,3.427,7.84.301-.664,1.199-2.652,2.678-5.954,1.488-3.291,2.866-6.4,4.166-9.313,1.29-2.913,2.558-5.841,3.797-8.776,1.239-2.924,2.347-5.656,3.318-8.181l-.003-.004Z"/>
  </g>
</svg>