<?xml version="1.0" standalone="no"?>
<!DOCTYPE svg PUBLIC "-//W3C//DTD SVG 20010904//EN" "http://www.w3.org/TR/2001/REC-SVG-20010904/DTD/svg10.dtd">
<svg version="1.0" xmlns="http://www.w3.org/2000/svg"
    width="608.000000pt" height="608.000000pt" viewBox="0 0 608.000000 308.000000"
    preserveAspectRatio="xMidYMid meet">

    <g transform="translate(0.000000,608.000000) scale(0.100000,-0.100000)"
        fill="#fff" stroke="none">
        <path
            d="M4230 4419 c-205 -23 -434 -87 -584 -164 -221 -113 -391 -290 -496
-518 -63 -138 -90 -240 -45 -170 10 15 50 66 89 112 166 198 403 357 656 442
109 36 262 71 271 61 5 -5 133 -1061 142 -1170 2 -21 -9 -27 -108 -61 -143
-49 -197 -72 -295 -121 -343 -172 -574 -410 -686 -705 -25 -67 -76 -256 -71
-262 2 -1 29 48 60 110 67 132 119 204 224 309 246 248 622 402 1113 456 l65
7 -3 40 c-4 42 -207 1555 -217 1613 -4 22 -11 32 -23 31 -9 -1 -51 -5 -92 -10z" />
        <path
            d="M1565 4145 c-49 -8 -96 -16 -104 -17 -12 -2 -44 -203 -147 -903 -73
-495 -131 -901 -130 -902 1 -1 54 4 117 12 168 22 481 30 624 16 304 -30 544
-110 760 -253 77 -51 266 -229 334 -313 30 -38 30 -36 -13 50 -241 490 -653
727 -1343 770 -102 7 -113 9 -113 27 0 10 36 307 80 658 44 351 80 641 80 644
0 12 278 5 380 -8 315 -42 606 -167 846 -362 31 -25 57 -44 59 -42 2 2 -33 48
-79 103 -223 271 -478 434 -786 507 -115 27 -434 34 -565 13z" />
        <path
            d="M4476 4129 c4 -22 194 -1515 194 -1523 0 -2 -69 -6 -152 -10 -347
-16 -577 -66 -803 -175 -263 -126 -475 -346 -585 -606 l-21 -50 103 102 c129
127 154 148 256 216 220 148 481 236 792 268 140 15 430 7 589 -16 62 -9 114
-15 115 -13 2 2 -57 406 -130 898 -73 492 -133 898 -134 901 0 9 -43 17 -142
25 l-86 7 4 -24z" />
        <path
            d="M4844 3768 c11 -48 198 -1589 194 -1593 -2 -2 -46 4 -98 15 -226 46
-308 54 -560 54 -192 1 -265 -3 -337 -17 -252 -48 -455 -134 -639 -270 -68
-50 -254 -231 -254 -247 0 -5 30 12 68 37 80 54 229 130 327 166 426 159 942
147 1519 -34 70 -22 130 -39 131 -37 3 3 -246 1801 -260 1873 -4 22 -16 36
-45 53 -21 12 -42 22 -45 22 -3 0 -3 -10 -1 -22z" />
        <path
            d="M1256 3740 c-32 -16 -62 -32 -67 -37 -4 -4 -46 -251 -93 -548 -47
-297 -115 -722 -150 -945 -36 -222 -63 -406 -61 -408 2 -2 63 17 137 43 165
57 356 108 513 136 170 30 496 38 655 15 277 -40 525 -133 751 -282 46 -30 84
-54 86 -54 12 0 -102 131 -172 199 -246 236 -546 350 -989 375 -169 9 -503
-22 -718 -67 -38 -8 -68 -11 -68 -6 0 4 56 364 125 799 69 435 125 796 125
801 0 13 -8 11 -74 -21z" />
    </g>
</svg>