<svg xmlns="http://www.w3.org/2000/svg" viewBox="0 0 238.97 273.739">
    <defs>
        <style>
            .cls-1 {
            fill: #e5e5e5;
            }
        </style>
    </defs>
    <g>
        <path class="cls-1"
            d="m120.228,122.834c-2.397,0-4.341-1.944-4.341-4.341V4.341c0-2.397,1.944-4.341,4.341-4.341s4.341,1.944,4.341,4.341v114.153c-.001,2.396-1.944,4.34-4.341,4.34Z" />
        <path class="cls-1"
            d="m119.857,86.082c-1.111,0-2.221-.424-3.069-1.272l-37.866-37.865c-1.696-1.694-1.696-4.443,0-6.138,1.693-1.696,4.442-1.696,6.138,0l34.797,34.795,34.054-34.053c1.693-1.696,4.445-1.696,6.138,0,1.696,1.695,1.696,4.443,0,6.138l-37.123,37.123c-.847.848-1.959,1.272-3.069,1.272Z" />
        <path class="cls-1"
            d="m119.695,46.825c-1.111,0-2.222-.424-3.069-1.272l-18.805-18.805c-1.696-1.695-1.696-4.443,0-6.138,1.693-1.695,4.445-1.695,6.138,0l15.736,15.735,16.269-16.268c1.693-1.696,4.445-1.696,6.138,0,1.695,1.694,1.695,4.443,0,6.138l-19.338,19.338c-.847.848-1.959,1.272-3.069,1.272Z" />
    </g>
    <g>
        <path class="cls-1"
            d="m103.938,131.38c-.736,0-1.483-.188-2.166-.583L2.913,73.721c-2.076-1.199-2.787-3.853-1.589-5.929,1.197-2.077,3.853-2.789,5.929-1.589l98.859,57.076c2.076,1.198,2.787,3.853,1.589,5.929-.803,1.393-2.262,2.172-3.763,2.172Z" />
        <path class="cls-1"
            d="m20.202,127.185c-1.916,0-3.67-1.279-4.189-3.219-.621-2.316.753-4.696,3.069-5.316l47.531-12.736-12.464-46.519c-.621-2.315.753-4.696,3.069-5.316,2.312-.625,4.695.752,5.316,3.069l13.588,50.711c.299,1.112.142,2.296-.433,3.294-.575.997-1.524,1.724-2.636,2.022l-51.724,13.859c-.377.104-.756.151-1.127.151Z" />
        <path class="cls-1"
            d="m12.159,100.72c-1.916,0-3.67-1.279-4.189-3.219-.621-2.315.753-4.696,3.069-5.316l21.495-5.76-5.955-22.224c-.621-2.316.754-4.696,3.069-5.316,2.314-.626,4.696.752,5.316,3.069l7.079,26.416c.299,1.112.142,2.297-.433,3.294-.576.997-1.524,1.724-2.636,2.022l-25.688,6.883c-.377.104-.755.151-1.127.151Z" />
    </g>
    <g>
        <path class="cls-1"
            d="m4.346,206.831c-1.501,0-2.96-.779-3.763-2.171-1.199-2.076-.488-4.731,1.589-5.929l98.858-57.076c2.076-1.202,4.732-.487,5.929,1.589,1.199,2.076.488,4.731-1.589,5.929L6.512,206.249c-.684.395-1.43.582-2.166.582Z" />
        <path class="cls-1"
            d="m57.702,220.178c-.372,0-.75-.048-1.126-.149-2.316-.62-3.69-3-3.069-5.316l12.735-47.533-46.518-12.465c-2.315-.62-3.69-3-3.069-5.316.619-2.317,3-3.695,5.316-3.069l50.711,13.588c2.315.62,3.69,3,3.069,5.316l-13.859,51.725c-.52,1.94-2.274,3.219-4.19,3.219Z" />
        <path class="cls-1"
            d="m30.761,213.911c-.372,0-.75-.048-1.126-.149-2.316-.62-3.69-3-3.069-5.316l5.759-21.496-22.223-5.956c-2.316-.62-3.69-3-3.069-5.316.619-2.316,3.001-3.698,5.316-3.069l26.416,7.079c2.316.62,3.69,3,3.069,5.316l-6.883,25.688c-.52,1.94-2.274,3.219-4.19,3.219Z" />
    </g>
    <g>
        <path class="cls-1"
            d="m118.743,273.739c-2.397,0-4.341-1.944-4.341-4.341v-114.153c0-2.397,1.944-4.341,4.341-4.341s4.341,1.944,4.341,4.341v114.153c0,2.397-1.944,4.341-4.341,4.341Z" />
        <path class="cls-1"
            d="m156.98,234.203c-1.111,0-2.222-.424-3.069-1.272l-34.797-34.796-34.054,34.053c-1.693,1.696-4.445,1.696-6.138,0-1.696-1.695-1.696-4.444,0-6.138l37.123-37.123c1.694-1.696,4.445-1.696,6.138,0l37.866,37.866c1.696,1.695,1.696,4.444,0,6.138-.847.848-1.959,1.272-3.069,1.272Z" />
        <path class="cls-1"
            d="m99.938,254.933c-1.111,0-2.221-.424-3.069-1.272-1.696-1.695-1.696-4.443,0-6.138l19.338-19.339c1.628-1.628,4.51-1.628,6.138,0l18.805,18.805c1.696,1.695,1.696,4.443,0,6.138-1.694,1.696-4.445,1.696-6.138,0l-15.736-15.735-16.269,16.269c-.847.848-1.958,1.272-3.069,1.272Z" />
    </g>
    <g>
        <path class="cls-1"
            d="m233.882,208.118c-.737,0-1.483-.188-2.166-.583l-98.858-57.077c-2.076-1.199-2.787-3.853-1.589-5.929s3.854-2.788,5.929-1.589l98.858,57.077c2.076,1.198,2.787,3.853,1.589,5.929-.803,1.393-2.262,2.172-3.763,2.172Z" />
        <path class="cls-1"
            d="m180.626,219.807c-1.916,0-3.67-1.279-4.189-3.218l-13.588-50.711c-.299-1.112-.142-2.297.433-3.294.576-.997,1.524-1.724,2.636-2.022l51.725-13.859c2.313-.625,4.695.752,5.316,3.069.621,2.316-.754,4.696-3.069,5.316l-47.532,12.736,12.464,46.519c.621,2.316-.753,4.696-3.069,5.316-.377.1-.755.148-1.127.148Z" />
        <path class="cls-1"
            d="m208.195,215.001c-1.916,0-3.67-1.279-4.189-3.218l-7.078-26.416c-.621-2.316.754-4.696,3.069-5.316l25.688-6.884c2.315-.624,4.696.752,5.316,3.069.621,2.315-.753,4.696-3.069,5.316l-21.495,5.761,5.954,22.224c.621,2.316-.753,4.696-3.069,5.316-.377.1-.755.148-1.127.148Z" />
    </g>
    <g>
        <path class="cls-1"
            d="m135.774,132.666c-1.501,0-2.96-.779-3.763-2.171-1.199-2.076-.487-4.731,1.589-5.929l98.859-57.077c2.076-1.202,4.732-.487,5.929,1.589,1.199,2.076.487,4.731-1.589,5.929l-98.86,57.077c-.682.395-1.428.582-2.165.582Z" />
        <path class="cls-1"
            d="m218.126,127.556c-.372,0-.75-.048-1.126-.149l-50.71-13.588c-2.316-.62-3.69-3-3.069-5.316l13.859-51.724c.619-2.317,3.001-3.696,5.316-3.069,2.315.62,3.69,3,3.069,5.316l-12.735,47.532,46.516,12.465c2.316.62,3.69,3,3.069,5.316-.519,1.938-2.273,3.217-4.189,3.217Z" />
        <path class="cls-1"
            d="m227.749,101.278c-.372,0-.75-.048-1.126-.149l-26.417-7.078c-1.112-.298-2.06-1.025-2.636-2.022-.575-.997-.732-2.182-.433-3.294l6.883-25.688c.619-2.317,2.996-3.7,5.316-3.069,2.315.62,3.69,3,3.069,5.316l-5.759,21.496,22.224,5.955c2.315.62,3.69,3,3.069,5.316-.52,1.938-2.273,3.217-4.19,3.217Z" />
    </g>
    <path class="cls-1"
        d="m119.485,159.586c-12.526,0-22.717-10.19-22.717-22.717s10.191-22.717,22.717-22.717,22.717,10.19,22.717,22.717-10.191,22.717-22.717,22.717Zm0-36.752c-7.739,0-14.035,6.296-14.035,14.035s6.296,14.035,14.035,14.035,14.035-6.296,14.035-14.035-6.296-14.035-14.035-14.035Z" />
    <g>
        <path class="cls-1"
            d="m103.049,86.598l-15.277-15.038c-1.378-1.357-3.489-1.638-5.176-.688-1.686.95-2.539,2.902-2.092,4.784l5.208,21.932c.271,1.144.995,2.128,2.005,2.729l10.171,6.046c.684.406,1.451.609,2.218.609.746,0,1.492-.192,2.161-.577,1.36-.78,2.191-2.232,2.18-3.798l-.102-12.941c-.009-1.15-.474-2.25-1.296-3.058Z" />
        <path class="cls-1"
            d="m84.486,136.543c.003-1.567-.837-3.014-2.2-3.786l-11.258-6.382c-1-.57-2.192-.714-3.297-.408l-20.661,5.712c-1.865.516-3.164,2.204-3.185,4.138-.02,1.935,1.243,3.65,3.098,4.204l21.598,6.457c.407.122.826.182,1.243.182.737,0,1.469-.188,2.123-.554l10.321-5.787c1.367-.767,2.215-2.21,2.218-3.776Z" />
        <path class="cls-1"
            d="m101.702,167.017c-1.355-.789-3.028-.783-4.379.012l-11.156,6.558c-.992.583-1.713,1.538-2.002,2.652l-5.383,20.75c-.485,1.874.326,3.842,1.992,4.827.687.406,1.45.604,2.208.604,1.082,0,2.155-.404,2.981-1.185l16.391-15.477c.855-.806,1.346-1.926,1.361-3.102l.148-11.831c.02-1.567-.805-3.022-2.161-3.808Z" />
        <path class="cls-1"
            d="m153.259,176.149c-.271-1.143-.995-2.129-2.006-2.729l-10.173-6.045c-1.345-.8-3.019-.813-4.379-.033-1.359.78-2.19,2.232-2.179,3.798l.102,12.941c.009,1.152.475,2.252,1.296,3.059l15.277,15.038c.833.82,1.933,1.247,3.046,1.247.729,0,1.462-.183,2.13-.56,1.686-.95,2.539-2.901,2.092-4.784l-5.206-21.932Z" />
        <path class="cls-1"
            d="m191.987,133.718l-21.598-6.457c-1.126-.337-2.34-.203-3.366.372l-10.322,5.786c-1.366.766-2.214,2.21-2.218,3.776s.837,3.014,2.2,3.786l11.258,6.383c.658.374,1.397.565,2.141.565.388,0,.777-.052,1.156-.157l20.662-5.712c1.865-.516,3.164-2.203,3.185-4.138.02-1.936-1.243-3.65-3.098-4.204Z" />
        <path class="cls-1"
            d="m137.267,106.722c.674.392,1.426.587,2.179.587.761,0,1.521-.199,2.2-.599l11.156-6.559c.992-.584,1.713-1.538,2.002-2.651l5.385-20.749c.485-1.874-.326-3.841-1.992-4.827-1.667-.986-3.784-.748-5.19.581l-16.391,15.476c-.854.807-1.346,1.926-1.361,3.101l-.149,11.832c-.02,1.566.806,3.021,2.161,3.808Z" />
    </g>
</svg>