<?xml version="1.0" encoding="iso-8859-1"?>
<!-- Uploaded to: SVG Repo, www.svgrepo.com, Generator: SVG Repo Mixer Tools -->
<svg version="1.1" id="Layer_1" xmlns="http://www.w3.org/2000/svg" xmlns:xlink="http://www.w3.org/1999/xlink" 
	 viewBox="0 0 512.003 512.003" xml:space="preserve">
<path style="fill:#FFBCAB;" d="M468.368,193.467c-7.66-4.34-10.746-13.833-7.099-21.847c23.785-52.259-23.581-113.171-81.814-99.758
	l-0.086,0.021c-0.78,0.185-1.589,0.279-2.387,0.184c-3.728-0.442-6.302-3.333-6.592-6.687c-4.4-50.854-57.908-77.443-99.845-60.066
	c-9.254,3.835-19.609,3.969-28.849,0.099c-41.93-17.56-95.567,8.963-100.071,59.813c-0.1,1.127-0.392,2.245-0.972,3.216
	c-1.726,2.89-4.989,4.149-8.019,3.44c-0.029-0.007-0.058-0.014-0.086-0.021c-58.233-13.413-105.599,47.498-81.814,99.758
	c3.648,8.014,0.563,17.507-7.099,21.847c-47.563,26.941-47.563,98.129,0,125.07c7.66,4.34,10.746,13.832,7.099,21.846
	c-22.666,49.801,19.283,107.458,73.673,101.165c8.726-1.009,16.669,4.915,18.425,13.523c9.285,45.52,59.584,68.234,99.226,51.365
	c8.885-3.781,19.002-3.781,27.887,0c39.642,16.869,89.942-5.844,99.226-51.365c1.755-8.607,9.7-14.532,18.425-13.523
	c54.391,6.293,96.34-51.365,73.673-101.165c-3.648-8.014-0.563-17.507,7.099-21.846
	C515.932,291.596,515.932,220.408,468.368,193.467z"/>
<path style="fill:#FF9478;" d="M369.159,455.07c1.76-8.627,9.841-14.494,18.591-13.502c54.314,6.162,96.161-51.431,73.518-101.184
	c-3.648-8.014-0.56-17.507,7.1-21.846c47.563-26.941,47.563-98.13,0.001-125.07c-7.66-4.34-10.746-13.833-7.097-21.847
	c23.785-52.259-23.581-113.171-81.814-99.758c-0.029,0.007-0.058,0.014-0.086,0.021c-2.073,0.485-4.252,0.049-5.976-1.198
	c-1.723-1.249-2.832-3.183-3.015-5.303c-4.929-56.979-71.82-83.496-114.402-51.839v484.918
	C296.255,528.509,358.742,506.147,369.159,455.07z"/>
<g>
	<rect x="146.646" y="241.559" style="fill:#FF7956;" width="218.666" height="34.526"/>
	<path style="fill:#FF7956;" d="M238.712,507.748c0.693-0.253,1.383-0.517,2.07-0.793c9.803-3.938,20.657-3.926,30.461,0.009
		c0.663,0.266,1.328,0.521,1.996,0.765V4.27c-0.668,0.244-1.333,0.499-1.996,0.765c-9.804,3.936-20.658,3.949-30.461,0.009
		c-0.687-0.276-1.376-0.541-2.069-0.793v503.496H238.712z"/>
</g>
<g>
	<path style="fill:#FF6243;" d="M168.193,242.043c-3.676-20.716-14.583-40.514-31.367-54.669c-7.283-6.148-18.17-5.094-24.318,2.195
		c-6.148,7.306-5.257,18.185,2.049,24.327c12.981,10.953,20.576,26.906,20.576,43.77c0,0.119,0,0.23,0,0.349
		c0,16.741-7.282,32.6-20.026,43.619c-7.226,6.226-8.002,17.107-1.776,24.317c6.238,7.21,17.146,7.942,24.35,1.704
		c15.502-13.396,25.911-31.52,30.012-51.085C170.055,265.304,170.204,253.376,168.193,242.043z"/>
	<path style="fill:#FF6243;" d="M344.306,276.57c4.101,19.565,14.51,37.689,30.012,51.085c7.204,6.238,18.109,5.573,24.347-1.638
		c6.226-7.21,5.432-18.123-1.795-24.349c-12.745-11.02-20.052-26.912-20.052-43.653c0-0.119,0-0.23,0-0.349
		c0-16.864,7.621-32.85,20.603-43.803c7.306-6.142,8.216-17.055,2.068-24.359c-6.148-7.288-17.032-8.276-24.314-2.129
		c-16.784,14.155-27.691,33.953-31.367,54.669C341.795,253.376,341.944,265.304,344.306,276.57z"/>
	<path style="fill:#FF6243;" d="M240.428,345.439c-20.716,3.676-40.514,14.583-54.669,31.367c-6.148,7.283-5.094,18.17,2.195,24.318
		c7.306,6.148,18.185,5.263,24.327-2.043c10.953-12.981,26.906-20.571,43.77-20.571c0.119,0,0.23,0,0.349,0
		c16.741,0,32.6,7.276,43.619,20.021c6.226,7.226,17.107,8,24.317,1.773c7.21-6.238,7.942-17.147,1.704-24.351
		c-13.396-15.502-31.52-25.912-51.085-30.012C263.689,343.578,251.76,343.428,240.428,345.439z"/>
	<path style="fill:#FF6243;" d="M274.954,169.328c19.565-4.101,37.689-14.51,51.085-30.012c6.238-7.204,5.573-18.109-1.638-24.347
		c-7.21-6.226-18.123-5.425-24.349,1.801c-11.02,12.745-26.912,20.057-43.653,20.057c-0.117,0-0.23,0-0.349,0
		c-16.864,0-32.851-7.628-43.803-20.609c-6.142-7.306-17.055-8.218-24.359-2.07c-7.288,6.148-8.276,17.031-2.129,24.313
		c14.155,16.784,33.953,27.69,54.669,31.366C251.76,171.838,263.689,171.688,274.954,169.328z"/>
</g>
</svg>