<!-- icon666.com - MILLIONS vector ICONS FREE -->
<svg version="1.1" id="Capa_1" xmlns="http://www.w3.org/2000/svg"
    xmlns:xlink="http://www.w3.org/1999/xlink" x="0px" y="0px" viewBox="0 0 512 512"
    style="enable-background:new 0 0 512 512;" xml:space="preserve"><g><g><path d="M304.305,148.125c-29.355,0-38.466,22.163-38.554,22.383l-13.946,35.303l-13.901-35.186 c-1.084-2.52-10.532-22.5-38.599-22.5c-21.372,0-37.5,17.783-37.5,41.367c0,28.74,27.232,51.489,72.364,89.15 c5.654,4.717,11.543,9.639,17.636,14.795c6.094-5.156,11.983-10.078,17.637-14.795c45.132-37.661,72.363-60.41,72.363-89.15 C341.805,165.908,325.678,148.125,304.305,148.125z" fill="#000000" style="fill: rgb(255, 255, 255);"></path></g></g><g><g><path d="M434.104,243.223l3.019-6.035C495.31,120.777,384.253,0.938,253.681,0.231V0C141.18,0,41.846,92.183,43.854,213.627 c-0.773,45.992,19.389,102.144,59.826,143.253V512h210v-62.778c14.705,2.736,30.341,4.631,47.549,4.631 c20.522,0,38.657-13.081,45.146-32.549l24.067-72.158l37.734-37.749L434.104,243.223z M288.676,301.67 c-8.525,7.119-17.593,14.678-27.114,22.837l-9.756,8.379l-9.755-8.379c-9.521-8.159-18.589-15.718-27.114-22.837 c-50.054-41.792-83.13-69.39-83.13-112.178c0-40.02,29.649-71.367,67.5-71.367c25.547,0,42.232,10.547,52.5,20.991 c10.269-10.444,26.954-20.991,52.5-20.991c37.852,0,67.5,31.348,67.5,71.367C371.805,232.28,338.729,259.878,288.676,301.67z" fill="#000000" style="fill: rgb(255, 255, 255);"></path></g></g></svg>