<svg width="1162" height="857" viewBox="0 0 1162 857" fill="none" xmlns="http://www.w3.org/2000/svg">
<circle cx="603.5" cy="428.5" r="428.5" fill="#7CB342" fill-opacity="0.32"/>
<g clip-path="url(#clip0_401_246)">
<path d="M910.873 377.483C904.216 372.758 893.389 367.129 886.178 353.711C869.002 321.811 875.681 274.052 878.429 244.012C878.997 237.911 881.404 238.186 884.287 241.095C889.125 245.962 895.524 258.003 896.597 260.23C924.373 317.46 935.921 363.688 933.291 376.012C930.548 389.024 914.973 380.394 910.873 377.483Z" fill="#7CB342"/>
<mask id="mask0_401_246" style="mask-type:luminance" maskUnits="userSpaceOnUse" x="874" y="239" width="60" height="144">
<path d="M910.873 377.483C904.216 372.758 893.389 367.129 886.178 353.711C869.002 321.811 875.681 274.052 878.429 244.012C878.997 237.911 881.404 238.186 884.287 241.095C889.125 245.962 895.524 258.003 896.597 260.23C924.373 317.46 935.921 363.688 933.291 376.012C930.548 389.024 914.973 380.394 910.873 377.483V377.483Z" fill="white"/>
</mask>
<g mask="url(#mask0_401_246)">
<path d="M932.475 393.455C947.742 367.012 938.463 352.012 938.463 352.012C925.7 274.078 883.88 228.779 883.88 228.779L877.287 239.076C888.154 245.894 915.782 331.218 918.798 362.409C919.973 374.519 917.671 381.2 917.671 381.2L932.475 393.455Z" fill="#BDCF46"/>
</g>
<path d="M971.236 178.681C976.826 171.694 1005.07 150.336 1023.99 159.698C1036.98 166.111 1045.03 186.027 1038.52 205.833C1032.23 224.939 1026.71 245.418 1009.32 256.767C994.851 266.198 970.418 273.09 959.701 253.889C947.667 232.346 954.5 199.453 971.236 178.681Z" fill="#376EB3"/>
<path d="M983.409 185.346C986.932 180.951 1004.67 167.552 1016.56 173.405C1024.73 177.446 1029.8 189.942 1025.69 202.418C1021.73 214.442 1018.24 227.308 1007.33 234.439C998.221 240.38 982.844 244.697 976.114 232.645C968.57 219.087 972.909 198.415 983.409 185.346Z" fill="#4B8EEA"/>
<path d="M920.364 374.019C919.637 374.74 918.843 375.396 918.041 376.022C916.563 377.191 915.084 378.359 913.567 379.505C912.304 380.435 910.873 381.657 909.151 381.362C906.989 381.021 904.952 379.431 903.485 377.884C897.382 371.483 903.942 366.093 908.215 361.431C916.806 352.029 925.358 342.424 932.49 331.868C939.843 320.974 945.662 309.142 952.229 297.768C952.353 297.554 955.044 292.938 954.869 292.837L969.373 301.211L966.298 306.538C961.538 314.782 956.809 323.018 951.886 331.141C942.716 346.171 933.32 361.771 920.364 374.019Z" fill="#7CB342"/>
<path d="M884.428 372.143C893.805 363.714 939.594 350.59 1003.04 346.03C1005.51 345.846 1019.17 345.359 1025.77 347.123C1029.73 348.165 1031.19 350.124 1026.17 353.655C1001.53 371.055 963.512 400.719 927.297 401.794C912.082 402.238 901.783 395.696 894.363 392.293C889.822 390.19 874.561 381.016 884.428 372.143Z" fill="#7CB342"/>
<mask id="mask1_401_246" style="mask-type:luminance" maskUnits="userSpaceOnUse" x="881" y="345" width="149" height="57">
<path d="M884.428 372.143C893.805 363.714 939.594 350.59 1003.04 346.03C1005.51 345.846 1019.17 345.359 1025.77 347.123C1029.73 348.165 1031.19 350.124 1026.17 353.655C1001.53 371.055 963.512 400.719 927.297 401.794C912.082 402.238 901.783 395.696 894.363 392.293C889.822 390.19 874.561 381.016 884.428 372.143Z" fill="white"/>
</mask>
<g mask="url(#mask1_401_246)">
<path d="M887.776 388.257C887.776 388.257 892.411 382.922 903.486 377.884C931.987 364.889 1019.71 346.166 1031.05 352.167L1036.67 341.309C1036.67 341.309 976.532 327.742 902.657 355.655C902.657 355.655 885.038 355.101 869.761 381.563L887.776 388.257Z" fill="#BDCF46"/>
</g>
<path d="M1045.81 189.976C1053.51 187.813 1067.41 184.876 1071.41 199.962C1071.02 193.441 1069.81 188.54 1068.29 185.15C1066 179.963 1061.94 176.974 1056.2 177.363C1029.9 179.134 996.866 206.311 975.768 235.401C975.121 236.297 973.755 238.438 972.004 241.471C980.365 230.537 988.857 222.114 991.289 219.967C1008.24 205.103 1030.42 194.313 1045.81 189.976Z" fill="#376EB3"/>
<path d="M1052.7 273.362C1068.52 238.865 1072.26 215.051 1071.39 199.951C1067.4 184.865 1053.49 187.802 1045.79 189.965C1030.92 194.162 1009.66 204.443 992.941 218.588C991.11 196.973 986.358 172.246 975.45 162.267C971.465 158.618 966.574 154.472 956.546 159.493C952.907 161.306 948.291 164.63 943.183 169.976C935.427 180.716 927.139 195.296 918.986 214.984C911.53 232.973 910.737 245.84 910.458 250.32C908.34 282.591 932.652 299.842 937.26 302.502C957.501 317.688 975.845 319.413 976.115 319.439L976.154 319.461C981.24 321.024 1010.4 327.13 1032.64 303.62C1035.67 300.392 1044.59 291.05 1052.7 273.362Z" fill="#4B8EEA"/>
<path d="M975.45 162.267C993.683 178.912 994.753 236.822 993.62 252.525C993.516 253.917 992.651 258.603 990.956 264.727C994.259 255.279 996.056 247.451 996.439 245.261C999.72 225.794 1003.59 167.597 987.01 147.139C983.376 142.656 978.424 141.715 973.072 143.577C965.985 146.018 955.214 153.358 943.183 169.976C948.292 164.63 952.907 161.306 956.546 159.493C966.574 154.472 971.454 158.637 975.45 162.267Z" fill="#376EB3"/>
</g>
<g clip-path="url(#clip1_401_246)">
<path d="M243.005 605.601C234.621 607.897 222.679 613.017 206.76 609.903C168.892 602.527 134.058 564.8 111.167 542.266C106.523 537.682 108.375 535.885 112.716 535.472C119.99 534.771 134.226 537.626 136.785 538.244C202.67 553.98 248.542 575.659 256.92 586.142C265.788 597.181 248.169 604.188 243.005 605.601Z" fill="#7CB342"/>
<mask id="mask2_401_246" style="mask-type:luminance" maskUnits="userSpaceOnUse" x="108" y="535" width="152" height="76">
<path d="M243.005 605.601C234.621 607.897 222.679 613.017 206.76 609.903C168.892 602.527 134.058 564.8 111.167 542.266C106.523 537.682 108.375 535.885 112.716 535.472C119.99 534.771 134.226 537.626 136.785 538.244C202.67 553.98 248.542 575.659 256.92 586.142C265.788 597.181 248.169 604.188 243.005 605.601V605.601Z" fill="white"/>
</mask>
<g mask="url(#mask2_401_246)">
<path d="M270.737 598.583C259.257 568.165 240.639 565.687 240.639 565.687C167.829 523.614 102.296 527.498 102.296 527.498L106.329 539.876C119.277 535.526 208.206 570.339 235.935 588.901C246.703 596.105 250.653 602.51 250.653 602.51L270.737 598.583Z" fill="#BDCF46"/>
</g>
<path d="M119.972 421.734C117.988 412.415 119.455 374.734 139.928 365.474C153.977 359.098 175.813 365.907 187.737 384.633C199.233 402.704 212.375 421.073 209.991 443.053C207.998 461.334 197.189 486.112 174.142 481.983C148.275 477.36 125.79 449.537 119.972 421.734Z" fill="#EB4E9D"/>
<path d="M133.676 416.204C132.433 410.337 133.367 386.68 146.212 380.836C155.05 376.835 168.767 381.087 176.266 392.898C183.498 404.273 191.743 415.829 190.256 429.626C189.005 441.137 182.185 456.717 167.717 454.129C151.457 451.195 137.357 433.673 133.676 416.204Z" fill="#F387AB"/>
<path d="M246.556 595.445C246.659 596.53 246.664 597.627 246.638 598.71C246.604 600.716 246.569 602.723 246.489 604.746C246.403 606.414 246.444 608.417 245.039 609.637C243.299 611.188 240.614 611.792 238.351 611.957C228.96 612.665 228.946 603.625 227.989 596.959C226.041 583.538 223.899 570.012 220.016 557.015C216.003 543.607 210.184 530.829 205.245 517.745C205.152 517.499 203.166 512.168 202.964 512.244L219.65 505.946L221.963 512.074C225.542 521.558 229.135 531.01 232.505 540.547C238.698 558.242 245.209 576.508 246.556 595.445Z" fill="#7CB342"/>
<path d="M220.762 623.783C220.146 610.37 240.232 563.796 279.289 508.452C280.801 506.297 289.615 494.717 295.524 490.468C299.055 487.909 301.655 488.026 301.176 494.544C298.883 526.583 297.663 577.919 274.113 608.476C264.213 621.309 251.874 625.378 244.065 629.195C239.268 631.516 221.414 637.897 220.762 623.783Z" fill="#7CB342"/>
<mask id="mask3_401_246" style="mask-type:luminance" maskUnits="userSpaceOnUse" x="220" y="488" width="82" height="145">
<path d="M220.762 623.783C220.146 610.37 240.232 563.796 279.289 508.452C280.801 506.297 289.615 494.717 295.524 490.468C299.055 487.909 301.655 488.026 301.176 494.544C298.883 526.583 297.663 577.919 274.113 608.476C264.213 621.309 251.874 625.378 244.065 629.195C239.268 631.516 221.414 637.897 220.762 623.783Z" fill="white"/>
</mask>
<g mask="url(#mask3_401_246)">
<path d="M236.295 631.898C236.295 631.898 235.028 624.48 238.351 611.957C246.877 579.711 290.648 494.813 303.241 489.523L298.09 477.567C298.09 477.567 246.334 517.952 219.481 597.641C219.481 597.641 207.136 611.78 218.625 642.221L236.295 631.898Z" fill="#BDCF46"/>
</g>
<path d="M179.592 367.93C183.009 360.125 189.972 346.688 205.094 353.578C199.464 349.493 194.607 347.187 190.791 346.149C184.97 344.538 179.772 345.862 176.215 350.858C159.929 373.716 160.026 419.265 169.753 456.273C170.054 457.411 170.896 459.981 172.213 463.47C168.848 449.205 167.64 436.526 167.512 433.074C166.708 409.077 172.782 383.532 179.592 367.93Z" fill="#EA4E9C"/>
<path d="M252.933 418.516C235.192 382.207 218.1 363.055 205.071 353.586C189.95 346.696 182.987 360.133 179.57 367.938C172.996 383.017 167.122 407.465 167.491 430.783C148.45 417.706 124.875 404.936 109.295 407.188C103.6 408.009 96.8842 409.24 94.2538 420.888C93.2918 425.11 92.9158 431.154 93.8726 438.97C97.486 452.605 103.904 469.271 114.621 489.27C124.408 507.551 134.473 516.887 137.975 520.139C163.129 543.658 193.744 535.272 199.044 533.271C225.212 526.844 239.01 512.897 239.214 512.693L239.258 512.676C243.977 509.54 268.686 489.636 264.321 455.459C263.707 450.785 262.03 437.134 252.933 418.516Z" fill="#F387AB"/>
<path d="M109.295 407.188C135.308 403.4 183.734 441.593 195.905 453.123C196.982 454.147 200.258 458.021 204.159 463.55C198.605 454.455 193.369 447.692 191.824 445.899C178.002 430.061 132.67 387.608 104.633 387.458C98.4888 387.426 94.3718 390.871 92.2938 396.536C89.5229 404.021 88.3017 417.845 93.8728 438.97C92.916 431.154 93.2921 425.11 94.254 420.888C96.8845 409.24 103.608 408.031 109.295 407.188Z" fill="#EA4E9C"/>
</g>
<g clip-path="url(#clip2_401_246)">
<path d="M675.804 799.406C669.919 799.933 661.314 801.921 651.039 797.922C626.593 788.429 607.83 758.997 595.228 741.167C592.674 737.541 594.129 736.561 597.083 736.808C602.033 737.215 611.214 740.838 612.851 741.56C655.034 760.017 683.113 780.041 687.456 788.063C692.06 796.515 679.43 799.083 675.804 799.406Z" fill="#7CB342"/>
<mask id="mask4_401_246" style="mask-type:luminance" maskUnits="userSpaceOnUse" x="593" y="736" width="96" height="65">
<path d="M675.804 799.406C669.919 799.933 661.314 801.921 651.039 797.922C626.593 788.429 607.83 758.997 595.228 741.167C592.674 737.541 594.129 736.561 597.083 736.808C602.033 737.215 611.214 740.838 612.851 741.56C655.034 760.017 683.113 780.041 687.456 788.063C692.06 796.515 679.43 799.083 675.804 799.406V799.406Z" fill="white"/>
</mask>
<g mask="url(#mask4_401_246)">
<path d="M695.202 798.049C691.183 776.318 679.026 772.419 679.026 772.419C635.38 735.509 591.072 730.219 591.072 730.219L592.28 738.986C601.466 737.634 656.769 771.628 673.085 787.383C679.422 793.499 681.294 798.259 681.294 798.259L695.202 798.049Z" fill="#BDCF46"/>
</g>
<path d="M615.627 661.591C615.421 655.118 620.938 630.086 635.749 626.355C645.916 623.78 659.705 630.964 665.427 644.927C670.943 658.4 677.524 672.27 673.283 686.688C669.75 698.679 659.537 713.953 644.615 708.417C627.866 702.211 616.173 680.891 615.627 661.591Z" fill="#96CF95"/>
<path d="M625.461 659.541C625.335 655.466 628.808 639.752 638.104 637.388C644.499 635.776 653.163 640.271 656.758 649.075C660.227 657.556 664.352 666.279 661.697 675.33C659.474 682.88 653.037 692.482 643.669 689.01C633.144 685.09 625.82 671.67 625.461 659.541Z" fill="#B2F2BB"/>
<path d="M679.403 793.039C679.341 793.778 679.212 794.512 679.065 795.234C678.8 796.572 678.535 797.91 678.239 799.254C677.98 800.359 677.766 801.704 676.68 802.351C675.329 803.179 673.46 803.261 671.926 803.098C665.558 802.442 666.637 796.392 666.799 791.818C667.111 782.605 667.307 773.298 666.273 764.135C665.202 754.682 662.847 745.434 661.118 736.086C661.086 735.911 660.398 732.105 660.255 732.131L672.175 729.926L672.985 734.305C674.238 741.08 675.504 747.836 676.61 754.622C678.624 767.205 680.781 780.209 679.403 793.039Z" fill="#7CB342"/>
<path d="M658.736 808.893C659.938 799.846 678.981 771.105 711.772 738.781C713.043 737.522 720.333 730.835 724.798 728.704C727.468 727.417 729.193 727.809 728.088 732.111C722.698 753.27 715.703 787.466 696.27 805.074C688.102 812.468 679.358 813.705 673.674 815.318C670.186 816.294 657.473 818.414 658.736 808.893Z" fill="#7CB342"/>
<mask id="mask5_401_246" style="mask-type:luminance" maskUnits="userSpaceOnUse" x="658" y="728" width="71" height="89">
<path d="M658.736 808.893C659.938 799.846 678.981 771.105 711.772 738.781C713.043 737.522 720.333 730.835 724.798 728.704C727.468 727.417 729.193 727.809 728.088 732.111C722.698 753.27 715.703 787.466 696.27 805.074C688.102 812.468 679.358 813.705 673.674 815.318C670.186 816.294 657.473 818.414 658.736 808.893Z" fill="white"/>
</mask>
<g mask="url(#mask5_401_246)">
<path d="M668.15 816.191C668.15 816.191 668.196 811.076 671.926 803.099C681.512 782.553 721.013 731.024 730.074 729.001L728.067 720.382C728.067 720.382 688.582 741.17 661.025 791.25C661.025 791.25 651.064 799.223 655.087 820.97L668.15 816.191Z" fill="#BDCF46"/>
</g>
<path d="M661.989 632.772C665.214 627.962 671.49 619.811 680.777 626.24C677.502 622.83 674.53 620.703 672.103 619.549C668.402 617.771 664.765 618.03 661.784 620.945C648.138 634.277 642.72 664.76 644.773 690.689C644.838 691.487 645.092 693.308 645.553 695.8C645.018 685.852 645.736 677.225 646.066 674.9C648.417 658.749 655.555 642.391 661.989 632.772Z" fill="#96CF95"/>
<path d="M704.965 675.441C697.466 649.016 688.337 634.146 680.761 626.243C671.474 619.813 665.198 627.965 661.973 632.775C655.76 642.071 648.888 657.72 646.328 673.364C635.164 662.324 620.929 650.943 610.235 650.574C606.326 650.438 601.685 650.453 598.524 657.929C597.372 660.638 596.393 664.636 596.092 669.98C596.868 679.537 599.156 691.459 603.918 706.128C608.266 719.536 613.875 726.993 615.826 729.59C629.823 748.352 651.314 746.427 655.101 745.726C673.381 744.576 684.29 736.907 684.451 736.794L684.483 736.788C688.018 735.259 706.944 724.917 708.137 701.527C708.289 698.326 708.81 688.992 704.965 675.441Z" fill="#B2F2BB"/>
<path d="M610.235 650.574C628.094 651.171 655.893 682.551 662.648 691.729C663.245 692.544 664.97 695.53 666.915 699.699C664.294 692.945 661.605 687.791 660.787 686.405C653.447 674.146 628.23 640.289 609.491 636.814C605.384 636.053 602.216 637.862 600.144 641.402C597.389 646.076 594.908 655.177 596.092 669.98C596.393 664.636 597.372 660.638 598.524 657.929C601.686 650.453 606.329 650.454 610.235 650.574Z" fill="#96CF95"/>
</g>
<g clip-path="url(#clip3_401_246)">
<path d="M353.056 298.019C347.532 295.921 338.923 293.951 331.427 285.865C313.584 266.647 309.563 231.975 306.016 210.431C305.302 206.054 307.039 205.808 309.588 207.321C313.864 209.849 320.539 217.118 321.697 218.483C351.579 253.513 368.09 283.792 368.492 292.905C368.941 302.519 356.459 299.311 353.056 298.019Z" fill="#7CB342"/>
<mask id="mask6_401_246" style="mask-type:luminance" maskUnits="userSpaceOnUse" x="305" y="206" width="64" height="94">
<path d="M353.056 298.019C347.532 295.921 338.923 293.951 331.427 285.865C313.584 266.647 309.563 231.975 306.016 210.431C305.302 206.054 307.039 205.808 309.588 207.321C313.864 209.849 320.539 217.118 321.697 218.483C351.579 253.513 368.09 283.792 368.492 292.905C368.941 302.519 356.459 299.311 353.056 298.019V298.019Z" fill="white"/>
</mask>
<g mask="url(#mask6_401_246)">
<path d="M371.098 305.272C376.976 283.968 367.743 275.15 367.743 275.15C344.606 222.881 307.06 198.767 307.06 198.767L304.317 207.181C313.171 209.977 348.068 264.715 355.862 286.015C358.891 294.284 358.495 299.384 358.495 299.384L371.098 305.272Z" fill="#BDCF46"/>
</g>
<path d="M359.127 147.76C361.77 141.848 377.668 121.74 392.62 124.854C402.89 126.98 412.156 139.465 411.204 154.525C410.28 169.054 410.141 184.406 400.028 195.523C391.612 204.765 375.752 214.044 364.747 202.546C352.393 189.647 351.187 165.36 359.127 147.76Z" fill="#E7E7E7"/>
<path d="M368.868 150.212C370.535 146.492 380.523 133.874 389.919 135.808C396.375 137.151 402.205 144.98 401.593 154.47C401.009 163.614 400.909 173.263 394.567 180.245C389.269 186.065 379.284 191.891 372.374 184.675C364.619 176.551 363.893 161.28 368.868 150.212Z" fill="white"/>
<path d="M359.074 293.863C358.696 294.501 358.259 295.105 357.812 295.689C356.989 296.777 356.166 297.865 355.312 298.944C354.597 299.826 353.817 300.943 352.557 301.05C350.98 301.205 349.263 300.462 347.955 299.645C342.513 296.273 346.126 291.302 348.27 287.258C352.576 279.107 356.817 270.821 359.89 262.127C363.056 253.156 364.978 243.808 367.506 234.644C367.553 234.472 368.598 230.748 368.457 230.709L380.143 233.933L378.959 238.225C377.126 244.867 375.314 251.498 373.345 258.085C369.659 270.284 365.919 282.923 359.074 293.863Z" fill="#7CB342"/>
<path d="M333.559 299.096C338.592 291.483 368.277 273.949 411.894 259.196C413.587 258.618 423.066 255.788 428.013 255.821C430.977 255.83 432.358 256.936 429.485 260.324C415.393 277.002 394.163 304.707 368.99 312.057C358.413 315.14 350.006 312.433 344.189 311.401C340.625 310.755 328.263 307.109 333.559 299.096Z" fill="#7CB342"/>
<mask id="mask7_401_246" style="mask-type:luminance" maskUnits="userSpaceOnUse" x="332" y="255" width="100" height="59">
<path d="M333.559 299.096C338.592 291.483 368.277 273.949 411.894 259.196C413.587 258.618 423.066 255.788 428.013 255.821C430.977 255.83 432.358 256.936 429.485 260.324C415.393 277.002 394.163 304.707 368.99 312.057C358.413 315.14 350.006 312.433 344.189 311.401C340.625 310.755 328.263 307.109 333.559 299.096Z" fill="white"/>
</mask>
<g mask="url(#mask7_401_246)">
<path d="M338.839 309.773C338.839 309.773 341.114 305.192 347.955 299.645C365.553 285.351 423.595 256.254 432.63 258.393L434.59 249.764C434.59 249.764 389.99 251.214 343.325 284.225C343.325 284.225 330.882 287.046 325 308.366L338.839 309.773Z" fill="#BDCF46"/>
</g>
<path d="M413.421 142.09C418.423 139.171 427.63 134.581 433.175 144.421C431.718 139.923 429.975 136.711 428.295 134.613C425.743 131.397 422.358 130.042 418.404 131.361C400.304 137.392 382.114 162.447 372.634 186.668C372.344 187.414 371.777 189.162 371.103 191.606C374.968 182.423 379.382 174.977 380.695 173.029C389.865 159.528 403.431 147.931 413.421 142.09Z" fill="#E7E7E7"/>
<path d="M433.44 199.246C438.238 172.199 436.522 154.835 433.159 144.416C427.614 134.576 418.408 139.167 413.405 142.085C403.756 147.733 390.738 158.808 381.601 171.762C376.381 156.954 368.548 140.498 359.089 135.495C355.633 133.665 351.451 131.651 345.341 136.995C343.122 138.928 340.495 142.097 337.89 146.773C334.413 155.709 331.263 167.432 329.139 182.708C327.193 196.669 328.981 205.827 329.602 209.015C333.997 232.007 354.17 239.663 357.882 240.687C374.828 247.638 387.992 245.504 388.186 245.474L388.217 245.482C392.064 245.65 413.607 244.615 424.898 224.096C426.433 221.283 430.979 213.114 433.44 199.246Z" fill="white"/>
<path d="M359.089 135.495C374.893 143.833 386.192 184.204 388.258 195.411C388.439 196.405 388.687 199.845 388.615 204.444C389.208 197.224 389.041 191.413 388.91 189.809C387.662 175.575 379.769 134.103 364.431 122.792C361.069 120.313 357.428 120.556 354.018 122.835C349.499 125.836 343.291 132.94 337.89 146.773C340.495 142.097 343.122 138.928 345.341 136.995C351.451 131.651 355.628 133.68 359.089 135.495Z" fill="#E7E7E7"/>
</g>
<path d="M705.643 224.864C688.046 226.842 668.39 232.344 655.516 238.96C636.546 248.674 621.953 263.884 612.945 283.483C607.536 295.346 605.22 304.11 609.086 298.097C609.943 296.806 613.377 292.424 616.726 288.468C630.973 271.45 651.317 257.786 673.034 250.476C682.388 247.384 695.523 244.371 696.295 245.235C696.727 245.668 707.71 336.43 708.482 345.797C708.652 347.605 707.71 348.115 699.213 351.037C686.941 355.249 682.303 357.227 673.891 361.439C644.448 376.223 624.622 396.68 615.012 422.036C612.867 427.794 608.491 444.039 608.916 444.556C609.086 444.642 611.408 440.43 614.064 435.104C619.814 423.759 624.275 417.569 633.289 408.543C654.404 387.228 686.679 373.989 728.819 369.352L734.398 368.749L734.143 365.31C733.803 361.701 716.377 231.657 715.52 226.672C715.18 224.779 714.578 223.921 713.545 224.006C712.773 224.091 709.162 224.438 705.643 224.864Z" fill="url(#paint0_linear_401_246)"/>
<path d="M476.899 248.412C472.693 249.099 468.657 249.787 467.97 249.872C466.943 250.043 464.195 267.323 455.352 327.488C449.085 370.032 444.107 404.933 444.192 405.018C444.277 405.103 448.83 404.677 454.233 403.989C468.65 402.096 495.515 401.408 507.793 402.614C533.887 405.195 554.486 412.066 573.024 424.361C579.63 428.743 595.853 444.045 601.694 451.263C604.272 454.532 604.272 454.355 600.576 446.966C579.892 404.847 544.53 384.482 485.304 380.781C476.552 380.179 475.604 380.008 475.604 378.463C475.604 377.604 478.691 352.078 482.472 321.907C486.246 291.736 489.34 266.812 489.34 266.556C489.34 265.528 513.203 266.124 521.955 267.244C548.991 270.853 573.972 281.596 594.571 298.358C597.233 300.507 599.464 302.138 599.634 301.967C599.804 301.797 596.801 297.841 592.85 293.111C573.711 269.818 551.823 255.807 525.383 249.532C515.512 247.213 488.13 246.61 476.886 248.412H476.899Z" fill="url(#paint1_linear_401_246)"/>
<path d="M726.758 249.787C727.098 251.68 743.413 380.002 743.413 380.689C743.413 380.86 737.493 381.207 730.369 381.548C700.586 382.923 680.845 387.22 661.443 396.587C638.869 407.415 620.671 426.326 611.232 448.676L609.426 452.973L618.27 444.208C629.345 433.295 631.49 431.487 640.243 425.645C659.127 412.924 681.525 405.358 708.22 402.607C720.237 401.317 745.126 402.004 758.778 403.982C764.103 404.755 768.564 405.273 768.649 405.103C768.819 404.932 763.756 370.209 757.49 327.92C751.223 285.631 746.075 250.737 745.99 250.475C745.99 249.702 742.301 249.014 733.803 248.326L726.425 247.724L726.765 249.787H726.758Z" fill="url(#paint2_linear_401_246)"/>
<path d="M758.347 280.818C759.289 284.945 775.341 417.393 775.001 417.74C774.831 417.91 771.05 417.399 766.589 416.45C747.194 412.493 740.155 411.805 718.523 411.805C702.045 411.72 695.779 412.061 689.597 413.266C667.965 417.393 650.545 424.782 634.748 436.474C628.913 440.771 612.946 456.328 612.946 457.704C612.946 458.136 615.523 456.675 618.781 454.527C625.649 449.883 638.437 443.352 646.85 440.26C683.416 426.596 727.701 427.625 777.232 443.182C783.243 445.075 788.391 446.535 788.476 446.359C788.731 446.103 767.361 291.56 766.157 285.37C765.817 283.477 764.783 282.279 762.298 280.818C760.492 279.789 758.693 278.925 758.438 278.925C758.183 278.925 758.177 279.783 758.347 280.818Z" fill="url(#paint3_linear_401_246)"/>
<path d="M450.374 283.227C447.627 284.603 445.049 285.979 444.624 286.404C444.284 286.745 440.673 307.981 436.644 333.508C432.608 359.035 426.773 395.566 423.77 414.732C420.676 433.814 418.361 449.626 418.531 449.797C418.701 449.967 423.94 448.336 430.292 446.102C444.454 441.202 460.847 436.82 474.322 434.41C488.916 431.829 516.893 431.141 530.545 433.119C554.322 436.558 575.608 444.55 595.003 457.356C598.954 459.936 602.212 462 602.382 462C603.409 462 593.629 450.74 587.618 444.897C566.502 424.61 540.756 414.811 502.731 412.663C488.222 411.89 459.558 414.556 441.105 418.42C437.841 419.108 435.27 419.364 435.27 418.938C435.27 418.597 440.078 387.653 445.998 350.264C451.918 312.874 456.726 281.845 456.726 281.419C456.726 280.299 456.039 280.476 450.374 283.227Z" fill="url(#paint4_linear_401_246)"/>
<path d="M352.392 602.168C351.112 601.656 349.789 601.101 348.424 600.504C347.144 599.907 345.907 599.011 344.712 597.816C343.603 596.707 342.621 595.128 341.768 593.08C340.915 590.605 340.317 588.173 339.976 585.784C339.72 583.395 339.635 580.621 339.72 577.464C339.72 573.027 340.019 569.187 340.616 565.944C341.299 562.616 342.323 559.245 343.688 555.832C343.859 555.576 344.157 554.851 344.584 553.656C345.096 552.376 345.651 551.011 346.248 549.56C346.931 548.109 347.443 547 347.784 546.232C348.467 544.781 349.491 542.861 350.856 540.472C352.307 537.997 353.843 535.608 355.464 533.304C357.939 529.635 359.987 526.733 361.608 524.6C363.229 522.467 364.765 520.675 366.216 519.224C367.667 517.773 369.288 516.408 371.08 515.128C372.957 513.763 375.347 512.099 378.248 510.136C380.125 508.771 382.173 508.045 384.392 507.96C386.696 507.875 388.829 508.387 390.792 509.496C392.755 510.52 394.205 512.056 395.144 514.104C396.083 515.896 396.552 518.072 396.552 520.632C396.552 523.107 396.168 525.752 395.4 528.568C394.632 531.299 393.565 533.901 392.2 536.376C390.835 538.851 389.256 540.899 387.464 542.52C386.355 543.544 385.331 543.928 384.392 543.672C383.539 543.416 382.515 542.733 381.32 541.624C380.552 540.173 380.125 539.32 380.04 539.064C380.04 538.808 380.211 538.637 380.552 538.552C381.064 537.955 381.747 536.931 382.6 535.48C383.453 534.029 384.307 532.493 385.16 530.872C386.013 529.165 386.611 527.8 386.952 526.776C387.635 523.192 388.104 520.675 388.36 519.224C388.616 517.688 388.36 516.536 387.592 515.768C387.251 515.427 386.739 515.299 386.056 515.384C385.459 515.469 384.435 515.896 382.984 516.664C381.021 517.517 378.461 519.437 375.304 522.424C372.147 525.325 369.245 528.568 366.6 532.152C363.187 536.675 360.328 540.685 358.024 544.184C355.72 547.683 353.971 551.267 352.776 554.936C352.605 555.277 352.307 555.917 351.88 556.856C351.539 557.795 351.368 558.264 351.368 558.264C351.453 558.605 351.325 559.459 350.984 560.824C350.643 562.104 350.259 563.213 349.832 564.152C348.893 568.077 348.339 572.173 348.168 576.44C347.997 580.621 348.211 584.333 348.808 587.576C349.491 590.819 350.472 593.08 351.752 594.36C352.861 595.128 354.355 595.384 356.232 595.128C358.195 594.872 360.413 594.275 362.888 593.336C365.363 592.397 367.88 591.373 370.44 590.264C372.488 589.411 374.365 588.472 376.072 587.448C377.779 586.424 379.059 585.528 379.912 584.76C380.595 584.248 381.448 583.736 382.472 583.224C383.581 582.627 384.52 582.328 385.288 582.328C386.483 581.901 387.165 581.731 387.336 581.816C387.507 581.901 387.592 582.285 387.592 582.968C387.592 584.163 386.909 585.485 385.544 586.936C384.264 588.387 382.6 589.709 380.552 590.904C379.869 591.587 378.973 592.312 377.864 593.08C376.755 593.848 375.603 594.445 374.408 594.872C372.616 596.237 370.397 597.56 367.752 598.84C365.107 600.12 362.419 601.101 359.688 601.784C357.043 602.467 354.611 602.595 352.392 602.168ZM440.278 599.096C439.681 599.011 439.083 598.797 438.486 598.456C437.889 598.115 437.291 597.688 436.694 597.176C436.182 596.664 435.67 596.195 435.158 595.768C434.561 594.317 434.134 593.208 433.878 592.44C433.622 591.672 433.622 590.392 433.878 588.6C433.878 587.576 433.963 586.381 434.134 585.016C434.39 583.651 434.817 582.541 435.414 581.688C436.011 579.981 436.95 577.976 438.23 575.672C439.595 573.368 441.046 571.064 442.582 568.76C444.203 566.456 445.697 564.365 447.062 562.488C448.513 560.525 449.579 559.117 450.262 558.264C451.201 557.069 451.627 556.088 451.542 555.32C451.542 554.467 450.689 552.888 448.982 550.584C448.641 549.645 448.257 548.963 447.83 548.536C447.403 548.024 447.361 547.768 447.702 547.768C447.702 547.768 447.574 547.64 447.318 547.384C447.147 547.043 446.934 546.573 446.678 545.976C445.398 544.781 444.758 542.947 444.758 540.472C444.843 537.997 445.483 535.565 446.678 533.176C448.043 530.104 449.537 527.8 451.158 526.264C452.865 524.643 454.998 523.661 457.558 523.32C458.497 523.405 460.075 523.661 462.294 524.088C464.513 524.515 466.817 524.984 469.206 525.496C471.595 526.008 473.515 526.605 474.966 527.288C475.99 527.715 477.142 528.397 478.422 529.336C479.787 530.275 480.982 531.213 482.006 532.152C483.03 533.005 483.585 533.688 483.67 534.2C483.67 534.456 483.798 534.755 484.054 535.096C484.395 535.352 484.609 535.693 484.694 536.12C485.206 537.059 485.462 538.168 485.462 539.448C485.547 540.728 485.462 542.008 485.206 543.288C484.95 544.483 484.566 545.464 484.054 546.232C481.921 548.621 480.427 549.987 479.574 550.328C479.147 550.669 478.635 551.096 478.038 551.608C477.526 552.12 476.929 552.461 476.246 552.632C475.819 553.229 475.393 553.741 474.966 554.168C474.625 554.595 474.283 554.808 473.942 554.808C473.601 554.552 473.259 554.424 472.918 554.424C472.577 554.339 472.406 554.467 472.406 554.808C472.406 554.979 471.809 555.363 470.614 555.96C469.505 556.557 468.353 557.069 467.158 557.496C465.963 557.923 465.195 558.051 464.854 557.88C464.854 557.88 464.726 557.88 464.47 557.88C464.214 557.88 463.83 558.051 463.318 558.392C462.209 558.221 462.849 559.587 465.238 562.488C467.201 566.157 468.651 569.699 469.59 573.112C470.614 576.44 470.486 579 469.206 580.792C467.585 584.461 465.835 587.491 463.958 589.88C462.081 592.184 460.587 593.293 459.478 593.208C459.478 593.208 459.265 593.336 458.838 593.592C458.497 593.848 458.113 594.104 457.686 594.36C457.515 594.957 457.131 595.341 456.534 595.512C456.022 595.768 455.553 595.853 455.126 595.768C454.358 595.427 453.035 595.853 451.158 597.048C450.049 597.816 448.726 598.371 447.19 598.712C445.739 599.139 444.374 599.352 443.094 599.352C441.814 599.437 440.875 599.352 440.278 599.096ZM442.326 592.568C443.179 592.653 444.374 592.397 445.91 591.8C447.446 591.203 449.067 590.435 450.774 589.496C452.566 588.472 454.102 587.533 455.382 586.68C458.625 584.035 460.801 581.475 461.91 579C463.105 576.525 463.19 573.965 462.166 571.32C461.654 570.296 461.099 569.187 460.502 567.992C459.905 566.797 459.393 565.859 458.966 565.176C458.454 564.408 457.985 563.853 457.558 563.512C457.217 563.171 456.833 562.872 456.406 562.616C456.406 562.616 456.065 562.872 455.382 563.384C454.785 563.811 454.273 564.493 453.846 565.432C452.907 566.627 452.139 567.651 451.542 568.504C451.03 569.357 450.603 570.083 450.262 570.68C449.665 571.277 449.11 571.832 448.598 572.344C448.086 572.856 447.702 573.24 447.446 573.496C447.446 573.752 447.19 574.52 446.678 575.8C446.166 576.995 445.569 578.189 444.886 579.384C443.009 582.627 441.814 585.613 441.302 588.344C440.875 590.989 441.217 592.397 442.326 592.568ZM462.166 550.328C463.958 548.707 465.494 547.811 466.774 547.64C468.139 547.384 469.078 547.725 469.59 548.664C469.761 549.005 470.742 548.621 472.534 547.512C474.411 546.403 476.033 545.123 477.398 543.672C477.91 542.733 478.209 542.008 478.294 541.496C478.379 540.984 478.337 540.045 478.166 538.68C478.251 537.827 478.166 537.144 477.91 536.632C477.654 536.035 477.099 535.48 476.246 534.968C475.478 534.456 474.198 533.859 472.406 533.176C467.115 531.299 462.763 530.701 459.35 531.384C455.937 532.067 453.633 534.413 452.438 538.424C451.926 540.045 451.67 541.496 451.67 542.776C451.67 544.056 452.011 545.421 452.694 546.872C453.462 547.213 453.974 547.683 454.23 548.28C454.486 548.792 454.614 549.048 454.614 549.048C454.614 549.816 454.955 550.2 455.638 550.2C455.809 550.627 456.406 551.096 457.43 551.608C458.454 552.12 460.033 551.693 462.166 550.328ZM570.119 594.616C569.266 594.189 568.626 593.763 568.199 593.336C567.772 592.824 567.047 592.269 566.023 591.672C565.682 590.477 565.298 589.283 564.871 588.088C564.53 586.808 564.402 585.571 564.487 584.376C564.572 583.693 564.444 582.968 564.103 582.2C563.847 581.347 563.89 580.621 564.231 580.024C564.06 578.659 564.103 576.909 564.359 574.776C564.615 572.557 564.956 570.467 565.383 568.504C565.81 566.456 566.108 565.005 566.279 564.152C566.023 563.811 565.767 563.597 565.511 563.512C565.34 563.427 565.084 563.555 564.743 563.896C563.89 564.749 563.079 565.603 562.311 566.456C561.543 567.309 560.732 568.205 559.879 569.144C559.538 569.485 559.154 569.827 558.727 570.168C558.3 570.424 558.087 570.851 558.087 571.448L553.479 577.592C553.138 578.275 552.498 579.171 551.559 580.28C550.706 581.304 550.023 582.541 549.511 583.992C549.34 584.589 549.042 585.101 548.615 585.528C548.188 585.869 547.762 586.211 547.335 586.552C546.226 586.125 545.5 585.827 545.159 585.656C544.818 585.485 544.178 584.973 543.239 584.12C542.386 583.267 541.788 582.499 541.447 581.816C541.106 581.048 541.02 580.28 541.191 579.512C541.191 578.232 541.191 576.44 541.191 574.136C541.276 571.747 541.276 569.485 541.191 567.352C541.191 565.133 541.02 563.597 540.679 562.744C539.74 562.829 539.1 562.957 538.759 563.128C538.418 563.299 537.991 563.811 537.479 564.664C537.564 564.579 537.18 565.176 536.327 566.456C535.559 567.651 534.492 569.229 533.127 571.192C531.847 573.069 530.567 574.989 529.287 576.952C528.007 578.829 526.94 580.451 526.087 581.816C525.319 583.096 524.978 583.693 525.063 583.608C524.466 584.291 523.954 585.016 523.527 585.784C523.186 586.552 522.844 587.363 522.503 588.216C522.076 589.24 521.607 589.923 521.095 590.264C520.583 590.52 520.114 590.435 519.687 590.008C519.004 589.581 518.279 589.155 517.511 588.728C516.828 588.301 516.231 587.917 515.719 587.576C515.378 586.979 515.079 586.381 514.823 585.784C514.652 585.101 514.524 584.333 514.439 583.48C515.122 583.053 515.591 582.797 515.847 582.712C516.103 582.541 516.316 582.243 516.487 581.816C518.364 579 519.986 576.611 521.351 574.648C522.716 572.6 523.868 570.936 524.807 569.656C525.746 568.376 526.471 567.395 526.983 566.712C527.495 565.944 527.794 565.432 527.879 565.176C528.306 564.323 528.818 563.512 529.415 562.744C530.098 561.976 530.738 561.165 531.335 560.312C531.42 560.056 531.847 559.459 532.615 558.52C533.383 557.496 534.194 556.472 535.047 555.448C535.9 554.424 536.498 553.827 536.839 553.656C537.266 553.4 537.564 553.059 537.735 552.632C537.991 552.12 538.247 551.608 538.503 551.096C538.674 550.328 539.058 549.773 539.655 549.432C540.252 549.091 541.148 549.005 542.343 549.176C543.026 549.773 543.794 550.413 544.647 551.096C545.5 551.693 546.396 552.333 547.335 553.016C547.25 553.869 547.207 554.765 547.207 555.704C547.292 556.643 547.634 558.093 548.231 560.056C547.975 561.08 548.018 562.147 548.359 563.256C548.7 564.365 548.7 565.389 548.359 566.328C548.359 567.437 548.615 568.248 549.127 568.76C549.724 569.187 550.62 568.76 551.815 567.48C553.18 565.773 554.802 563.939 556.679 561.976C558.556 559.928 560.391 558.008 562.183 556.216C564.06 554.339 565.639 552.76 566.919 551.48C568.284 550.115 569.095 549.261 569.351 548.92C569.522 548.493 569.82 548.28 570.247 548.28C570.759 548.195 571.228 548.28 571.655 548.536C573.106 549.304 574.087 549.859 574.599 550.2C575.111 550.541 575.836 551.181 576.775 552.12C577.628 553.315 577.756 554.381 577.159 555.32C576.818 556.173 576.348 557.581 575.751 559.544C575.239 561.421 574.684 563.512 574.087 565.816C573.575 568.12 573.106 570.296 572.679 572.344C572.338 574.307 572.124 575.843 572.039 576.952C571.954 578.659 571.868 580.451 571.783 582.328C571.698 584.12 571.826 585.997 572.167 587.96C572.85 590.605 573.02 592.312 572.679 593.08C572.423 593.763 571.57 594.275 570.119 594.616ZM586.946 590.392C586.605 589.709 586.178 589.197 585.666 588.856C585.154 588.429 584.898 588.045 584.898 587.704C584.898 587.363 584.855 587.021 584.77 586.68C584.77 586.253 584.599 585.869 584.258 585.528C583.831 585.016 583.874 583.864 584.386 582.072C584.898 580.195 585.751 577.933 586.946 575.288C588.141 572.557 589.549 569.699 591.17 566.712C591.853 566.029 592.535 565.133 593.218 564.024C593.901 562.915 594.413 562.189 594.754 561.848C594.754 561.507 594.882 561.208 595.138 560.952C595.394 560.611 595.693 560.44 596.034 560.44V559.672C596.034 559.245 596.418 558.52 597.186 557.496C598.039 556.472 599.063 555.363 600.258 554.168C601.453 552.888 602.69 551.693 603.97 550.584C605.25 549.389 606.317 548.536 607.17 548.024C608.962 546.829 610.797 546.104 612.674 545.848C614.637 545.592 616.301 546.019 617.666 547.128C617.922 547.384 618.349 547.811 618.946 548.408C619.543 549.005 620.226 549.688 620.994 550.456C621.847 551.139 622.701 551.864 623.554 552.632L628.29 556.856L625.986 563.256C624.877 566.669 624.578 569.656 625.09 572.216C625.687 574.776 626.541 576.995 627.65 578.872C628.077 579.811 628.93 580.707 630.21 581.56C631.575 582.413 632.855 582.925 634.05 583.096C634.733 583.181 635.373 583.437 635.97 583.864C636.567 584.291 636.866 584.973 636.866 585.912C636.866 586.765 636.695 587.448 636.354 587.96C636.013 588.472 635.415 588.813 634.562 588.984C631.746 589.325 629.101 588.643 626.626 586.936C624.237 585.229 622.018 582.413 619.97 578.488C619.629 577.976 619.159 577.037 618.562 575.672C618.05 574.221 617.751 573.283 617.666 572.856C617.325 573.283 616.685 574.093 615.746 575.288C614.807 576.397 614.082 577.208 613.57 577.72C607.511 583.864 602.263 588.003 597.826 590.136C593.474 592.184 589.847 592.269 586.946 590.392ZM591.554 583.224C591.554 583.821 592.45 583.821 594.242 583.224C596.119 582.541 598.125 581.347 600.258 579.64C603.159 577.165 606.061 574.435 608.962 571.448C611.949 568.461 614.338 565.688 616.13 563.128L618.946 558.52C618.093 556.557 617.154 555.235 616.13 554.552C615.191 553.784 614.381 553.4 613.698 553.4C612.589 553.4 610.925 554.424 608.706 556.472C606.573 558.52 604.269 561.251 601.794 564.664C599.319 568.077 596.973 571.832 594.754 575.928C593.901 577.635 593.133 579.299 592.45 580.92C591.853 582.456 591.554 583.224 591.554 583.224ZM642.437 617.4C641.413 618.083 640.346 618.04 639.237 617.272C638.213 616.504 637.445 615.352 636.933 613.816C636.421 612.28 636.464 610.659 637.061 608.952C637.232 608.44 637.488 607.587 637.829 606.392C638.17 605.283 638.384 604.301 638.469 603.448C638.554 602.851 638.81 601.827 639.237 600.376C639.664 599.011 640.133 597.645 640.645 596.28C641.242 594.915 641.712 593.933 642.053 593.336C642.565 592.483 642.906 591.501 643.077 590.392C643.333 589.283 643.461 588.429 643.461 587.832C643.632 587.235 643.845 586.552 644.101 585.784C644.442 585.016 644.784 584.419 645.125 583.992C645.296 583.309 645.552 582.584 645.893 581.816C646.234 580.963 646.618 580.237 647.045 579.64C647.216 579.043 647.344 578.317 647.429 577.464C647.6 576.611 647.856 576.141 648.197 576.056C648.282 575.715 648.325 575.373 648.325 575.032C648.41 574.691 648.581 574.221 648.837 573.624C649.008 572.685 649.392 571.32 649.989 569.528C650.586 567.736 651.312 565.773 652.165 563.64C653.104 561.165 653.53 558.819 653.445 556.6C653.445 554.296 652.805 552.888 651.525 552.376C650.842 552.035 650.416 551.565 650.245 550.968C650.074 550.285 650.16 549.603 650.501 548.92C650.842 548.237 651.354 547.768 652.037 547.512C652.805 547.171 653.616 547.043 654.469 547.128C655.408 547.213 656.218 547.384 656.901 547.64C657.584 547.811 657.882 547.981 657.797 548.152C657.797 548.579 658.01 548.835 658.437 548.92C658.608 548.664 658.949 548.963 659.461 549.816C660.058 550.584 660.613 551.48 661.125 552.504C661.637 553.528 661.893 554.253 661.893 554.68C661.722 555.021 661.637 555.235 661.637 555.32C661.637 555.32 661.808 555.32 662.149 555.32C662.149 555.32 662.618 555.107 663.557 554.68C664.496 554.168 665.477 553.613 666.501 553.016C667.61 552.333 668.336 551.821 668.677 551.48C668.677 551.48 668.89 551.395 669.317 551.224C669.829 550.968 670.256 550.669 670.597 550.328C672.304 549.645 674.138 549.517 676.101 549.944C678.149 550.371 679.77 551.139 680.965 552.248C682.672 554.381 683.525 556.429 683.525 558.392C683.61 560.355 683.056 562.829 681.861 565.816C681.69 566.243 681.306 566.968 680.709 567.992C680.197 568.931 679.685 569.827 679.173 570.68C678.661 571.448 678.405 571.832 678.405 571.832C676.442 574.904 674.138 577.464 671.493 579.512C668.848 581.56 666.16 583.352 663.429 584.888C662.576 585.485 661.68 585.955 660.741 586.296C659.888 586.552 659.12 586.723 658.437 586.808C657.754 586.808 657.285 586.723 657.029 586.552C656.09 585.869 655.237 584.419 654.469 582.2C654.042 583.309 653.616 584.419 653.189 585.528C652.848 586.552 652.634 587.235 652.549 587.576C652.464 588.173 652.378 588.685 652.293 589.112C652.208 589.453 651.994 589.752 651.653 590.008C651.653 590.008 651.61 590.179 651.525 590.52C651.44 590.861 651.141 591.373 650.629 592.056C649.776 594.531 649.008 596.664 648.325 598.456C647.642 600.333 647.088 601.912 646.661 603.192C646.234 604.557 645.893 605.752 645.637 606.776C645.466 609.08 644.997 611.341 644.229 613.56C643.461 615.864 642.864 617.144 642.437 617.4ZM657.669 580.92C658.01 580.749 658.736 580.28 659.845 579.512C661.04 578.659 662.362 577.677 663.813 576.568C665.264 575.373 666.586 574.264 667.781 573.24C669.061 572.216 669.914 571.448 670.341 570.936C671.024 570.168 671.664 569.357 672.261 568.504C672.858 567.565 673.328 566.541 673.669 565.432C673.925 564.749 674.224 563.981 674.565 563.128C674.906 562.275 675.205 561.464 675.461 560.696C675.802 560.013 675.93 559.331 675.845 558.648C675.845 557.88 675.589 557.24 675.077 556.728C674.736 556.643 673.712 556.899 672.005 557.496C670.298 558.008 668.421 558.904 666.373 560.184C664.325 561.379 662.533 562.957 660.997 564.92C659.205 567.224 657.882 569.613 657.029 572.088C656.261 574.563 655.92 576.653 656.005 578.36C656.176 580.067 656.73 580.92 657.669 580.92ZM696.316 588.728C695.377 588.131 694.524 587.363 693.756 586.424C692.988 585.4 692.604 584.12 692.604 582.584C692.604 581.731 692.775 580.28 693.116 578.232C693.457 576.184 693.927 573.88 694.524 571.32C695.121 568.76 695.719 566.371 696.316 564.152C697.169 562.616 697.895 561.08 698.492 559.544C699.089 558.008 699.388 557.069 699.388 556.728C699.559 555.704 699.772 554.509 700.028 553.144C700.369 551.779 700.711 550.541 701.052 549.432C701.393 548.323 701.649 547.683 701.82 547.512C702.247 547.085 702.759 546.829 703.356 546.744C703.953 546.573 704.551 546.659 705.148 547C705.831 547.256 706.343 547.811 706.684 548.664C707.623 549.688 708.092 550.925 708.092 552.376C708.092 553.741 707.623 555.789 706.684 558.52C705.916 560.227 705.148 562.232 704.38 564.536C703.612 566.84 702.929 568.973 702.332 570.936C701.82 572.813 701.521 574.093 701.436 574.776L698.876 575.544C700.327 574.179 701.692 572.771 702.972 571.32C704.252 569.784 705.191 568.589 705.788 567.736C707.239 565.773 708.476 564.152 709.5 562.872C710.609 561.507 712.017 559.885 713.724 558.008C715.431 556.045 717.095 554.851 718.716 554.424C720.423 553.912 721.745 553.656 722.684 553.656C724.561 553.997 726.055 554.979 727.164 556.6C728.359 558.136 729.127 560.44 729.468 563.512C729.468 564.707 729.34 566.115 729.084 567.736C728.913 569.357 728.828 570.168 728.828 570.168C728.828 570.168 729.511 569.272 730.876 567.48C732.327 565.688 734.247 563.725 736.636 561.592C738.257 560.397 739.836 559.715 741.372 559.544C742.908 559.288 744.273 559.8 745.468 561.08C747.687 562.275 749.137 564.109 749.82 566.584C750.503 568.973 750.673 572.045 750.332 575.8C750.076 578.019 750.033 579.683 750.204 580.792C750.375 581.816 750.631 582.84 750.972 583.864C751.655 584.205 751.783 584.931 751.356 586.04C750.929 587.064 750.417 587.576 749.82 587.576C748.967 587.576 747.985 587.405 746.876 587.064C745.852 586.723 744.913 586.168 744.06 585.4C743.292 584.547 742.908 583.395 742.908 581.944V574.008C742.908 572.131 742.823 570.595 742.652 569.4C742.567 568.205 742.353 567.48 742.012 567.224C741.073 566.712 739.708 567.267 737.916 568.888C736.124 570.509 734.204 572.685 732.156 575.416C730.108 578.147 728.188 580.963 726.396 583.864C724.775 586.509 723.751 588.045 723.324 588.472C722.983 588.813 722.343 588.685 721.404 588.088C719.527 587.491 718.332 586.68 717.82 585.656C717.393 584.547 717.351 583.309 717.692 581.944C718.119 580.493 718.631 578.531 719.228 576.056C719.911 573.581 720.551 571.192 721.148 568.888C721.745 566.499 722.129 564.792 722.3 563.768C721.959 563.085 721.361 562.872 720.508 563.128C719.74 563.299 718.929 563.683 718.076 564.28C717.052 564.963 715.815 566.243 714.364 568.12C712.913 569.997 711.42 572.173 709.884 574.648C708.86 576.269 707.793 577.891 706.684 579.512C705.575 581.048 704.551 582.413 703.612 583.608C702.673 584.803 701.863 585.699 701.18 586.296C699.985 588.173 699.175 589.197 698.748 589.368C698.321 589.539 697.511 589.325 696.316 588.728ZM772.805 591.288C772.122 591.459 771.226 591.544 770.117 591.544C769.008 591.459 768.026 591.331 767.173 591.16C766.405 590.904 766.021 590.648 766.021 590.392C766.021 589.965 765.808 589.752 765.381 589.752C765.381 589.752 765.168 589.581 764.741 589.24C764.4 588.899 763.845 588.557 763.077 588.216C762.309 587.021 761.925 585.741 761.925 584.376C761.925 582.925 762.309 580.664 763.077 577.592C763.333 575.459 764.144 572.984 765.509 570.168C766.96 567.267 768.709 564.323 770.757 561.336C772.805 558.349 774.938 555.661 777.157 553.272C779.461 550.883 781.552 549.133 783.429 548.024C784.624 546.829 786.074 546.189 787.781 546.104C789.488 546.019 791.109 546.403 792.645 547.256C793.498 547.683 794.352 548.365 795.205 549.304C796.058 550.243 796.869 551.267 797.637 552.376C798.405 553.485 799.045 554.595 799.557 555.704C799.813 556.643 799.941 557.496 799.941 558.264C800.026 558.947 800.026 559.8 799.941 560.824C799.941 561.848 799.813 563.384 799.557 565.432C799.13 566.968 798.746 568.845 798.405 571.064C798.149 573.283 798.021 575.203 798.021 576.824C797.85 578.445 798.021 579.597 798.533 580.28C799.13 580.963 799.984 581.005 801.093 580.408C802.117 579.896 803.098 579.683 804.037 579.768C804.976 579.768 805.701 580.024 806.213 580.536C806.81 581.048 807.109 581.816 807.109 582.84C807.109 583.864 806.597 584.931 805.573 586.04C804.634 587.064 803.44 587.96 801.989 588.728C800.624 589.411 799.301 589.752 798.021 589.752C797.082 589.752 796.186 589.197 795.333 588.088C794.48 586.893 793.712 585.485 793.029 583.864C792.432 582.157 791.877 580.536 791.365 579L790.597 576.056L785.093 581.304C783.984 582.499 782.874 583.608 781.765 584.632C780.741 585.571 780.101 586.253 779.845 586.68C779.418 587.448 778.608 588.216 777.413 588.984C776.304 589.752 774.768 590.52 772.805 591.288ZM773.189 583.736C774.64 582.883 776.304 581.645 778.181 580.024C780.058 578.317 781.893 576.483 783.685 574.52C785.477 572.472 786.97 570.595 788.165 568.888C789.616 566.925 790.725 565.091 791.493 563.384C792.261 561.677 792.816 560.056 793.157 558.52C792.816 557.581 792.261 556.6 791.493 555.576C790.725 554.467 790.042 553.869 789.445 553.784C787.568 553.784 785.562 554.979 783.429 557.368C781.381 559.672 779.376 562.189 777.413 564.92C777.072 565.347 776.602 566.029 776.005 566.968C775.408 567.907 774.81 568.803 774.213 569.656C773.701 570.424 773.36 570.936 773.189 571.192C772.933 571.533 772.421 572.515 771.653 574.136C770.97 575.672 770.288 577.251 769.605 578.872C768.922 580.408 768.581 581.432 768.581 581.944C768.581 582.456 768.624 583.011 768.709 583.608C768.88 584.205 769.306 584.589 769.989 584.76C770.672 584.931 771.738 584.589 773.189 583.736ZM825.716 573.24C823.327 573.667 821.748 572.515 820.98 569.784C820.212 567.053 820.425 563.299 821.62 558.52C822.132 557.496 822.559 556.515 822.9 555.576C823.241 554.552 823.412 553.741 823.412 553.144C823.753 552.035 824.18 550.755 824.692 549.304C825.289 547.768 825.887 546.36 826.484 545.08C827.081 543.715 827.508 542.819 827.764 542.392C828.105 542.392 828.447 542.093 828.788 541.496C829.215 540.899 829.428 540.301 829.428 539.704C829.428 539.021 829.556 538.253 829.812 537.4C830.153 536.547 830.495 535.949 830.836 535.608C830.836 535.181 831.007 534.712 831.348 534.2C831.689 533.688 831.86 533.261 831.86 532.92C831.86 532.579 831.945 532.28 832.116 532.024C832.372 531.768 832.5 531.469 832.5 531.128C833.268 529.763 834.249 527.757 835.444 525.112C836.724 522.381 837.961 519.523 839.156 516.536C840.436 513.549 841.503 510.904 842.356 508.6C843.209 506.296 843.636 504.888 843.636 504.376C843.807 503.693 844.063 503.181 844.404 502.84C844.745 502.499 845.257 502.413 845.94 502.584C846.281 502.328 846.623 502.2 846.964 502.2C847.305 502.115 847.647 502.072 847.988 502.072C847.988 502.072 848.116 502.243 848.372 502.584C848.713 502.925 849.183 503.437 849.78 504.12C850.463 504.717 850.847 505.4 850.932 506.168C851.017 506.936 851.06 507.832 851.06 508.856C850.975 510.477 850.377 512.312 849.268 514.36C848.159 516.408 846.921 518.669 845.556 521.144C844.703 522.765 843.849 524.301 842.996 525.752C842.228 527.203 841.844 528.099 841.844 528.44C841.844 528.781 841.673 529.293 841.332 529.976C840.991 530.659 840.607 531.512 840.18 532.536C839.668 533.389 839.113 534.413 838.516 535.608C837.919 536.803 837.364 537.912 836.852 538.936C836.425 539.875 836.212 540.472 836.212 540.728C836.127 541.069 835.999 541.411 835.828 541.752C835.743 542.093 835.529 542.435 835.188 542.776C834.847 542.776 834.633 543.032 834.548 543.544C834.548 543.971 834.548 544.184 834.548 544.184C834.548 544.525 834.335 545.336 833.908 546.616C833.567 547.811 832.969 549.261 832.116 550.968C830.495 555.491 829.343 559.117 828.66 561.848C827.977 564.493 827.551 566.755 827.38 568.632C827.209 570.68 827.039 571.875 826.868 572.216C826.783 572.557 826.399 572.899 825.716 573.24ZM818.804 593.72C817.183 594.317 815.817 594.616 814.708 594.616C813.684 594.531 812.532 594.019 811.252 593.08C809.631 591.544 809.076 590.008 809.588 588.472C810.185 586.851 811.593 585.272 813.812 583.736C815.348 582.797 816.457 582.285 817.14 582.2C817.908 582.115 819.06 582.413 820.596 583.096C823.156 584.717 824.265 586.509 823.924 588.472C823.668 590.435 821.961 592.184 818.804 593.72ZM852.591 573.24C850.202 573.667 848.623 572.515 847.855 569.784C847.087 567.053 847.3 563.299 848.495 558.52C849.007 557.496 849.434 556.515 849.775 555.576C850.116 554.552 850.287 553.741 850.287 553.144C850.628 552.035 851.055 550.755 851.567 549.304C852.164 547.768 852.762 546.36 853.359 545.08C853.956 543.715 854.383 542.819 854.639 542.392C854.98 542.392 855.322 542.093 855.663 541.496C856.09 540.899 856.303 540.301 856.303 539.704C856.303 539.021 856.431 538.253 856.687 537.4C857.028 536.547 857.37 535.949 857.711 535.608C857.711 535.181 857.882 534.712 858.223 534.2C858.564 533.688 858.735 533.261 858.735 532.92C858.735 532.579 858.82 532.28 858.991 532.024C859.247 531.768 859.375 531.469 859.375 531.128C860.143 529.763 861.124 527.757 862.319 525.112C863.599 522.381 864.836 519.523 866.031 516.536C867.311 513.549 868.378 510.904 869.231 508.6C870.084 506.296 870.511 504.888 870.511 504.376C870.682 503.693 870.938 503.181 871.279 502.84C871.62 502.499 872.132 502.413 872.815 502.584C873.156 502.328 873.498 502.2 873.839 502.2C874.18 502.115 874.522 502.072 874.863 502.072C874.863 502.072 874.991 502.243 875.247 502.584C875.588 502.925 876.058 503.437 876.655 504.12C877.338 504.717 877.722 505.4 877.807 506.168C877.892 506.936 877.935 507.832 877.935 508.856C877.85 510.477 877.252 512.312 876.143 514.36C875.034 516.408 873.796 518.669 872.431 521.144C871.578 522.765 870.724 524.301 869.871 525.752C869.103 527.203 868.719 528.099 868.719 528.44C868.719 528.781 868.548 529.293 868.207 529.976C867.866 530.659 867.482 531.512 867.055 532.536C866.543 533.389 865.988 534.413 865.391 535.608C864.794 536.803 864.239 537.912 863.727 538.936C863.3 539.875 863.087 540.472 863.087 540.728C863.002 541.069 862.874 541.411 862.703 541.752C862.618 542.093 862.404 542.435 862.063 542.776C861.722 542.776 861.508 543.032 861.423 543.544C861.423 543.971 861.423 544.184 861.423 544.184C861.423 544.525 861.21 545.336 860.783 546.616C860.442 547.811 859.844 549.261 858.991 550.968C857.37 555.491 856.218 559.117 855.535 561.848C854.852 564.493 854.426 566.755 854.255 568.632C854.084 570.68 853.914 571.875 853.743 572.216C853.658 572.557 853.274 572.899 852.591 573.24ZM845.679 593.72C844.058 594.317 842.692 594.616 841.583 594.616C840.559 594.531 839.407 594.019 838.127 593.08C836.506 591.544 835.951 590.008 836.463 588.472C837.06 586.851 838.468 585.272 840.687 583.736C842.223 582.797 843.332 582.285 844.015 582.2C844.783 582.115 845.935 582.413 847.471 583.096C850.031 584.717 851.14 586.509 850.799 588.472C850.543 590.435 848.836 592.184 845.679 593.72ZM879.466 573.24C877.077 573.667 875.498 572.515 874.73 569.784C873.962 567.053 874.175 563.299 875.37 558.52C875.882 557.496 876.309 556.515 876.65 555.576C876.991 554.552 877.162 553.741 877.162 553.144C877.503 552.035 877.93 550.755 878.442 549.304C879.039 547.768 879.637 546.36 880.234 545.08C880.831 543.715 881.258 542.819 881.514 542.392C881.855 542.392 882.197 542.093 882.538 541.496C882.965 540.899 883.178 540.301 883.178 539.704C883.178 539.021 883.306 538.253 883.562 537.4C883.903 536.547 884.245 535.949 884.586 535.608C884.586 535.181 884.757 534.712 885.098 534.2C885.439 533.688 885.61 533.261 885.61 532.92C885.61 532.579 885.695 532.28 885.866 532.024C886.122 531.768 886.25 531.469 886.25 531.128C887.018 529.763 887.999 527.757 889.194 525.112C890.474 522.381 891.711 519.523 892.906 516.536C894.186 513.549 895.253 510.904 896.106 508.6C896.959 506.296 897.386 504.888 897.386 504.376C897.557 503.693 897.813 503.181 898.154 502.84C898.495 502.499 899.007 502.413 899.69 502.584C900.031 502.328 900.373 502.2 900.714 502.2C901.055 502.115 901.397 502.072 901.738 502.072C901.738 502.072 901.866 502.243 902.122 502.584C902.463 502.925 902.933 503.437 903.53 504.12C904.213 504.717 904.597 505.4 904.682 506.168C904.767 506.936 904.81 507.832 904.81 508.856C904.725 510.477 904.127 512.312 903.018 514.36C901.909 516.408 900.671 518.669 899.306 521.144C898.453 522.765 897.599 524.301 896.746 525.752C895.978 527.203 895.594 528.099 895.594 528.44C895.594 528.781 895.423 529.293 895.082 529.976C894.741 530.659 894.357 531.512 893.93 532.536C893.418 533.389 892.863 534.413 892.266 535.608C891.669 536.803 891.114 537.912 890.602 538.936C890.175 539.875 889.962 540.472 889.962 540.728C889.877 541.069 889.749 541.411 889.578 541.752C889.493 542.093 889.279 542.435 888.938 542.776C888.597 542.776 888.383 543.032 888.298 543.544C888.298 543.971 888.298 544.184 888.298 544.184C888.298 544.525 888.085 545.336 887.658 546.616C887.317 547.811 886.719 549.261 885.866 550.968C884.245 555.491 883.093 559.117 882.41 561.848C881.727 564.493 881.301 566.755 881.13 568.632C880.959 570.68 880.789 571.875 880.618 572.216C880.533 572.557 880.149 572.899 879.466 573.24ZM872.554 593.72C870.933 594.317 869.567 594.616 868.458 594.616C867.434 594.531 866.282 594.019 865.002 593.08C863.381 591.544 862.826 590.008 863.338 588.472C863.935 586.851 865.343 585.272 867.562 583.736C869.098 582.797 870.207 582.285 870.89 582.2C871.658 582.115 872.81 582.413 874.346 583.096C876.906 584.717 878.015 586.509 877.674 588.472C877.418 590.435 875.711 592.184 872.554 593.72Z" fill="black"/>
<defs>
<linearGradient id="paint0_linear_401_246" x1="606.197" y1="332.43" x2="734.506" y2="332.43" gradientUnits="userSpaceOnUse">
<stop stop-color="#CE02CF"/>
<stop offset="1" stop-color="#FFE5B4"/>
</linearGradient>
<linearGradient id="paint1_linear_401_246" x1="442.979" y1="348.599" x2="603.641" y2="348.599" gradientUnits="userSpaceOnUse">
<stop stop-color="#CE02CF"/>
<stop offset="1" stop-color="#FFE5B4"/>
</linearGradient>
<linearGradient id="paint2_linear_401_246" x1="608.215" y1="348.627" x2="768.788" y2="348.627" gradientUnits="userSpaceOnUse">
<stop stop-color="#CE02CF"/>
<stop offset="1" stop-color="#FFE5B4"/>
</linearGradient>
<linearGradient id="paint3_linear_401_246" x1="611.611" y1="366.853" x2="788.627" y2="366.853" gradientUnits="userSpaceOnUse">
<stop stop-color="#CE02CF"/>
<stop offset="1" stop-color="#FFE5B4"/>
</linearGradient>
<linearGradient id="paint4_linear_401_246" x1="417.123" y1="369.867" x2="602.612" y2="369.867" gradientUnits="userSpaceOnUse">
<stop stop-color="#CE02CF"/>
<stop offset="1" stop-color="#FFE5B4"/>
</linearGradient>
<clipPath id="clip0_401_246">
<rect width="287.37" height="287.37" fill="white" transform="translate(912.686 81) rotate(30)"/>
</clipPath>
<clipPath id="clip1_401_246">
<rect width="306" height="306" fill="white" transform="translate(0 404.055) rotate(-20.6782)"/>
</clipPath>
<clipPath id="clip2_401_246">
<rect width="208" height="208" fill="white" transform="translate(537.494 635.323) rotate(-10.4788)"/>
</clipPath>
<clipPath id="clip3_401_246">
<rect width="208" height="208" fill="white" transform="translate(300.318 90) rotate(15.4236)"/>
</clipPath>
</defs>
</svg>
