<?xml version="1.0" encoding="iso-8859-1"?>
<!-- Uploaded to: SVG Repo, www.svgrepo.com, Generator: SVG Repo Mixer Tools -->
<svg version="1.1" id="Layer_1" xmlns="http://www.w3.org/2000/svg" xmlns:xlink="http://www.w3.org/1999/xlink" 
	 viewBox="0 0 507.9 507.9" xml:space="preserve">
<path style="fill:#FFFFFF;" d="M435.7,479.8c7.8,0,14.1-6.3,14.1-14.1V252.4H58.2v213.3c0,7.8,6.3,14.1,14.1,14.1L435.7,479.8
	L435.7,479.8z"/>
<path style="fill:#194F82;" d="M465.7,127h-88.3c11.1-13.4,17.8-30.6,17.8-49.4c0-42.8-34.8-77.6-77.6-77.6
	c-26.2,0-49.4,13.1-63.5,33.1C239.9,13.1,216.7,0,190.5,0c-42.8,0-77.6,34.8-77.6,77.6c0,18.7,6.7,36,17.8,49.4H42.3
	C19,127,0,146,0,169.3V210c0,19,12.6,35.2,29.9,40.5v215.1c0,23.3,19,42.3,42.3,42.3h363.4c23.3,0,42.3-19,42.3-42.3v-215
	c17.3-5.3,30-21.4,30-40.5v-40.7C508,146,489,127,465.7,127z M268.1,77.6c0-27.2,22.2-49.4,49.4-49.4s49.4,22.2,49.4,49.4
	S344.7,127,317.5,127h-49.4V77.6z M190.5,28.2c27.2,0,49.4,22.2,49.4,49.4V127h-49.4c-27.2,0-49.4-22.2-49.4-49.4
	S163.3,28.2,190.5,28.2z M192.4,479.8H72.3c-7.8,0-14.1-6.3-14.1-14.1V252.4h134.2V479.8z M192.4,224.2H42.3
	c-7.8,0-14.1-6.3-14.1-14.1v-40.7c0-7.8,6.3-14.1,14.1-14.1h150.1L192.4,224.2L192.4,224.2z M287.4,479.8h-66.8V252.4h66.8V479.8z
	 M287.4,224.2h-66.8v-69h66.8V224.2z M449.8,465.7c0,7.8-6.3,14.1-14.1,14.1H315.6V252.4h134.2V465.7z M479.8,210.1
	c0,7.8-6.3,14.1-14.1,14.1H315.6v-69h150.1c7.8,0,14.1,6.3,14.1,14.1L479.8,210.1L479.8,210.1z"/>
<g>
	<path style="fill:#56ACE0;" d="M479.8,210.1v-40.7c0-7.8-6.3-14.1-14.1-14.1H315.6v69h150.1C473.4,224.2,479.8,217.9,479.8,210.1z"
		/>
	<path style="fill:#56ACE0;" d="M192.4,155.2H42.3c-7.8,0-14.1,6.3-14.1,14.1V210c0,7.8,6.3,14.1,14.1,14.1h150.1L192.4,155.2
		L192.4,155.2z"/>
</g>
<g>
	<rect x="220.6" y="155.2" style="fill:#FFC10D;" width="66.8" height="69"/>
	<path style="fill:#FFC10D;" d="M421.6,430.7V301.5c0-11.5-9.3-20.9-20.9-20.9h-85.1v170.9h85.1
		C412.3,451.6,421.6,442.2,421.6,430.7z"/>
	<path style="fill:#FFC10D;" d="M87.3,295.8h55.1c7.8,0,14.1,6.3,14.1,14.1c0,7.8-6.3,14.1-14.1,14.1h-56v34.5h35.4
		c7.8,0,14.1,6.3,14.1,14.1c0,7.8-6.3,14.1-14.1,14.1H86.4v44c0,11.5,9.3,20.9,20.9,20.9h85.1v-171h-85.1
		C97.7,280.6,89.8,287,87.3,295.8z"/>
	<rect x="220.6" y="252.4" style="fill:#FFC10D;" width="66.8" height="227.4"/>
</g>
</svg>