<?xml version="1.0" encoding="iso-8859-1"?>
<!-- Uploaded to: SVG Repo, www.svgrepo.com, Generator: SVG Repo Mixer Tools -->
<svg height="800px" width="800px" version="1.1" id="Layer_1" xmlns="http://www.w3.org/2000/svg" xmlns:xlink="http://www.w3.org/1999/xlink" 
	 viewBox="0 0 512 512" xml:space="preserve">
<path style="fill:#36D9D9;" d="M334.582,215.151L283.603,80.807c-3.339-8.57-13.021-12.911-21.592-9.572
	c-2.337,0.89-4.341,2.226-6.01,4.007c-1.67-1.781-3.674-3.117-6.01-4.007c-8.57-3.339-18.253,1.002-21.592,9.572l-21.259,55.986
	l-0.333,0.779l-11.687,31.054l60.883,37.398l97.948,60.327L334.582,215.151z"/>
<path style="fill:#43BFBF;" d="M353.948,266.351l-19.367-51.2L283.603,80.807c-3.339-8.57-13.021-12.911-21.592-9.572
	c-2.337,0.89-4.341,2.226-6.01,4.007v130.783L353.948,266.351z"/>
<path style="fill:#FFC033;" d="M256,100.174c-27.619,0-50.087-22.468-50.087-50.087S228.381,0,256,0s50.087,22.468,50.087,50.087
	S283.619,100.174,256,100.174z"/>
<path style="fill:#F9A926;" d="M306.087,50.087C306.087,22.468,283.619,0,256,0v100.174
	C283.619,100.174,306.087,77.706,306.087,50.087z"/>
<path style="fill:#F26D76;" d="M402.365,394.017l-48.417-127.666l-19.367-51.2L256,166.845l-49.195-29.273l-11.687,31.054
	l-29.385,77.357l-12.021,31.833l102.289,64l165.954,103.847L402.365,394.017z"/>
<polygon style="fill:#E65C64;" points="421.954,445.663 402.365,394.017 353.948,266.351 334.582,215.151 256,166.845 256,341.816 
	"/>
<path style="fill:#36D9D9;" d="M438.539,489.294l-16.585-43.631l-19.588-51.645L256,302.414l-90.268-56.431l-12.021,31.833
	l-31.499,82.922l-12.021,31.61L256,477.941l39.179,22.929h143.47C439.986,497.197,439.986,493.078,438.539,489.294z"/>
<path style="fill:#43BFBF;" d="M295.179,500.87h143.47c1.337-3.673,1.337-7.791-0.11-11.576l-16.585-43.631l-19.588-51.645
	L256,302.414v175.527L295.179,500.87z"/>
<path style="fill:#F26D76;" d="M323.116,478.609L256,439.207l-133.788-78.47l-12.021,31.61l-36.73,96.946
	c-1.447,3.784-1.447,7.903-0.11,11.576h287.721L323.116,478.609z"/>
<polygon style="fill:#E65C64;" points="361.07,500.87 256,500.87 256,439.207 323.116,478.609 "/>
<path style="fill:#D7EBFF;" d="M456.348,512H55.652c-9.217,0-16.696-7.473-16.696-16.696s7.479-16.696,16.696-16.696h400.696
	c9.217,0,16.696,7.473,16.696,16.696S465.565,512,456.348,512z"/>
<path style="fill:#BDDEFF;" d="M456.348,478.609H256V512h200.348c9.217,0,16.696-7.473,16.696-16.696
	S465.565,478.609,456.348,478.609z"/>
</svg>